<svg
    xmlns="http://www.w3.org/2000/svg"
    width="36px"
    height="36px" 
    viewBox="0 0 128 128"
    id="vector">
    <path
        id="path"
        d="M 64 64 M 1.1 64 C 1.1 47.324 7.731 31.314 19.523 19.523 C 31.314 7.731 47.324 1.1 64 1.1 C 80.676 1.1 96.686 7.731 108.477 19.523 C 120.269 31.314 126.9 47.324 126.9 64 C 126.9 77.281 122.694 90.227 114.887 100.972 C 107.081 111.716 96.068 119.717 83.437 123.821 C 70.806 127.926 57.194 127.926 44.563 123.821 C 31.932 119.717 20.919 111.716 13.113 100.972 C 5.306 90.227 1.1 77.281 1.1 64"
        fill="#f44336"/>
    <path
        id="path_1"
        d="M 64 0 C 28.7 0 0 28.7 0 64 C 0 99.3 28.7 128 64 128 C 99.3 128 128 99.3 128 64 C 128 28.7 99.3 0 64 0 Z M 64 116.9 C 34.8 116.9 11.1 93.2 11.1 64 C 11.1 34.8 34.8 11.1 64 11.1 C 93.2 11.1 116.9 34.8 116.9 64 C 116.9 93.2 93.2 116.9 64 116.9 Z M 84.3 45.6 L 82.3 43.6 C 80.7 42 78 42 76.4 43.6 L 64 56.1 L 51.5 43.7 C 49.9 42.1 47.2 42.1 45.6 43.7 L 43.6 45.7 C 42 47.3 42 50 43.6 51.6 L 56.1 64 L 43.7 76.5 C 42.1 78.1 42.1 80.8 43.7 82.4 L 45.7 84.4 C 47.3 86 50 86 51.6 84.4 L 64 71.9 L 76.5 84.4 C 78.1 86 80.8 86 82.4 84.4 L 84.4 82.4 C 86 80.8 86 78.1 84.4 76.5 L 71.9 64 L 84.4 51.5 C 86 49.9 86 47.3 84.3 45.6 Z"
        fill="#ffffff"/>
</svg>
