<svg
    xmlns="http://www.w3.org/2000/svg"
    viewBox="0 0 550 550"
    id="vector">
    <path
        id="path"
        d="M 130.4 60.6 C 125.5 52 128.6 42.2 136.5 37.3 C 139.6 35.5 143.2 34.9 146.3 34.9 C 151.8 35.5 156.7 38.6 159.8 43.5 L 182.4 82.1 L 152.4 99.2 L 130.4 60.6 Z M 421.1 60.6 C 426 52 422.9 41.6 414.4 37.3 C 405.8 32.4 395.4 36.1 390.5 43.4 L 390.5 43.4 L 368.5 82 L 398.5 99.1 L 421.1 60.6 Z M 292.6 17.1 C 292.6 7.3 284.6 0 275.5 0 C 265.7 0 257.8 7.3 257.8 17.1 L 257.8 61.8 L 292.7 61.8 L 292.7 17.1 L 292.6 17.1 Z M 516 138.3 C 512.9 133.4 508 130.3 502.5 129.7 C 499.4 129.7 495.8 129.7 492.7 131.5 L 454.1 154.1 L 471.2 184.1 L 510.4 161.5 C 517.8 157.3 520.9 146.9 516 138.3 Z M 481.1 501.8 L 467.6 501.8 C 468.8 500 469.4 497.5 469.4 495.1 L 469.4 476.7 C 469.4 468.1 462.7 461.4 454.1 461.4 L 442.5 461.4 L 110.2 461.4 L 98 461.4 C 89.4 461.4 82.7 468.1 82.7 476.7 L 82.7 495.1 C 82.7 497.5 83.3 500 84.5 501.8 L 71 501.8 C 62.4 501.8 55.7 508.5 55.7 517.1 L 55.7 535.5 C 55.7 544.1 62.4 550.8 71 550.8 L 481.7 550.8 C 490.3 550.8 497 544.1 497 535.5 L 497 517.1 C 496.4 509.2 489.7 501.8 481.1 501.8 Z M 436.4 444.9 L 115.1 444.9 L 115.1 283.4 L 115.1 281 L 115.1 275.4 C 115.1 186.7 187.3 115.1 276.1 115.1 L 276.1 115.1 C 364.8 115.1 437.1 186.7 437.1 275.4 L 437.1 280.3 L 437.1 282.7 L 437.1 444.9 L 436.4 444.9 Z M 252.2 304.2 C 252.2 258.3 214.9 221 169 221 L 169 388.1 C 214.9 388 252.2 350.7 252.2 304.2 Z M 381.9 220.9 C 336 220.9 298.7 258.2 298.7 304.1 C 298.7 350 336 387.3 381.9 387.3 L 381.9 220.9 Z M 97.4 154.8 L 58.2 132.2 C 56.4 131 53.9 130.4 52.1 130.4 C 45.4 129.8 38.6 132.8 35 139 C 30.1 147.6 32.6 157.4 41.1 162.3 L 80.3 184.9 L 97.4 154.8 Z"
        fill="#f44336"/>
</svg>
