<?xml version="1.0" encoding="utf-8"?>
<!-- Generator: Adobe Illustrator 24.0.0, SVG Export Plug-In . SVG Version: 6.00 Build 0)  -->
<svg version="1.1" id="Layer_1" xmlns="http://www.w3.org/2000/svg" xmlns:xlink="http://www.w3.org/1999/xlink" x="0px" y="0px"
	 viewBox="0 0 614.24 93.6" style="enable-background:new 0 0 614.24 93.6;" xml:space="preserve">
<style type="text/css">
	.st0{fill:#FFFFFF;}
	.st1{enable-background:new    ;}
</style>
<g>
	<g>
		<path class="st0" d="M5,92.64c-2.23,0-4.04-1.81-4.04-4.04V5c0-2.23,1.81-4.04,4.04-4.04h604.24c2.23,0,4.04,1.81,4.04,4.04v83.6
			c0,2.23-1.81,4.04-4.04,4.04H5z"/>
		<path d="M609.24,1.91c1.7,0,3.09,1.38,3.09,3.09v83.6c0,1.7-1.38,3.09-3.09,3.09H5c-1.7,0-3.09-1.38-3.09-3.09V5
			C1.91,3.3,3.3,1.91,5,1.91H609.24 M609.24,0H5C2.24,0,0,2.24,0,5v83.6c0,2.76,2.24,5,5,5h604.24c2.76,0,5-2.24,5-5V5
			C614.24,2.24,612,0,609.24,0L609.24,0z"/>
	</g>
	<g>
		<g>
			<path d="M163.07,51.37c0,0.06,0,0.13,0,0.19c-0.05,0.09-0.1,0.18-0.14,0.27c-0.54,1.37-1.14,2.72-1.89,4
				c-0.96,1.66-2.12,3.16-3.63,4.37c-0.9,0.73-1.92,1.09-3.09,1.05c-0.99-0.03-1.92-0.33-2.82-0.71c-2.03-0.87-4.08-0.98-6.17-0.21
				c-0.68,0.25-1.35,0.53-2.04,0.74c-1.59,0.48-3.07,0.26-4.32-0.86c-0.71-0.63-1.36-1.33-1.96-2.07
				c-2.89-3.55-4.73-7.56-5.18-12.16c-0.2-2.02-0.06-4.02,0.56-5.96c1.1-3.43,3.28-5.78,6.85-6.67c0.72-0.18,1.48-0.28,2.22-0.29
				c0.86-0.02,1.71,0.21,2.53,0.49c0.89,0.3,1.78,0.62,2.67,0.93c0.6,0.21,1.2,0.24,1.82,0.03c0.79-0.28,1.6-0.5,2.38-0.78
				c1.84-0.66,3.71-0.99,5.67-0.56c2.21,0.48,4.07,1.49,5.43,3.34c0.04,0.06,0.08,0.12,0.12,0.18c-0.1,0.06-0.18,0.12-0.26,0.17
				c-3.42,2.17-4.78,6.11-3.35,9.82C159.33,48.87,160.86,50.45,163.07,51.37z"/>
			<path d="M147.51,32.92c-0.37-4.53,3.47-8.45,7.71-8.75c0,0.54,0.05,1.08-0.01,1.61c-0.33,3.12-3.01,6.22-6.04,7.03
				C148.62,32.95,148.07,33.04,147.51,32.92z"/>
		</g>
		<g class="st1">
			<path d="M208.92,53.33c0.16,1.81,1.75,3.37,4.76,3.37c2.75,0,4.34-1.27,4.34-3.25c0-1.61-1.11-2.45-3.41-3.01l-3.49-0.84
				c-2.86-0.65-5.4-2.34-5.4-5.9c0-4.19,3.64-6.49,7.94-6.49c4.38,0,7.83,2.39,7.89,6.38h-3.66c-0.14-1.77-1.53-3.26-4.27-3.26
				c-2.42,0-4.04,1.15-4.04,3.07c0,1.38,1,2.36,2.99,2.82l3.5,0.84c3.25,0.75,5.78,2.29,5.78,6.06c0,4.26-3.44,6.72-8.47,6.72
				c-6.13,0-8.16-3.55-8.23-6.51H208.92z"/>
			<path d="M227.56,36.4c1.37,0,2.28,0.84,2.28,2s-0.89,2.01-2.28,2.01c-1.3,0-2.23-0.84-2.23-2.01S226.26,36.4,227.56,36.4z
				 M225.72,42.57h3.76v16.84h-3.76V42.57z"/>
			<path d="M244.67,58.98v-2.4h-0.14c-0.64,1.46-2.4,2.63-4.77,2.63c-3.72,0-6.48-2.75-6.48-7.48v-1.85c0-4.66,2.71-7.54,6.51-7.54
				c2.72,0,4.17,1.26,4.82,2.66h0.14v-2.42h3.66v16.55c0,4.74-3.55,6.56-7.78,6.56c-4.79,0-6.89-2.47-6.99-5.04h3.69
				c0.19,1.18,1.29,2.15,3.41,2.15C243.38,62.79,244.67,61.4,244.67,58.98z M237.1,50.21v1.4c0,3.01,1.62,4.69,3.9,4.69
				c2.34,0,3.66-1.99,3.66-4.57V50.2c0-2.77-1.38-4.81-3.68-4.81C238.61,45.39,237.1,47.22,237.1,50.21z"/>
			<path d="M252.82,42.57h3.69v2.37h0.14c0.57-1.29,2.23-2.64,4.85-2.64c3.34,0,5.89,2.07,5.89,5.98v11.13h-3.77v-9.95
				c0-2.75-1.34-3.92-3.49-3.92c-2.2,0-3.56,1.37-3.56,4.03v9.83h-3.76V42.57z"/>
			<path d="M280.33,36.4c1.37,0,2.28,0.84,2.28,2s-0.89,2.01-2.28,2.01c-1.3,0-2.23-0.84-2.23-2.01S279.02,36.4,280.33,36.4z
				 M278.48,42.57h3.76v16.84h-3.76V42.57z"/>
			<path d="M287,42.57h3.69v2.37h0.14c0.57-1.29,2.23-2.64,4.85-2.64c3.34,0,5.89,2.07,5.89,5.98v11.13h-3.77v-9.95
				c0-2.75-1.34-3.92-3.49-3.92c-2.2,0-3.56,1.37-3.56,4.03v9.83H287V42.57z"/>
			<path d="M329.72,59.41h-3.85l-3.42-12.29h-0.11l-3.36,12.29h-3.88l-4.58-16.84h4.03l2.61,12.68h0.16l3.31-12.68h3.53l3.41,12.68
				h0.16l2.67-12.68h3.74L329.72,59.41z"/>
			<path d="M338.89,36.4c1.37,0,2.28,0.84,2.28,2s-0.89,2.01-2.28,2.01c-1.3,0-2.23-0.84-2.23-2.01S337.58,36.4,338.89,36.4z
				 M337.04,42.57h3.76v16.84h-3.76V42.57z"/>
			<path d="M346.46,38.5h3.66v4.2h3.28v2.94h-3.28v8.64c0,1.78,0.7,2.29,2.55,2.29c0.32,0,0.62,0,0.83-0.03v2.85
				c-0.3,0.05-0.99,0.13-1.75,0.13c-4.14,0-5.35-1.46-5.35-4.85v-9.02h-2.36V42.7h2.42V38.5z"/>
			<path d="M356.86,36.54h3.76v8.4h0.16c0.46-1.13,1.91-2.64,4.68-2.64c3.66,0,6.05,2.55,6.05,6.49v10.62h-3.77v-9.77
				c0-2.59-1.32-4.09-3.48-4.09c-2.2,0-3.63,1.43-3.63,4.11v9.76h-3.76V36.54z"/>
			<path d="M380.29,59.41l7.42-21.72h4.38l7.4,21.72h-4.12l-1.85-5.86h-7.5l-1.85,5.86H380.29z M389.71,41.59l-2.85,9.04h5.83
				l-2.83-9.04H389.71z"/>
			<path d="M406.06,57.04h-0.16v8.05h-3.76V42.56h3.68v2.43h0.14c0.67-1.54,2.37-2.66,5-2.66c3.77,0,6.33,2.75,6.33,7.66v2.02
				c0,4.89-2.53,7.62-6.4,7.62C408.29,59.63,406.76,58.47,406.06,57.04z M413.46,51.69v-1.42c0-3.18-1.45-4.89-3.77-4.89
				c-2.34,0-3.79,1.86-3.79,4.7v1.72c0,2.71,1.43,4.77,3.85,4.77C411.93,56.58,413.46,54.97,413.46,51.69z"/>
			<path d="M424.84,57.04h-0.16v8.05h-3.76V42.56h3.68v2.43h0.14c0.67-1.54,2.37-2.66,5-2.66c3.77,0,6.33,2.75,6.33,7.66v2.02
				c0,4.89-2.53,7.62-6.4,7.62C427.07,59.63,425.54,58.47,424.84,57.04z M432.24,51.69v-1.42c0-3.18-1.45-4.89-3.77-4.89
				c-2.34,0-3.79,1.86-3.79,4.7v1.72c0,2.71,1.43,4.77,3.85,4.77C430.71,56.58,432.24,54.97,432.24,51.69z"/>
			<path d="M439.82,36.54h3.76v22.87h-3.76V36.54z"/>
			<path d="M447.27,51.74v-1.42c0-4.89,2.71-8.04,7.31-8.04c4.74,0,7.29,3.25,7.29,8.02v1.51h-10.89v0.53c0,2.34,1.24,4.38,3.8,4.38
				c2.05,0,3.06-1.07,3.28-2.24h3.63c-0.27,2.26-2.13,5.22-6.89,5.22C449.94,59.7,447.27,56.63,447.27,51.74z M458.2,49.29v-0.03
				c0-2.37-1.35-4.07-3.6-4.07c-2.26,0-3.63,1.72-3.63,4.07v0.03H458.2z"/>
		</g>
	</g>
</g>
</svg>
