<svg
    xmlns="http://www.w3.org/2000/svg"
    viewBox="0 0 533 533"
    id="vector">
    <path
        id="path"
        d="M 66.7 133.3 L 66.7 466.6 L 533.4 466.6 L 533.4 133.3 L 66.7 133.3 Z M 500 411.1 L 433.3 300 L 357.7 363 L 300 266.7 L 100 433.3 L 100 166.7 L 500 166.7 L 500 411.1 Z M 133.3 250 C 133.3 277.6 155.7 300 183.3 300 C 210.9 300 233.3 277.6 233.3 250 C 233.3 222.4 210.9 200 183.3 200 C 155.7 200 133.3 222.4 133.3 250 Z M 466.7 66.7 L 0 66.7 L 0 400 L 33.3 400 L 33.3 100 L 466.6 100 L 466.6 66.7 Z"
        fill="#01a0b9"/>
</svg>
