<svg
    xmlns="http://www.w3.org/2000/svg"
    viewBox="0 0 36 36"
    id="vector">
    <path
        id="path"
        d="M 33.79 28.75 L 23.4 25.18 C 23.7 24.78 24.01 24.37 24.32 23.95 C 28.1 18.77 30.02 14.76 30.02 12.02 C 30.02 5.39 24.63 0 18 0 C 11.37 0 5.98 5.39 5.98 12.02 C 5.98 14.76 7.9 18.78 11.68 23.95 C 11.99 24.37 12.3 24.78 12.6 25.19 L 2.21 28.75 C 1.81 28.89 1.54 29.27 1.53 29.69 C 1.53 30.12 1.8 30.5 2.2 30.63 L 17.64 35.94 C 17.75 35.98 17.86 36 17.97 36 C 18.08 36 18.19 35.98 18.29 35.95 L 33.78 30.64 C 34.18 30.5 34.46 30.12 34.46 29.7 C 34.46 29.27 34.19 28.89 33.79 28.75 Z M 28.02 12.02 C 28.02 16.35 21.36 24.82 18 28.64 C 14.64 24.82 7.98 16.35 7.98 12.02 C 7.98 6.49 12.47 2 18 2 C 23.52 2 28.02 6.49 28.02 12.02 Z M 17.97 33.94 L 5.61 29.69 L 13.9 26.85 C 15.73 29.14 17.18 30.72 17.26 30.81 C 17.45 31.02 17.72 31.13 18 31.13 C 18.28 31.13 18.55 31.01 18.74 30.81 C 18.82 30.72 20.27 29.14 22.11 26.84 L 30.39 29.69 L 17.97 33.94 Z"
        fill="#212121"/>
    <path
        id="path_1"
        d="M 18 5.1 C 16.31 5.1 14.72 5.76 13.52 6.95 C 12.32 8.15 11.67 9.74 11.67 11.43 C 11.67 13.12 12.33 14.71 13.52 15.91 C 14.72 17.11 16.31 17.76 18 17.76 C 19.69 17.76 21.28 17.1 22.48 15.91 C 24.95 13.44 24.95 9.43 22.48 6.96 C 21.28 5.76 19.69 5.1 18 5.1 Z M 21.28 14.71 C 20.4 15.59 19.24 16.07 18 16.07 C 16.76 16.07 15.6 15.59 14.72 14.71 C 13.84 13.83 13.36 12.67 13.36 11.43 C 13.36 10.19 13.84 9.03 14.72 8.15 C 15.6 7.27 16.76 6.79 18 6.79 C 19.24 6.79 20.4 7.27 21.28 8.15 C 23.09 9.96 23.09 12.9 21.28 14.71 Z"
        fill="#212121"/>
    <path
        id="path_2"
        d="M 20.03 10.59 L 18.85 10.59 L 18.85 9.41 C 18.85 8.94 18.47 8.56 18 8.56 C 17.53 8.56 17.15 8.94 17.15 9.41 L 17.15 10.59 L 15.97 10.59 C 15.5 10.59 15.12 10.97 15.12 11.44 C 15.12 11.91 15.5 12.29 15.97 12.29 L 17.15 12.29 L 17.15 13.47 C 17.15 13.94 17.53 14.32 18 14.32 C 18.47 14.32 18.85 13.94 18.85 13.47 L 18.85 12.28 L 20.03 12.28 C 20.5 12.28 20.88 11.9 20.88 11.43 C 20.88 10.96 20.5 10.59 20.03 10.59 Z"
        fill="#212121"/>
</svg>
