<?xml version="1.0" encoding="utf-8"?>
<!-- Generator: Adobe Illustrator 26.0.3, SVG Export Plug-In . SVG Version: 6.00 Build 0)  -->
<svg version="1.1" id="Layer_1" xmlns="http://www.w3.org/2000/svg" xmlns:xlink="http://www.w3.org/1999/xlink" x="0px" y="0px"
	 viewBox="0 0 120 120" style="enable-background:new 0 0 120 120;" xml:space="preserve">
<style type="text/css">
	.st0{fill:url(#SVGID_1_);}
	.st1{fill:url(#SVGID_00000095330013331534983090000015201725837916977083_);}
	.st2{fill:url(#SVGID_00000105417754535081599350000016047106167845773734_);}
	.st3{fill:url(#SVGID_00000026143748712975204130000006282790573587806088_);}
	.st4{fill:url(#SVGID_00000090986099971507288700000010348652094707477648_);}
	.st5{fill:url(#SVGID_00000135680777234197306200000014530585936749641635_);}
	.st6{fill:url(#SVGID_00000178197511720840894460000003203993275628957824_);}
	.st7{fill:url(#SVGID_00000088829992346084707970000010083404208156439684_);}
	.st8{fill:url(#SVGID_00000082365313496257375130000011577834236286243972_);}
	.st9{fill:url(#SVGID_00000034056271587790177900000002579344238388972702_);}
	.st10{fill:url(#SVGID_00000170275301182950696810000011034008823761576085_);}
	.st11{fill:url(#SVGID_00000065756022095061266110000012191931850911217834_);}
	.st12{fill:url(#SVGID_00000064343064722833253900000011320588417293127072_);}
	.st13{fill:url(#SVGID_00000067205450689793664740000006973682419587671452_);}
</style>
<g>
	<linearGradient id="SVGID_1_" gradientUnits="userSpaceOnUse" x1="39.3209" y1="5.5892" x2="39.3209" y2="124.9524">
		<stop  offset="0" style="stop-color:#FFFFFF"/>
		<stop  offset="0.2548" style="stop-color:#E8F8FF"/>
		<stop  offset="0.7854" style="stop-color:#AEE5FF"/>
		<stop  offset="1" style="stop-color:#95DDFF"/>
	</linearGradient>
	<path class="st0" d="M62,101.8C62,74,61.9,46.2,62.1,18.4c-0.1-2.3,0-4.7-0.1-7c0-0.5,0-1.1-0.4-1.4c-13.3,0-26.6,0-39.8,0
		c-0.4,0.3-0.4,0.8-0.4,1.3c0,1.8,0,3.6,0,5.4c0,1-0.3,1.2-1.2,1.2c-0.7,0-1.4,0-2.1,0c-0.9,0.1-1.2,0.4-1.3,1.3c0,0.6,0,1.2,0,1.9
		c0,26.8,0,53.6,0,80.4c0,0.6,0,1.2,0,1.8c0,0.4,0,0.7,0.3,1c0,0,0.1,0,0.1,0.1c0,1.4,0,2.9,0,4.3c0,1.4,0,1.4,1.4,1.4
		c14,0,28,0,42,0c0.4,0,0.8,0,1.2,0c0.3-0.2,0.4-0.6,0.4-0.9c0-1.3,0-2.6,0-3.9c0-0.3-0.1-0.7-0.4-0.9c0,0,0,0,0,0
		C62.2,103.5,62,102.6,62,101.8z"/>
	
		<linearGradient id="SVGID_00000142898508020220077930000015073287359698554538_" gradientUnits="userSpaceOnUse" x1="34.559" y1="26.4595" x2="34.559" y2="91.9794">
		<stop  offset="0" style="stop-color:#3979F9"/>
		<stop  offset="0.7085" style="stop-color:#1A20F2"/>
	</linearGradient>
	<path style="fill:url(#SVGID_00000142898508020220077930000015073287359698554538_);" d="M31.6,67.5c0-1.1,0-2.3,0-3.4
		c0-0.5,0.1-0.8,0.7-0.8c1.5,0,3,0,4.5,0c0.6,0,0.7,0.2,0.7,0.8c0,2.3,0,4.6,0,6.8c0,0.6-0.1,0.8-0.7,0.8c-1.5,0-2.9,0-4.4,0
		c-0.6,0-0.8-0.2-0.7-0.8C31.7,69.8,31.6,68.6,31.6,67.5z"/>
	
		<linearGradient id="SVGID_00000170278924995995416750000012182439503402425236_" gradientUnits="userSpaceOnUse" x1="34.561" y1="26.4595" x2="34.561" y2="91.9794">
		<stop  offset="0" style="stop-color:#3979F9"/>
		<stop  offset="0.7085" style="stop-color:#1A20F2"/>
	</linearGradient>
	<path style="fill:url(#SVGID_00000170278924995995416750000012182439503402425236_);" d="M37.5,50.9c0,1.1,0,2.3,0,3.4
		c0,0.5-0.2,0.8-0.7,0.7c-1.5,0-3,0-4.5,0c-0.5,0-0.7-0.2-0.7-0.7c0-2.3,0-4.7,0-7c0-0.5,0.1-0.7,0.7-0.7c1.5,0,3,0,4.5,0
		c0.6,0,0.8,0.2,0.7,0.8C37.5,48.6,37.5,49.8,37.5,50.9z"/>
	
		<linearGradient id="SVGID_00000012433608980167635520000016607865258969314945_" gradientUnits="userSpaceOnUse" x1="49.1113" y1="26.4595" x2="49.1113" y2="91.9794">
		<stop  offset="0" style="stop-color:#3979F9"/>
		<stop  offset="0.7085" style="stop-color:#1A20F2"/>
	</linearGradient>
	<path style="fill:url(#SVGID_00000012433608980167635520000016607865258969314945_);" d="M52,50.9c0,1.1,0,2.3,0,3.4
		c0,0.5-0.1,0.8-0.7,0.8c-1.5,0-3,0-4.5,0c-0.6,0-0.7-0.2-0.7-0.8c0-2.3,0-4.6,0-6.9c0-0.5,0.1-0.7,0.7-0.7c1.5,0,3,0,4.6,0
		c0.5,0,0.7,0.2,0.6,0.7C52,48.5,52,49.7,52,50.9z"/>
	
		<linearGradient id="SVGID_00000041996331925665473620000011085508418152915616_" gradientUnits="userSpaceOnUse" x1="49.1113" y1="26.4595" x2="49.1113" y2="91.9794">
		<stop  offset="0" style="stop-color:#3979F9"/>
		<stop  offset="0.7085" style="stop-color:#1A20F2"/>
	</linearGradient>
	<path style="fill:url(#SVGID_00000041996331925665473620000011085508418152915616_);" d="M46.2,67.5c0-1.1,0-2.3,0-3.4
		c0-0.5,0.2-0.7,0.7-0.7c1.5,0,2.9,0,4.4,0c0.5,0,0.8,0.1,0.8,0.7c0,2.3,0,4.7,0,7c0,0.5-0.2,0.7-0.7,0.7c-1.5,0-3.1,0-4.6,0
		c-0.5,0-0.6-0.2-0.6-0.6C46.2,69.9,46.2,68.7,46.2,67.5z"/>
	
		<linearGradient id="SVGID_00000092440617956108953530000010535038872324322455_" gradientUnits="userSpaceOnUse" x1="34.5583" y1="26.4595" x2="34.5583" y2="91.9794">
		<stop  offset="0" style="stop-color:#3979F9"/>
		<stop  offset="0.7085" style="stop-color:#1A20F2"/>
	</linearGradient>
	<path style="fill:url(#SVGID_00000092440617956108953530000010535038872324322455_);" d="M31.6,34.2c0-1.2,0-2.3,0-3.5
		c0-0.5,0.1-0.7,0.7-0.7c1.5,0,3.1,0,4.6,0c0.5,0,0.6,0.2,0.6,0.6c0,2.4,0,4.7,0,7.1c0,0.4-0.2,0.6-0.6,0.6c-1.6,0-3.1,0-4.7,0
		c-0.5,0-0.6-0.2-0.6-0.6C31.6,36.6,31.6,35.4,31.6,34.2z"/>
	
		<linearGradient id="SVGID_00000152238029738045204620000013865217525460103869_" gradientUnits="userSpaceOnUse" x1="49.1109" y1="26.4595" x2="49.1109" y2="91.9794">
		<stop  offset="0" style="stop-color:#3979F9"/>
		<stop  offset="0.7085" style="stop-color:#1A20F2"/>
	</linearGradient>
	<path style="fill:url(#SVGID_00000152238029738045204620000013865217525460103869_);" d="M52,34.3c0,1.1,0,2.3,0,3.4
		c0,0.5-0.1,0.6-0.6,0.6c-1.5,0-3.1,0-4.6,0c-0.5,0-0.7-0.2-0.7-0.7c0-2.3,0-4.7,0-7c0-0.5,0.2-0.6,0.6-0.6c1.5,0,3.1,0,4.6,0
		c0.5,0,0.7,0.2,0.7,0.7C52,31.9,52,33.1,52,34.3z"/>
	
		<linearGradient id="SVGID_00000133509740408794127580000015343167561331161496_" gradientUnits="userSpaceOnUse" x1="34.5591" y1="26.4595" x2="34.5591" y2="91.9794">
		<stop  offset="0" style="stop-color:#3979F9"/>
		<stop  offset="0.7085" style="stop-color:#1A20F2"/>
	</linearGradient>
	<path style="fill:url(#SVGID_00000133509740408794127580000015343167561331161496_);" d="M31.6,84.2c0-1.1,0-2.2,0-3.3
		c0-0.6,0.1-0.8,0.7-0.8c1.5,0,2.9,0,4.4,0c0.6,0,0.8,0.2,0.8,0.8c0,2.2,0,4.5,0,6.7c0,0.6-0.1,0.8-0.7,0.8c-1.5,0-2.9,0-4.4,0
		c-0.6,0-0.8-0.2-0.7-0.8C31.7,86.4,31.6,85.3,31.6,84.2z"/>
	
		<linearGradient id="SVGID_00000058548106310082848560000017808116408514900645_" gradientUnits="userSpaceOnUse" x1="49.1114" y1="26.4595" x2="49.1114" y2="91.9794">
		<stop  offset="0" style="stop-color:#3979F9"/>
		<stop  offset="0.7085" style="stop-color:#1A20F2"/>
	</linearGradient>
	<path style="fill:url(#SVGID_00000058548106310082848560000017808116408514900645_);" d="M52,84.2c0,1.1,0,2.3,0,3.4
		c0,0.5-0.1,0.8-0.7,0.7c-1.5,0-3,0-4.5,0c-0.6,0-0.7-0.2-0.7-0.8c0-2.3,0-4.5,0-6.8c0-0.5,0.1-0.8,0.7-0.8c1.5,0,3,0,4.5,0
		c0.6,0,0.7,0.3,0.7,0.8C52,81.9,52,83.1,52,84.2z"/>
	
		<linearGradient id="SVGID_00000115474051489313073690000013031200894872001688_" gradientUnits="userSpaceOnUse" x1="90.4015" y1="74.0286" x2="90.4015" y2="99.6021">
		<stop  offset="0" style="stop-color:#FFFFFF"/>
		<stop  offset="0.2548" style="stop-color:#E8F8FF"/>
		<stop  offset="0.7854" style="stop-color:#AEE5FF"/>
		<stop  offset="1" style="stop-color:#95DDFF"/>
	</linearGradient>
	<path style="fill:url(#SVGID_00000115474051489313073690000013031200894872001688_);" d="M93.4,74c0.1,0,0.1,0,0.2,0
		c4.7,1.3,7.9,4.2,9.3,8.9c2,6.7-1.8,13.7-8.5,15.8c-0.3,0.1-0.5,0.2-0.8,0.3c-0.3,0.4-0.7,0.6-1.1,0.6c-1.5,0-3.1,0.3-4.6-0.2
		c-3.8-0.7-6.7-2.9-8.7-6.2c-1.2-1.9-1.8-4.1-1.8-6.3c0-3.2,0.8-6.2,3-8.7c2-2.3,4.4-4,7.5-4.6c1.5-0.3,3.1-0.5,4.6-0.1
		C92.9,73.5,93.2,73.7,93.4,74z"/>
	
		<linearGradient id="SVGID_00000070077641416513160760000011934279500307936660_" gradientUnits="userSpaceOnUse" x1="90.4101" y1="104.9893" x2="90.4101" y2="97.2087">
		<stop  offset="0" style="stop-color:#3979F9"/>
		<stop  offset="0.7085" style="stop-color:#1A20F2"/>
	</linearGradient>
	<path style="fill:url(#SVGID_00000070077641416513160760000011934279500307936660_);" d="M93.6,104.1c-2,0-3.9,0-5.9,0
		c-0.2-0.2-0.3-0.3-0.4-0.6c-0.1-1.3-0.1-2.6,0-4c0-0.2,0.2-0.4,0.4-0.5c1.9,0.3,3.9,0.3,5.8,0C93.6,100.7,93.6,102.4,93.6,104.1z"
		/>
	
		<linearGradient id="SVGID_00000054248502069353392140000007670183614828040868_" gradientUnits="userSpaceOnUse" x1="82.4445" y1="15.7423" x2="82.4445" y2="156.3458">
		<stop  offset="0" style="stop-color:#3979F9"/>
		<stop  offset="0.7085" style="stop-color:#1A20F2"/>
	</linearGradient>
	<path style="fill:url(#SVGID_00000054248502069353392140000007670183614828040868_);" d="M103.3,108.8c-0.1-1.2-0.1-2.5,0-3.7
		c0-0.8-0.2-1-1-1c-2.9,0-5.9,0-8.8,0c-0.3-0.4-0.8-0.4-1.2-0.4c-1.5,0-3.1,0-4.6,0c0-1.6,0-3.1,0-4.7c-0.3-0.1-0.6-0.2-0.9-0.3
		c-6.9-2.2-10.6-9.5-8.3-16.3c1.7-5.2,7.3-9.8,14.7-8.5c0.1,0.1,0.2,0.1,0.3,0.1c0-14.3,0-28.7,0-43c0-0.8-0.2-1.1-1.1-1.1
		c-8.3,0-16.5,0-24.8,0c-0.8,0-1.1-0.2-1.1-1.1c0.1-3.3,0-6.5,0-9.8c0-0.6-0.1-0.8-0.7-0.8c-1.4,0.1-2.8,0-4.2,0.1
		c-0.1,0.5-0.2,0.9-0.2,1.4c0,28.1,0,56.2,0,84.2c0,0,0,0,0,0.1c0,0,0,0,0,0c0,1.9,0,3.9,0,5.8c0.4,0,0.8,0,1.3,0
		c7.8,0,15.7,0,23.5,0c5.3,0,10.5,0,15.8,0C103.1,110,103.4,109.7,103.3,108.8z"/>
	
		<linearGradient id="SVGID_00000026860597554251172410000008237852004837233814_" gradientUnits="userSpaceOnUse" x1="77.1481" y1="42.0652" x2="77.1481" y2="73.5326">
		<stop  offset="0" style="stop-color:#FFFFFF"/>
		<stop  offset="0.2548" style="stop-color:#E8F8FF"/>
		<stop  offset="0.7854" style="stop-color:#AEE5FF"/>
		<stop  offset="1" style="stop-color:#95DDFF"/>
	</linearGradient>
	<path style="fill:url(#SVGID_00000026860597554251172410000008237852004837233814_);" d="M80.1,67.5c0,1.1,0,2.2,0,3.3
		c0,0.6-0.2,0.9-0.8,0.9c-1.4,0-2.9,0-4.3,0c-0.6,0-0.8-0.2-0.8-0.8c0-2.2,0-4.5,0-6.7c0-0.6,0.2-0.9,0.8-0.9c1.4,0,2.9,0,4.3,0
		c0.6,0,0.8,0.2,0.8,0.8C80.1,65.3,80.1,66.4,80.1,67.5z"/>
	
		<linearGradient id="SVGID_00000013166015624413695870000005504011583794166676_" gradientUnits="userSpaceOnUse" x1="77.1492" y1="42.0652" x2="77.1492" y2="73.5326">
		<stop  offset="0" style="stop-color:#FFFFFF"/>
		<stop  offset="0.2548" style="stop-color:#E8F8FF"/>
		<stop  offset="0.7854" style="stop-color:#AEE5FF"/>
		<stop  offset="1" style="stop-color:#95DDFF"/>
	</linearGradient>
	<path style="fill:url(#SVGID_00000013166015624413695870000005504011583794166676_);" d="M80.1,50.9c0,1.1,0,2.1,0,3.2
		c0,0.7-0.2,1-0.9,1c-1.4,0-2.7,0-4.1,0c-0.6,0-0.9-0.2-0.9-0.8c0-2.2,0-4.5,0-6.7c0-0.6,0.2-0.8,0.8-0.8c1.4,0,2.9,0,4.3,0
		c0.7,0,0.8,0.3,0.8,0.9C80.1,48.7,80.1,49.8,80.1,50.9z"/>
</g>
</svg>
