<svg
    xmlns="http://www.w3.org/2000/svg"
    viewBox="0 0 478 478"
    id="vector">
    <path
        id="path"
        d="M 68.8 0 C 31.8 0 1.8 30 1.8 67 L 1.8 411.8 C 1.8 448.8 31.8 478.8 68.8 478.8 L 125.2 478.8 L 125.2 303.7 L 93.4 303.7 C 84.5 303.7 77.3 296.5 77.3 287.6 L 77.3 240.1 C 77.3 231.2 84.5 224 93.4 224 L 125.2 224 L 125.2 151.6 C 125.2 103.5 164.2 64.4 212.4 64.4 L 284.7 64.4 C 293.6 64.4 300.8 71.6 300.8 80.5 L 300.8 144 C 300.8 152.9 293.6 160.1 284.7 160.1 L 237.2 160.1 C 228.3 160.1 221.1 167.3 221.1 176.2 L 221.1 223.9 L 284.8 223.9 C 293.7 223.9 300.9 231.1 300.9 240 L 300.9 287.5 C 300.9 296.4 293.7 303.6 284.8 303.6 L 221.1 303.6 L 221.1 478.7 L 410.2 478.7 C 447.2 478.7 477.2 448.7 477.2 411.7 L 477.2 67 C 477 30 447 0 410 0 L 68.8 0 Z"
        fill="#3c5a98"/>
</svg>
