<svg
    xmlns="http://www.w3.org/2000/svg"
    viewBox="0 0 533 533"
    id="vector">
    <path
        id="path"
        d="M 158.3 300 C 158.3 359.8 206.8 408.3 266.6 408.3 C 326.4 408.3 375 359.8 375 300 C 375 240.2 326.5 191.7 266.7 191.7 C 206.9 191.7 158.3 240.2 158.3 300 Z M 500 116.7 L 383.3 116.7 C 375 83.3 366.7 50 333.3 50 L 200 50 C 166.7 50 158.3 83.3 150 116.7 L 33.3 116.7 C 15 116.7 0 131.7 0 150 L 0 450 C 0 468.3 15 483.3 33.3 483.3 L 500 483.3 C 518.3 483.3 533.3 468.3 533.3 450 L 533.3 150 C 533.3 131.7 518.3 116.7 500 116.7 Z M 266.7 447.9 C 185 447.9 118.8 381.7 118.8 300 C 118.8 218.3 185 152.1 266.7 152.1 C 348.4 152.1 414.6 218.3 414.6 300 C 414.6 381.7 348.4 447.9 266.7 447.9 Z M 500 216.7 L 433.3 216.7 L 433.3 183.4 L 500 183.4 L 500 216.7 Z"
        fill="#01a0b9"/>
</svg>
