<svg
    xmlns="http://www.w3.org/2000/svg"
    viewBox="0 0 36 36"
    id="vector">
    <path
        id="path"
        d="M 30.87 12.95 C 29.06 11.48 23.57 6.83 16.38 6.83 C 16.37 6.83 16.35 6.83 16.34 6.83 L 16.32 6.83 C 16.31 6.83 16.28 6.83 16.26 6.83 C 9.07 6.83 3.58 11.48 1.78 12.95 C 0.34 14.11 0.02 15.35 0 16.17 C -0.02 17.31 0.43 18.32 1.34 19.16 C 3.85 21.59 9.16 25.73 16.2 25.8 C 16.23 25.8 16.27 25.83 16.3 25.83 C 16.33 25.83 16.36 25.83 16.4 25.83 C 23.46 25.83 28.79 21.63 31.34 19.16 C 32.22 18.35 32.67 17.32 32.65 16.18 C 32.63 15.02 32 13.85 30.87 12.95 Z M 29.93 17.7 C 27.67 19.88 22.31 23.76 16.31 23.79 C 10.31 23.76 4.96 19.89 2.7 17.7 C 2.28 17.31 1.99 16.85 2 16.23 C 2.02 15.35 2.92 14.6 3.05 14.5 C 5.81 12.25 10.46 8.83 16.31 8.83 C 16.32 8.83 16.32 8.83 16.33 8.83 C 16.33 8.83 16.34 8.83 16.35 8.83 C 22.2 8.83 26.84 12.25 29.6 14.5 C 29.73 14.61 30.63 15.32 30.64 16.21 C 30.65 16.83 30.35 17.31 29.93 17.7 Z"
        fill="#808080"/>
    <path
        id="path_1"
        d="M 16.33 10.6 C 13.17 10.62 10.61 13.19 10.61 16.36 C 10.61 19.53 13.17 22.09 16.33 22.12 C 19.5 22.1 22.05 19.53 22.05 16.36 C 22.04 13.19 19.5 10.62 16.33 10.6 Z M 16.31 19.86 C 14.78 19.81 12.96 18.3 12.96 16.43 C 12.96 14.56 14.77 12.82 16.31 12.77 C 17.84 12.82 19.66 14.45 19.66 16.32 C 19.66 18.19 17.85 19.82 16.31 19.86 Z"
        fill="#808080"/>
</svg>
