<svg
    xmlns="http://www.w3.org/2000/svg"
    viewBox="0 0 64 64"
    id="vector">
    <path
        id="path"
        d="M 32.02 39.87 C 36.37 39.84 39.88 36.34 39.88 31.98 C 39.88 27.6 36.35 24.09 31.96 24.12 C 31.84 24.12 31.73 24.12 31.61 24.12 C 31.87 24.76 31.99 25.49 32.02 26.22 C 32.02 29.4 29.48 31.97 26.27 31.97 C 25.51 31.97 24.81 31.82 24.14 31.59 C 24.14 31.71 24.14 31.85 24.14 31.97 C 24.1 36.4 27.64 39.9 32.02 39.87 Z"
        fill="#689f38"/>
    <path
        id="path_1"
        d="M 2.98 36.81 C 7.3 41.22 12.04 45.08 17.47 48.06 C 21.68 50.37 26.12 51.94 30.96 52.18 C 31.31 52.21 31.63 52.21 31.98 52.21 C 32.33 52.21 32.65 52.21 33 52.18 C 37.85 51.95 42.29 50.37 46.49 48.06 C 51.92 45.11 56.65 41.22 60.98 36.81 C 62.5 35.26 63.08 34.62 63.08 34.62 C 64.34 33.22 64.28 30.94 62.93 29.6 C 62.93 29.6 57.21 23.79 52.53 20.31 C 48.59 17.39 44.41 14.85 39.71 13.21 C 37.17 12.33 34.6 11.84 31.97 11.81 C 29.34 11.81 26.77 12.34 24.23 13.21 C 19.56 14.82 15.38 17.36 11.41 20.31 C 6.75 23.78 1.03 29.59 1.03 29.59 C -0.28 30.93 -0.34 33.18 0.88 34.61 C 0.88 34.61 1.47 35.26 2.98 36.81 Z M 31.99 18.23 C 39.61 18.23 45.78 24.39 45.78 32.02 C 45.78 39.64 39.62 45.81 31.99 45.81 C 24.36 45.81 18.2 39.65 18.2 32.02 C 18.2 24.39 24.36 18.23 31.99 18.23 Z"
        fill="#689f38"/>
</svg>
