<svg
    xmlns="http://www.w3.org/2000/svg"
    viewBox="0 0 36 36"
    id="vector">
    <path
        id="path"
        d="M 18 18 M 0 18 C 0 13.228 1.898 8.646 5.272 5.272 C 8.646 1.898 13.228 0 18 0 C 22.772 0 27.354 1.898 30.728 5.272 C 34.102 8.646 36 13.228 36 18 C 36 22.772 34.102 27.354 30.728 30.728 C 27.354 34.102 22.772 36 18 36 C 13.228 36 8.646 34.102 5.272 30.728 C 1.898 27.354 0 22.772 0 18"
        fill="#2597dd"/>
    <path
        id="path_1"
        d="M 9 12 L 9 24 L 27 24 L 27 12 L 9 12 Z M 18 19.4 L 10.6 12.9 L 25.4 12.9 L 18 19.4 Z M 15.1 18 L 9.9 22.5 L 9.9 13.4 L 15.1 18 Z M 15.7 18.6 L 18 20.6 L 20.3 18.6 L 25.4 23.1 L 10.6 23.1 L 15.7 18.6 Z M 20.9 18 L 26.1 13.5 L 26.1 22.6 L 20.9 18 Z"
        fill="#ffffff"/>
</svg>
