<svg
    xmlns="http://www.w3.org/2000/svg"
    viewBox="0 0 699 699"
    id="vector">
    <path
        id="path"
        d="M 502.7 415.3 L 196.7 415.3 C 184.6 415.3 174.8 425.1 174.8 437.2 C 174.8 449.3 184.6 459.1 196.7 459.1 L 502.7 459.1 C 514.8 459.1 524.6 449.3 524.6 437.2 C 524.6 425.1 514.8 415.3 502.7 415.3 Z M 502.7 524.6 L 196.7 524.6 C 184.6 524.6 174.8 534.4 174.8 546.5 C 174.8 558.6 184.6 568.4 196.7 568.4 L 502.7 568.4 C 514.8 568.4 524.6 558.6 524.6 546.5 C 524.6 534.4 514.8 524.6 502.7 524.6 Z M 568.3 87.4 L 502.7 87.4 L 502.7 43.7 L 443.8 43.7 C 424.9 17.7 390.1 0 349.7 0 C 309.4 0 274.5 17.7 255.6 43.7 L 196.7 43.7 L 196.7 87.4 L 131.1 87.4 C 82.8 87.4 43.7 126.5 43.7 174.8 L 43.7 612 C 43.7 660.3 82.8 699.4 131.1 699.4 L 568.2 699.4 C 616.5 699.4 655.6 660.3 655.6 612 L 655.6 174.9 C 655.7 126.6 616.6 87.4 568.3 87.4 Z M 240.4 87.4 L 289 87.4 C 289 63.3 316.2 43.7 349.7 43.7 C 383.2 43.7 410.4 63.3 410.4 87.4 L 459 87.4 L 459 174.8 L 240.4 174.8 L 240.4 87.4 Z M 612 612 C 612 636.1 592.4 655.7 568.3 655.7 L 131.1 655.7 C 106.9 655.7 87.4 636.1 87.4 612 L 87.4 174.9 C 87.4 150.8 107 131.2 131.1 131.2 L 196.7 131.2 L 196.7 218.6 L 502.7 218.6 L 502.7 131.2 L 568.3 131.2 C 592.5 131.2 612 150.8 612 174.9 L 612 612 Z M 502.7 306 L 196.7 306 C 184.6 306 174.8 315.8 174.8 327.9 C 174.8 340 184.6 349.8 196.7 349.8 L 502.7 349.8 C 514.8 349.8 524.6 340 524.6 327.9 C 524.6 315.8 514.8 306 502.7 306 Z"
        fill="#808080"/>
</svg>
