<?xml version="1.0" encoding="UTF-8"?>
<svg xmlns="http://www.w3.org/2000/svg" xmlns:xlink="http://www.w3.org/1999/xlink" width="36px" height="36px" viewBox="0 0 36 36" version="1.1">
<g id="surface1">
<path style=" stroke:none;fill-rule:nonzero;fill:rgb(0%,25.882353%,60%);fill-opacity:1;" d="M 2.371094 18 C 2.332031 14.671875 3.351562 11.417969 5.285156 8.714844 C 7.222656 6.007812 9.972656 3.988281 13.132812 2.953125 C 16.292969 1.914062 19.703125 1.914062 22.867188 2.953125 C 26.027344 3.988281 28.777344 6.007812 30.710938 8.714844 C 32.644531 11.417969 33.667969 14.671875 33.625 18 C 33.667969 21.328125 32.644531 24.582031 30.710938 27.285156 C 28.777344 29.992188 26.027344 32.011719 22.867188 33.046875 C 19.703125 34.085938 16.292969 34.085938 13.132812 33.046875 C 9.972656 32.011719 7.222656 29.992188 5.285156 27.285156 C 3.351562 24.582031 2.332031 21.328125 2.371094 18 "/>
<path style=" stroke:none;fill-rule:nonzero;fill:rgb(93.333333%,93.333333%,93.333333%);fill-opacity:1;" d="M 18.160156 15.003906 L 18.132812 15.003906 L 16.46875 15.84375 L 16.171875 14.542969 L 18.386719 13.449219 L 19.824219 13.449219 L 19.824219 22.550781 L 18.160156 22.550781 Z M 18.160156 15.003906 "/>
<path style=" stroke:none;fill-rule:nonzero;fill:rgb(100%,100%,100%);fill-opacity:0.701961;" d="M 18 0 C 8.058594 0 0 8.058594 0 18 C 0 27.941406 8.058594 36 18 36 C 27.941406 36 36 27.941406 36 18 C 36 8.058594 27.941406 0 18 0 Z M 18 33.628906 C 9.371094 33.628906 2.375 26.628906 2.375 18 C 2.375 9.371094 9.371094 2.375 18.003906 2.375 C 26.636719 2.375 33.628906 9.371094 33.628906 18 C 33.628906 26.628906 26.628906 33.628906 18 33.628906 Z M 18 33.628906 "/>
</g>
</svg>
