<svg
    xmlns="http://www.w3.org/2000/svg"
    viewBox="0 0 612 612"
    id="vector">
    <path
        id="path"
        d="M 393 414.1 L 326.4 494.9 L 326.4 204 C 326.4 192.7 317.3 183.6 306 183.6 C 294.7 183.6 285.6 192.8 285.6 204 L 285.6 495.6 L 218.3 414 C 210.3 406 197.3 406 189.3 414 C 181.3 422 181.3 435.1 189.3 443.1 L 290.1 565.3 C 294.4 569.6 300 571.4 305.6 571.1 C 311.2 571.4 316.8 569.6 321.1 565.3 L 421.9 443.1 C 429.9 435.1 429.9 422 421.9 414 C 414 406 401 406 393 414.1 Z M 591.6 40.8 L 20.4 40.8 C 9.1 40.8 0 49.9 0 61.2 L 0 224.4 C 0 235.7 9.1 244.8 20.4 244.8 C 31.7 244.8 40.8 235.7 40.8 224.4 L 40.8 81.6 L 571.2 81.6 L 571.2 224.4 C 571.2 235.7 580.3 244.8 591.6 244.8 C 602.9 244.8 612 235.7 612 224.4 L 612 61.2 C 612 49.9 602.9 40.8 591.6 40.8 Z"
        fill="#808080"/>
</svg>
