<svg
    xmlns="http://www.w3.org/2000/svg"
    viewBox="0 0 512 512"
    id="vector">
    <path
        id="path"
        d="M 256.8 479.3 L 40.2 282.2 C 33.3 274.8 27.1 266.6 21.7 257.9 C 16.4 249.3 12.1 240.1 8.7 230.5 C 2.9 214.3 0 197.7 0 180.9 C 0 99.2 66.5 32.7 148.3 32.7 C 189.5 32.7 228.3 49.7 256.1 79.1 C 283.9 49.7 322.7 32.7 363.8 32.7 C 445.5 32.7 512 99.2 512 180.9 C 512 197.4 509.2 213.8 503.6 229.7 C 500.1 239.8 495.4 249.6 489.7 258.8 C 484.9 266.5 479.4 273.8 473.3 280.5 L 472.1 281.7 L 256.8 479.3 Z"
        fill="#ffffff"/>
    <path
        id="path_1"
        d="M 66.5 256.6 L 256.7 429.7 L 446.7 255.3 C 451.1 250.4 455.1 245.1 458.5 239.5 C 462.8 232.6 466.3 225.3 469 217.6 C 473.2 205.6 475.3 193.2 475.3 180.9 C 475.3 119.4 425.2 69.3 363.7 69.3 C 326.6 69.3 292 87.7 271.2 118.5 L 256 141 L 240.8 118.5 C 220 87.7 185.4 69.3 148.2 69.3 C 86.7 69.3 36.6 119.4 36.6 180.9 C 36.6 193.4 38.8 206 43.1 218.2 C 45.7 225.4 49 232.3 52.9 238.8 C 56.9 245.2 61.5 251.2 66.5 256.6 Z"
        fill="#f44336"/>
</svg>
