<svg
    xmlns="http://www.w3.org/2000/svg"
    viewBox="0 0 144 144"
    id="vector">
    <path
        id="path"
        d="M 72 39.2 M 41.1 39.2 C 41.1 31.008 44.358 23.143 50.15 17.35 C 55.943 11.558 63.808 8.3 72 8.3 C 80.192 8.3 88.057 11.558 93.85 17.35 C 99.642 23.143 102.9 31.008 102.9 39.2 C 102.9 47.392 99.642 55.257 93.85 61.05 C 88.057 66.842 80.192 70.1 72 70.1 C 63.808 70.1 55.943 66.842 50.15 61.05 C 44.358 55.257 41.1 47.392 41.1 39.2"
        fill="#ffdd00"/>
    <path
        id="path_1"
        d="M 72 0 C 50.4 0 32.8 17.6 32.8 39.2 C 32.8 55 42.2 68.6 55.7 74.8 L 70.6 144 L 73.4 144 L 88.3 74.8 C 101.8 68.6 111.2 55 111.2 39.2 C 111.2 17.6 93.6 0 72 0 Z M 72 69.9 C 55 69.9 41.2 56.1 41.2 39.1 C 41.2 22.2 55 8.4 72 8.4 C 89 8.4 102.8 22.2 102.8 39.2 C 102.8 56.2 89 69.9 72 69.9 Z"
        fill="#231f20"/>
</svg>
