<svg
    xmlns="http://www.w3.org/2000/svg"
    viewBox="0 0 489 489"
    id="vector">
    <path
        id="path"
        d="M 112.2 97.1 C 184.5 31.7 292.7 30.7 366 90.4 L 307.9 92.6 C 300.4 92.9 294.6 99.1 294.9 106.6 C 295.2 113.9 301.2 119.6 308.4 119.6 C 308.6 119.6 308.7 119.6 308.9 119.6 L 398.1 116.3 C 405.4 116 411.1 110.1 411.1 102.8 L 411.1 101.8 C 411.1 101.6 411.1 101.5 411.1 101.3 L 411.1 101.2 L 411.1 101.2 L 407.8 13 C 407.5 5.5 401.2 -0.3 393.8 0 C 386.3 0.3 380.5 6.5 380.8 14 L 382.9 69.3 C 346.6 39.6 301.9 22.4 254.1 20 C 194.9 17 138 37.3 94.1 77.1 C 33.7 131.8 8.1 215 27.3 294.2 C 28.8 300.4 34.3 304.5 40.4 304.5 C 41.5 304.5 42.5 304.4 43.6 304.1 C 50.8 302.3 55.3 295 53.5 287.8 C 36.7 218.2 59.1 145.1 112.2 97.1 Z"
        fill="#212121"/>
    <path
        id="path_1"
        d="M 462.5 195.5 C 460.7 188.3 453.4 183.8 446.2 185.6 C 439 187.4 434.5 194.7 436.3 201.9 C 453.2 271.5 430.7 344.6 377.6 392.6 C 340.3 426.3 293.5 442.9 246.9 442.9 C 202.4 442.9 158 427.8 122.2 398 L 181 392.7 C 188.4 392 193.9 385.5 193.2 378 C 192.5 370.5 186 365.1 178.5 365.8 L 89.6 373.8 C 82.2 374.5 76.7 381 77.4 388.5 L 85.4 477.4 C 86 484.4 91.9 489.7 98.8 489.7 C 99.2 489.7 99.6 489.7 100 489.6 C 107.4 488.9 112.9 482.4 112.2 474.9 L 107.4 420.8 C 143.7 450.2 188.2 467.3 235.7 469.7 C 239.5 469.9 243.3 470 247 470 C 302.1 470 354.5 449.8 395.7 412.6 C 456.1 357.9 481.7 274.8 462.5 195.5 Z"
        fill="#212121"/>
</svg>
