<svg
    xmlns="http://www.w3.org/2000/svg"
    viewBox="0 0 32 32"
    id="vector">
    <path
        id="path"
        d="M 31 18.98 C 31 18.73 30.98 18.71 30.72 18.7 C 30.68 18.7 30.64 18.7 30.6 18.7 C 29.39 18.7 28.19 18.7 26.98 18.7 C 26.93 18.7 26.89 18.7 26.84 18.7 C 26.74 18.7 26.69 18.66 26.69 18.56 C 26.69 18.51 26.69 18.47 26.69 18.42 C 26.69 17.84 26.69 17.25 26.69 16.67 C 26.69 16.6 26.69 16.52 26.65 16.46 C 26.34 15.82 26.01 15.19 25.7 14.55 C 25.65 14.44 25.58 14.4 25.47 14.41 C 25.22 14.41 24.97 14.41 24.73 14.41 C 24.03 14.41 23.34 14.41 22.64 14.41 C 22.5 14.41 22.43 14.45 22.36 14.58 C 22.07 15.18 21.77 15.77 21.47 16.36 C 21.41 16.49 21.38 16.61 21.39 16.74 C 21.39 16.96 21.39 17.18 21.39 17.4 C 21.39 17.46 21.38 17.53 21.37 17.61 C 21.24 17.58 21.14 17.56 21.04 17.53 C 20.82 17.46 20.6 17.38 20.38 17.31 C 20.18 17.24 19.98 17.18 19.78 17.11 C 19.57 17.04 19.37 16.97 19.16 16.9 C 18.88 16.81 18.59 16.72 18.31 16.63 C 18.21 16.6 18.14 16.53 18.15 16.4 C 18.16 16.31 18.15 16.23 18.15 16.14 C 18.15 14.61 18.15 13.08 18.15 11.56 C 18.15 11.5 18.15 11.44 18.15 11.38 C 18.14 11.23 18.12 11.21 17.97 11.21 C 17.75 11.21 17.53 11.21 17.31 11.21 C 17.24 11.21 17.17 11.2 17.08 11.2 C 17.08 11.11 17.07 11.03 17.07 10.95 C 17.07 10.05 17.07 9.14 17.07 8.24 C 17.07 8.01 17.07 8.01 16.83 8.01 C 16.69 8.01 16.55 8.01 16.41 8.01 C 16.24 8.01 16.22 7.99 16.22 7.82 C 16.22 7.24 16.22 6.65 16.22 6.07 C 16.22 6.04 16.22 6 16.22 5.97 C 16.22 5.89 16.27 5.85 16.35 5.85 C 16.4 5.85 16.46 5.85 16.51 5.85 C 17.29 5.85 18.06 5.85 18.84 5.85 C 18.9 5.85 18.96 5.85 19.02 5.85 C 19.17 5.84 19.21 5.8 19.21 5.65 C 19.21 5.07 19.21 4.48 19.21 3.9 C 19.21 3.75 19.18 3.73 19.03 3.72 C 19 3.72 18.98 3.72 18.95 3.72 C 17.99 3.72 17.03 3.72 16.07 3.72 C 15.77 3.72 15.77 3.72 15.77 4.02 C 15.77 5.25 15.77 6.47 15.77 7.7 C 15.77 8.01 15.77 8.01 15.47 8.01 C 15.34 8.01 15.2 8.01 15.07 8.01 C 14.98 8.01 14.93 8.05 14.93 8.14 C 14.93 8.17 14.93 8.21 14.93 8.24 C 14.93 9.14 14.93 10.05 14.93 10.95 C 14.93 11.03 14.92 11.11 14.92 11.2 C 14.84 11.21 14.77 11.21 14.71 11.21 C 14.53 11.21 14.35 11.21 14.17 11.21 C 13.84 11.21 13.85 11.19 13.85 11.52 C 13.85 13.11 13.85 14.7 13.85 16.28 C 13.85 16.32 13.85 16.36 13.85 16.4 C 13.86 16.52 13.79 16.59 13.69 16.63 C 13.5 16.7 13.3 16.75 13.1 16.82 C 12.9 16.88 12.7 16.95 12.5 17.02 C 12.29 17.09 12.09 17.17 11.88 17.24 C 11.66 17.32 11.43 17.39 11.2 17.47 C 11.02 17.53 10.84 17.58 10.62 17.64 C 10.61 17.55 10.6 17.48 10.6 17.42 C 10.6 17.17 10.6 16.91 10.6 16.66 C 10.6 16.6 10.59 16.52 10.56 16.47 C 10.24 15.83 9.92 15.2 9.61 14.56 C 9.56 14.46 9.49 14.42 9.39 14.42 C 8.43 14.42 7.47 14.42 6.51 14.42 C 6.4 14.42 6.33 14.45 6.28 14.56 C 5.99 15.16 5.68 15.76 5.38 16.36 C 5.31 16.49 5.29 16.62 5.29 16.76 C 5.3 17.13 5.29 17.5 5.29 17.87 C 5.29 18.07 5.29 18.27 5.29 18.47 C 5.29 18.71 5.29 18.71 5.06 18.71 C 5.03 18.71 5.01 18.71 4.98 18.71 C 3.75 18.71 2.51 18.71 1.28 18.71 C 1 18.71 0.99 18.72 0.99 19.01 C 0.99 19.02 0.99 19.02 0.99 19.03 C 0.99 21.46 0.99 23.88 0.99 26.31 C 0.99 26.91 0.99 27.52 0.99 28.12 C 0.99 28.31 1 28.33 1.19 28.33 C 1.22 28.33 1.24 28.33 1.27 28.33 C 11.08 28.33 20.89 28.33 30.7 28.33 C 30.75 28.33 30.79 28.33 30.84 28.33 C 30.93 28.33 30.98 28.29 30.98 28.2 C 30.98 28.16 30.98 28.12 30.98 28.08 C 31 25.03 31 22 31 18.98 Z M 17.42 4.53 L 17.58 4.22 L 17.74 4.53 L 18.09 4.58 L 17.83 4.83 L 17.89 5.18 L 17.58 5.02 L 17.27 5.18 L 17.33 4.83 L 17.08 4.58 L 17.42 4.53 Z M 4.22 27.02 C 4.22 27.09 4.21 27.16 4.21 27.28 C 3.49 27.28 2.8 27.28 2.09 27.28 C 2.08 27.19 2.08 27.13 2.08 27.08 C 2.08 26.4 2.09 25.71 2.08 25.03 C 2.07 24.69 2.4 24.26 2.7 24.14 C 2.85 24.08 3.01 24.04 3.19 24.05 C 3.62 24.06 4.01 24.34 4.17 24.75 C 4.23 24.89 4.24 25.03 4.24 25.18 C 4.22 25.79 4.22 26.4 4.22 27.02 Z M 4.22 22.74 C 4.22 22.79 4.22 22.85 4.22 22.9 C 4.22 22.96 4.18 23 4.12 23 C 4.07 23 4.01 23 3.96 23 C 3.42 23 2.89 23 2.35 23 C 2.31 23 2.27 23 2.23 23 C 2.1 22.99 2.08 22.98 2.08 22.84 C 2.08 22.65 2.08 22.45 2.08 22.26 C 2.08 22.08 2.08 21.9 2.08 21.72 C 2.08 21.72 2.08 21.72 2.08 21.72 C 2.08 21.38 2.08 21.05 2.08 20.72 C 2.08 20.41 2.23 20.17 2.46 19.98 C 2.74 19.74 3.09 19.71 3.43 19.79 C 3.75 19.86 4 20.09 4.14 20.42 C 4.21 20.59 4.22 20.77 4.22 20.95 C 4.22 21.55 4.22 22.14 4.22 22.74 Z M 6.34 21.2 C 6.34 20.97 6.44 20.76 6.55 20.56 C 6.74 20.2 7.05 19.97 7.44 19.83 C 7.72 19.73 8.02 19.73 8.29 19.78 C 8.78 19.87 9.17 20.15 9.4 20.62 C 9.52 20.87 9.59 21.13 9.58 21.41 C 9.57 21.87 9.58 22.33 9.58 22.8 C 9.58 22.99 9.57 23.01 9.38 23.01 C 8.9 23.01 8.43 23.01 7.95 23.01 C 7.49 23.01 7.03 23.01 6.56 23.01 C 6.35 23.01 6.34 23 6.34 22.79 C 6.34 22.26 6.34 21.73 6.34 21.2 Z M 9.58 27.04 C 9.58 27.11 9.57 27.18 9.57 27.25 C 9.37 27.3 6.53 27.3 6.36 27.25 C 6.36 27.18 6.35 27.11 6.35 27.04 C 6.35 26.56 6.35 26.08 6.35 25.59 C 6.35 25.31 6.44 25.06 6.58 24.82 C 6.76 24.52 7.02 24.29 7.34 24.17 C 7.68 24.04 8.02 24 8.39 24.11 C 8.78 24.22 9.07 24.43 9.3 24.75 C 9.4 24.88 9.45 25.04 9.51 25.19 C 9.6 25.44 9.58 25.69 9.58 25.94 C 9.58 26.3 9.58 26.67 9.58 27.04 Z M 13.85 27.05 C 13.85 27.11 13.84 27.18 13.84 27.26 C 13.77 27.27 13.71 27.28 13.65 27.28 C 13.07 27.28 12.5 27.28 11.92 27.28 C 11.71 27.28 11.7 27.27 11.7 27.07 C 11.7 26.39 11.7 25.72 11.7 25.04 C 11.7 24.88 11.75 24.73 11.83 24.61 C 12.13 24.15 12.47 23.98 12.98 24.06 C 13.34 24.11 13.6 24.34 13.77 24.68 C 13.83 24.81 13.85 24.93 13.85 25.07 C 13.85 25.72 13.85 26.39 13.85 27.05 Z M 13.85 22.75 C 13.85 22.82 13.85 22.89 13.85 23 C 13.75 23 13.68 23 13.62 23 C 13.06 23 12.51 23 11.95 23 C 11.9 23 11.86 23 11.81 23 C 11.75 23 11.71 22.96 11.71 22.9 C 11.71 22.88 11.71 22.86 11.71 22.84 C 11.71 22.12 11.69 21.41 11.72 20.69 C 11.74 20.32 11.97 20.02 12.31 19.87 C 12.72 19.68 13.13 19.72 13.49 20.01 C 13.72 20.19 13.86 20.44 13.86 20.75 C 13.85 21.41 13.85 22.08 13.85 22.75 Z M 14.93 20.86 C 14.95 20.33 15.16 20.01 15.68 19.81 C 15.8 19.76 15.96 19.79 16.1 19.79 C 16.48 19.79 16.74 19.99 16.93 20.29 C 17.05 20.48 17.09 20.7 17.09 20.92 C 17.09 21.22 17.09 21.52 17.09 21.82 L 17.09 21.82 C 17.09 22.14 17.09 22.46 17.09 22.78 C 17.09 22.97 17.08 22.98 16.9 22.98 C 16.3 22.98 15.71 22.98 15.11 22.98 C 14.94 22.98 14.92 22.97 14.92 22.8 C 14.92 22.16 14.9 21.51 14.93 20.86 Z M 17.08 26.11 C 17.08 26.43 17.08 26.75 17.08 27.07 C 17.08 27.24 17.07 27.26 16.9 27.26 C 16.3 27.26 15.7 27.26 15.09 27.26 C 14.93 27.26 14.92 27.24 14.92 27.08 C 14.92 26.43 14.9 25.78 14.93 25.13 C 14.95 24.66 15.15 24.31 15.63 24.12 C 16.17 23.91 16.8 24.21 17 24.71 C 17.06 24.86 17.08 25.02 17.08 25.18 C 17.09 25.5 17.08 25.81 17.08 26.11 L 17.08 26.11 Z M 20.3 27.01 C 20.3 27.08 20.3 27.15 20.3 27.26 C 20.2 27.27 20.13 27.27 20.07 27.27 C 19.51 27.27 18.94 27.27 18.38 27.27 C 18.36 27.27 18.34 27.27 18.32 27.27 C 18.17 27.26 18.16 27.25 18.15 27.1 C 18.15 26.78 18.14 26.46 18.14 26.14 C 18.14 25.77 18.15 25.4 18.14 25.04 C 18.13 24.73 18.28 24.49 18.5 24.3 C 18.76 24.07 19.07 23.99 19.4 24.05 C 19.78 24.12 20.05 24.35 20.21 24.72 C 20.28 24.88 20.29 25.04 20.29 25.21 C 20.3 25.81 20.3 26.41 20.3 27.01 Z M 20.3 22.75 C 20.3 22.82 20.29 22.89 20.29 22.99 C 19.57 22.99 18.88 22.99 18.16 22.99 C 18.16 22.9 18.15 22.83 18.15 22.76 C 18.15 22.08 18.16 21.41 18.15 20.73 C 18.14 20.42 18.44 19.99 18.74 19.85 C 18.99 19.74 19.24 19.74 19.48 19.78 C 19.81 19.84 20.06 20.07 20.2 20.39 C 20.28 20.56 20.29 20.73 20.29 20.91 C 20.29 21.53 20.3 22.14 20.3 22.75 Z M 25.66 27.06 C 25.66 27.27 25.65 27.28 25.44 27.28 C 24.97 27.28 24.5 27.28 24.03 27.28 C 23.57 27.28 23.1 27.28 22.64 27.28 C 22.42 27.28 22.42 27.27 22.42 27.05 C 22.42 26.54 22.41 26.03 22.42 25.52 C 22.43 25.26 22.52 25.01 22.66 24.79 C 22.84 24.51 23.09 24.29 23.4 24.16 C 23.74 24.03 24.09 23.99 24.45 24.09 C 24.83 24.2 25.12 24.4 25.35 24.71 C 25.54 24.96 25.64 25.25 25.64 25.56 C 25.67 26.07 25.66 26.56 25.66 27.06 Z M 25.66 22.79 C 25.66 22.99 25.65 23 25.44 23 C 24.97 23 24.5 23 24.04 23 C 23.57 23 23.1 23 22.64 23 C 22.45 23 22.43 22.99 22.43 22.8 C 22.43 22.26 22.42 21.72 22.43 21.17 C 22.43 20.94 22.54 20.74 22.65 20.54 C 22.87 20.12 23.24 19.86 23.68 19.79 C 24.41 19.66 25.08 19.86 25.48 20.62 C 25.61 20.86 25.67 21.12 25.66 21.41 C 25.65 21.87 25.66 22.33 25.66 22.79 Z M 29.91 27.26 C 29.2 27.26 28.51 27.26 27.8 27.26 C 27.79 27.19 27.78 27.12 27.78 27.06 C 27.78 26.38 27.78 25.71 27.78 25.03 C 27.78 24.81 27.86 24.6 28.02 24.43 C 28.17 24.27 28.32 24.13 28.54 24.07 C 28.75 24.01 28.96 24.01 29.17 24.07 C 29.52 24.18 29.75 24.41 29.88 24.74 C 29.9 24.8 29.92 24.87 29.92 24.93 C 29.92 25.64 29.92 26.35 29.92 27.06 C 29.93 27.14 29.92 27.19 29.91 27.26 Z M 29.93 21.75 C 29.93 22.1 29.93 22.46 29.93 22.82 C 29.93 23 29.92 23.01 29.74 23.01 C 29.15 23.01 28.56 23.01 27.97 23.01 C 27.8 23.01 27.79 22.99 27.79 22.82 C 27.79 22.12 27.77 21.41 27.8 20.71 C 27.81 20.33 28.04 20.03 28.39 19.87 C 28.8 19.68 29.21 19.72 29.57 20 C 29.8 20.18 29.94 20.43 29.94 20.74 C 29.93 21.08 29.93 21.41 29.93 21.75 Z"
        fill="#b0bec5"/>
</svg>
