<svg
    xmlns="http://www.w3.org/2000/svg"
    viewBox="0 0 36 36"
    id="vector">
    <path
        id="path"
        d="M 11.63 17.62 L 11.73 17.62 L 11.63 17.62 Z"
        fill="#ffffff"/>
    <path
        id="path_1"
        d="M 11.46 14.68 C 11.46 14.84 11.4 15.11 11.3 15.33 C 11.4 15.11 11.46 14.85 11.46 14.68 Z"
        fill="#ffffff"/>
    <path
        id="path_2"
        d="M 11.3 16.81 C 11.4 16.81 11.4 16.97 11.46 16.97 C 11.4 16.97 11.4 16.81 11.3 16.81 Z"
        fill="#ffffff"/>
    <path
        id="path_3"
        d="M 24.38 18.44 C 24.48 18.6 24.54 18.83 24.61 19.09 C 24.54 18.83 24.47 18.6 24.38 18.44 Z"
        fill="#ffffff"/>
    <path
        id="path_4"
        d="M 24.7 20.4 C 24.7 20.07 24.7 19.58 24.6 19.25 C 24.7 19.48 24.7 19.74 24.7 20.07 C 24.7 20.14 24.7 20.34 24.7 20.4 Z"
        fill="#ffffff"/>
    <path
        id="path_5"
        d="M 24.7 20.73 C 24.7 20.73 24.7 20.89 24.6 20.89 C 24.7 20.89 24.7 20.73 24.7 20.73 Z"
        fill="#ffffff"/>
    <path
        id="path_6"
        d="M 11.3 16.32 C 11.3 15.99 11.3 15.67 11.3 15.34 C 11.3 15.5 11.3 15.77 11.3 15.99 C 11.3 16.15 11.3 16.22 11.3 16.32 Z"
        fill="#ffffff"/>
    <path
        id="path_7"
        d="M 26.34 3.24 C 23.89 1.83 21.01 1.05 18 1.05 C 14.99 1.05 12.11 1.83 9.66 3.24 C 4.53 6.15 1 11.64 1 17.95 C 1 24.32 4.53 29.82 9.66 32.66 C 12.11 34.13 14.99 34.95 18 34.95 C 21.01 34.95 23.88 34.13 26.34 32.66 C 31.47 29.82 35 24.32 35 17.95 C 35 11.64 31.47 6.15 26.34 3.24 Z M 33.36 12.23 L 32.31 12.88 L 30.41 10.07 L 31.39 9.35 L 33.36 12.23 Z M 29.28 6.05 L 31.08 8.89 L 30.1 9.54 L 28.2 6.74 L 29.28 6.05 Z M 27.65 7.06 L 31.74 13.21 L 30.76 13.86 L 26.67 7.78 L 27.65 7.06 Z M 29.28 21.06 L 30.26 21.71 L 28.4 24.49 L 27.32 23.84 L 29.28 21.06 Z M 27.32 12.07 L 28.4 11.42 L 30.26 14.2 L 29.28 14.92 L 27.32 12.07 Z M 30.75 22.04 L 31.73 22.69 L 29.93 25.57 L 28.85 24.82 L 30.75 22.04 Z M 28.07 10.92 L 26.99 11.57 L 25.19 8.79 L 26.17 8.1 L 28.07 10.92 Z M 24.47 21.45 L 24.53 21.39 C 24.37 21.65 24.27 21.88 24.14 22.21 C 21.92 25.48 17.28 26.46 13.91 24.17 C 11.78 22.76 10.64 20.41 10.64 18.06 C 10.64 16.66 10.96 15.18 11.85 13.88 C 11.62 14.21 11.62 14.47 11.46 14.7 C 11.46 14.7 11.46 14.7 11.52 14.6 L 11.52 14.54 C 11.62 14.38 11.72 14.21 11.78 14.15 C 11.78 14.05 11.78 14.05 11.84 13.95 C 12.1 13.56 12.49 13.07 12.82 12.74 C 15.3 10.32 19.13 9.83 22.17 11.79 C 25.34 13.88 26.32 18.13 24.52 21.4 C 24.52 21.34 24.52 21.24 24.58 21.24 C 24.54 21.32 24.54 21.38 24.47 21.45 Z M 9.83 8.11 L 10.81 8.8 L 6.72 14.91 L 5.74 14.19 L 9.83 8.11 Z M 9.34 7.78 L 5.25 13.86 L 4.2 13.21 L 8.25 7.06 L 9.34 7.78 Z M 7.05 24.81 L 6.07 25.56 L 4.2 22.69 L 5.25 22.04 L 7.05 24.81 Z M 6.72 6.05 L 7.8 6.74 L 3.68 12.89 L 2.63 12.24 L 6.72 6.05 Z M 6.72 29.88 L 2.63 23.73 L 3.68 23.08 L 7.8 29.23 L 6.72 29.88 Z M 8.26 28.9 L 6.4 26.12 L 7.48 25.37 L 9.34 28.18 L 8.26 28.9 Z M 5.74 21.71 L 6.72 21.06 L 10.81 27.11 L 9.83 27.86 L 5.74 21.71 Z M 26.17 27.85 L 25.19 27.1 L 26.99 24.32 L 28.07 24.97 L 26.17 27.85 Z M 26.66 28.18 L 28.52 25.37 L 29.6 26.12 L 27.64 28.9 L 26.66 28.18 Z M 29.28 29.88 L 28.2 29.23 L 30.1 26.45 L 31.08 27.1 L 29.28 29.88 Z M 31.4 26.61 L 30.42 25.89 L 32.32 23.08 L 33.37 23.73 L 31.4 26.61 Z"
        fill="#ffffff"/>
    <path
        id="path_8"
        d="M 23.56 17.3 C 23.56 17.4 23.56 17.4 23.62 17.46 C 23.56 17.4 23.56 17.4 23.56 17.3 Z"
        fill="#ffffff"/>
    <path
        id="path_9"
        d="M 23.95 17.79 C 24.05 17.95 24.15 17.95 24.21 18.12 C 24.05 17.95 24.05 17.95 23.95 17.79 Z"
        fill="#ffffff"/>
    <path
        id="path_10"
        d="M 28.07 24.98 L 26.99 24.32 L 25.19 27.1 L 26.17 27.85 Z"
        fill="#000000"/>
    <path
        id="path_11"
        d="M 29.93 25.57 L 31.73 22.69 L 30.75 22.04 L 28.85 24.82 Z"
        fill="#000000"/>
    <path
        id="path_12"
        d="M 31.73 13.21 L 27.64 7.06 L 26.66 7.78 L 30.75 13.86 Z"
        fill="#000000"/>
    <path
        id="path_13"
        d="M 31.08 8.89 L 29.28 6.05 L 28.2 6.74 L 30.1 9.55 Z"
        fill="#000000"/>
    <path
        id="path_14"
        d="M 7.8 6.74 L 6.72 6.05 L 2.63 12.23 L 3.68 12.88 Z"
        fill="#000000"/>
    <path
        id="path_15"
        d="M 28.2 29.23 L 29.28 29.88 L 31.08 27.1 L 30.1 26.45 Z"
        fill="#000000"/>
    <path
        id="path_16"
        d="M 30.42 25.9 L 31.4 26.62 L 33.36 23.74 L 32.31 23.09 Z"
        fill="#000000"/>
    <path
        id="path_17"
        d="M 32.32 12.88 L 33.37 12.23 L 31.41 9.35 L 30.43 10.07 Z"
        fill="#000000"/>
    <path
        id="path_18"
        d="M 28.07 10.92 L 26.17 8.11 L 25.19 8.8 L 26.99 11.58 Z"
        fill="#000000"/>
    <path
        id="path_19"
        d="M 5.25 13.86 L 9.34 7.78 L 8.26 7.06 L 4.21 13.21 Z"
        fill="#000000"/>
    <path
        id="path_20"
        d="M 6.07 25.57 L 7.05 24.82 L 5.25 22.04 L 4.2 22.69 Z"
        fill="#000000"/>
    <path
        id="path_21"
        d="M 6.72 14.91 L 10.81 8.8 L 9.83 8.11 L 5.74 14.19 Z"
        fill="#000000"/>
    <path
        id="path_22"
        d="M 28.4 24.49 L 30.26 21.71 L 29.28 21.06 L 27.32 23.84 Z"
        fill="#000000"/>
    <path
        id="path_23"
        d="M 5.74 21.71 L 9.83 27.86 L 10.81 27.11 L 6.72 21.06 Z"
        fill="#000000"/>
    <path
        id="path_24"
        d="M 28.53 25.37 L 26.67 28.18 L 27.65 28.9 L 29.61 26.12 Z"
        fill="#000000"/>
    <path
        id="path_25"
        d="M 6.39 26.12 L 8.25 28.9 L 9.33 28.18 L 7.47 25.37 Z"
        fill="#000000"/>
    <path
        id="path_26"
        d="M 2.64 23.74 L 6.73 29.89 L 7.81 29.24 L 3.69 23.09 Z"
        fill="#000000"/>
    <path
        id="path_27"
        d="M 30.26 14.19 L 28.4 11.41 L 27.32 12.06 L 29.28 14.9 Z"
        fill="#000000"/>
    <path
        id="path_28"
        d="M 24.7 20.73 C 24.7 20.57 24.7 20.57 24.7 20.41 C 24.7 20.34 24.7 20.15 24.7 20.08 C 24.7 19.75 24.7 19.49 24.6 19.26 L 24.6 19.1 C 24.54 18.84 24.47 18.61 24.37 18.45 C 24.27 18.29 24.21 18.19 24.21 18.12 C 24.15 17.96 24.05 17.96 23.95 17.79 C 23.89 17.63 23.72 17.53 23.62 17.46 C 23.56 17.4 23.56 17.4 23.56 17.3 C 23.4 17.2 23.23 17.14 23.07 16.97 C 21.6 15.99 19.7 16.22 18.49 17.46 C 18.33 17.62 18.16 17.79 18.07 17.95 C 17.94 18.11 17.74 18.38 17.61 18.6 C 16.37 19.75 14.41 20.07 12.93 19.03 C 12.37 18.7 11.95 18.28 11.72 17.72 L 11.62 17.62 C 11.52 17.46 11.46 17.2 11.46 16.97 C 11.4 16.97 11.4 16.81 11.3 16.81 C 11.3 16.65 11.3 16.49 11.3 16.32 C 11.3 16.22 11.3 16.16 11.3 15.99 C 11.3 15.76 11.3 15.5 11.3 15.34 L 11.3 15.34 C 11.4 15.11 11.46 14.85 11.46 14.69 C 11.46 14.69 11.46 14.69 11.52 14.59 C 11.46 14.69 11.46 14.69 11.46 14.69 C 11.62 14.46 11.62 14.2 11.85 13.87 C 10.97 15.18 10.64 16.65 10.64 18.05 C 10.64 20.41 11.78 22.76 13.91 24.16 C 17.28 26.45 21.92 25.47 24.14 22.2 C 24.27 21.87 24.37 21.64 24.53 21.38 C 24.53 21.22 24.53 21.05 24.59 20.89 C 24.7 20.89 24.7 20.73 24.7 20.73 Z"
        fill="#003478"/>
    <path
        id="path_29"
        d="M 11.53 14.52 C 11.63 14.36 11.73 14.26 11.79 14.13 C 11.72 14.19 11.63 14.35 11.53 14.52 Z"
        fill="#003478"/>
    <path
        id="path_30"
        d="M 22.18 11.77 C 19.14 9.81 15.32 10.3 12.83 12.72 C 12.5 13.05 12.11 13.54 11.85 13.93 C 11.79 14.03 11.79 14.03 11.79 14.13 C 11.73 14.26 11.63 14.36 11.53 14.52 L 11.53 14.58 C 11.47 14.68 11.47 14.68 11.47 14.68 C 11.47 14.84 11.41 15.11 11.31 15.33 L 11.31 15.33 C 11.31 15.66 11.31 15.98 11.31 16.31 C 11.31 16.47 11.31 16.64 11.31 16.8 C 11.41 16.8 11.41 16.96 11.47 16.96 C 11.47 17.19 11.53 17.45 11.63 17.61 L 11.73 17.61 C 11.96 18.26 12.38 18.69 12.94 19.02 C 14.41 20.07 16.37 19.74 17.62 18.59 C 17.75 18.36 17.95 18.1 18.08 17.94 C 18.18 17.78 18.34 17.61 18.5 17.45 C 19.71 16.21 21.61 15.98 23.08 16.96 C 23.24 17.12 23.41 17.19 23.57 17.29 C 23.57 17.39 23.57 17.39 23.63 17.45 C 23.73 17.52 23.89 17.61 23.96 17.78 C 24.06 17.94 24.06 17.94 24.22 18.11 C 24.22 18.17 24.28 18.27 24.38 18.44 C 24.48 18.61 24.54 18.83 24.61 19.09 L 24.61 19.25 C 24.71 19.58 24.71 20.07 24.71 20.4 C 24.71 20.56 24.71 20.56 24.71 20.72 C 24.71 20.72 24.71 20.88 24.61 20.88 C 24.55 21.04 24.55 21.21 24.55 21.37 L 24.49 21.43 C 24.55 21.37 24.55 21.3 24.62 21.2 C 24.56 21.2 24.56 21.3 24.56 21.36 C 26.34 18.11 25.36 13.86 22.18 11.77 Z"
        fill="#c60c30"/>
    <path
        id="path_31"
        d="M 18 0 C 8.06 0 0 8.06 0 18 C 0 27.94 8.06 36 18 36 C 27.94 36 36 27.94 36 18 C 36 8.06 27.94 0 18 0 Z M 18 35 C 8.61 35 1 27.39 1 18 C 1 8.61 8.61 1 18 1 C 27.39 1 35 8.61 35 18 C 35 27.39 27.39 35 18 35 Z"
        fill="#e0e0e0"/>
</svg>
