<?xml version="1.0" encoding="utf-8"?>
<!-- Generator: Adobe Illustrator 26.0.3, SVG Export Plug-In . SVG Version: 6.00 Build 0)  -->
<svg version="1.1" id="Layer_1" xmlns="http://www.w3.org/2000/svg" xmlns:xlink="http://www.w3.org/1999/xlink" x="0px" y="0px"
	 viewBox="0 0 120 120" style="enable-background:new 0 0 120 120;" xml:space="preserve">
<style type="text/css">
	.st0{fill:url(#SVGID_1_);}
	.st1{fill:url(#SVGID_00000080902562934925569320000007593625657964676765_);}
	.st2{fill:url(#SVGID_00000039812928040219105020000008543226951096525743_);}
	.st3{fill:url(#SVGID_00000021825834741289858950000012328639451745505166_);}
	.st4{fill:#2D69AC;}
	.st5{fill:#1B3359;}
	.st6{fill:url(#SVGID_00000134966726235851824020000016262772831071705756_);}
	.st7{fill:url(#SVGID_00000146466430948691994140000012045132741485339324_);}
</style>
<g>
	<linearGradient id="SVGID_1_" gradientUnits="userSpaceOnUse" x1="52.3579" y1="54.5524" x2="52.3579" y2="90.9395">
		<stop  offset="0" style="stop-color:#FFFFFF"/>
		<stop  offset="0.2548" style="stop-color:#E8F8FF"/>
		<stop  offset="0.7854" style="stop-color:#AEE5FF"/>
		<stop  offset="1" style="stop-color:#95DDFF"/>
	</linearGradient>
	<path class="st0" d="M19.3,93c-0.2-1.5-0.1-3-0.1-4.6c0-0.7-0.2-1-0.9-0.9c-1.5,0.1-3,0-4.5,0C12,87.6,10.7,87,10,85.2
		c0-6.4,0-12.8,0-19.1c0.4-1.1,0.5-2.3,1-3.4c1.5-3.4,4-5.8,7.5-7c0.2-0.1,0.5-0.2,0.7-0.3c0.9-0.7,2-0.7,3-0.7
		c3.4-0.1,6.7-0.1,10.1,0c4.2-0.1,8.4,0,12.7,0c4.5,0,9,0,13.4,0c0.5,0,1.1-0.1,1.6,0.3c0.4,0.5,0.3,1.2,0.3,1.8
		c0,9.4,0,18.8,0,28.2c0,0.3,0,0.5,0,0.8c0,1.3,0,1.4,1.4,1.4c9.4,0,18.7,0,28.1,0c1.3,0,2.6,0,3.9,0c0.4,0,0.9-0.1,1,0.5
		c-11.4,0-22.8,0-34.3,0c-11.6,0-23.2,0-34.8,0c-0.1,0-0.3,0-0.4,0c-0.4,0.3-0.8,0.3-1.3,0.3c-1.1,0-2.1,0-3.2,0
		c-0.8,0-1.1,0.3-1.1,1.1c0,1,0,1.9,0,2.9C19.7,92.3,19.7,92.7,19.3,93z"/>
	
		<linearGradient id="SVGID_00000100344555526583381230000012828492800761230491_" gradientUnits="userSpaceOnUse" x1="84.9901" y1="55.3185" x2="84.9901" y2="89.4419">
		<stop  offset="0" style="stop-color:#3979F9"/>
		<stop  offset="0.7085" style="stop-color:#1A20F2"/>
	</linearGradient>
	<path style="fill:url(#SVGID_00000100344555526583381230000012828492800761230491_);" d="M94.7,87.6c-0.3-0.4-0.7-0.2-1.1-0.2
		c-10.9,0-21.7,0-32.6,0c-0.7,0-1.1,0-1.1-0.9c0-10.5,0-21,0-31.5c0,0,0.1-0.1,0.1-0.1c0.4-0.2,0.7-0.2,1.1-0.2c8.7,0,17.3,0,26,0
		c0.1,0,0.3,0,0.4,0c3.9,0.1,7.8-0.2,11.7,0.2c0.5,0.1,1,0.1,1.4,0.5c3.2,1.1,5.8,3,7.5,5.9c1.1,1.9,1.7,3.9,1.7,6.1
		c0,5.6,0,11.2,0,16.9c0,2-1.2,3.2-3.2,3.3c-1.7,0-3.4,0-5.2,0c-0.7,0-0.9,0.2-0.9,0.9c0,1.5,0.1,3-0.1,4.6
		c-0.4-0.3-0.3-0.7-0.4-1.2c0-1,0-2,0-3c0-0.7-0.3-0.9-0.9-0.9c-1.1,0-2.2,0-3.3,0C95.6,87.9,95.2,87.9,94.7,87.6L94.7,87.6z"/>
	
		<linearGradient id="SVGID_00000033342589369586511410000003807002328147875238_" gradientUnits="userSpaceOnUse" x1="80.234" y1="21.6125" x2="80.234" y2="54.2504">
		<stop  offset="0" style="stop-color:#FFFFFF"/>
		<stop  offset="0.2548" style="stop-color:#E8F8FF"/>
		<stop  offset="0.7854" style="stop-color:#AEE5FF"/>
		<stop  offset="1" style="stop-color:#95DDFF"/>
	</linearGradient>
	<path style="fill:url(#SVGID_00000033342589369586511410000003807002328147875238_);" d="M100.8,55.3c-4.3-0.8-8.6-0.2-13-0.4
		c-0.5-0.3-0.4-0.7-0.4-1.1c0-1.7,0-3.3,0-5c0-4.4-3.5-8.4-7.9-8.8c-4.8-0.4-9.6-0.4-14.4,0c-1.4,0.1-2.8,0.7-3.9,1.6
		c-0.3,0.2-0.7,0.6-1.1,0.5c-0.1-0.1-0.2-0.2-0.2-0.3c-0.2-0.4-0.1-0.9-0.1-1.4c0-4.9,0-9.7,0-14.6c0-0.5-0.1-1.1,0.3-1.6
		c0.3,0,0.6-0.1,0.9-0.1c10.1,0,20.2,0,30.3,0c3.1,0,5.7,1,7.7,3.5c1.4,1.7,1.9,3.7,1.9,5.8C100.8,40.8,100.8,48.1,100.8,55.3z"/>
	
		<linearGradient id="SVGID_00000178894733307814133280000013722834261806302638_" gradientUnits="userSpaceOnUse" x1="39.627" y1="20.4635" x2="39.627" y2="65.2787">
		<stop  offset="0" style="stop-color:#3979F9"/>
		<stop  offset="0.7085" style="stop-color:#1A20F2"/>
	</linearGradient>
	<path style="fill:url(#SVGID_00000178894733307814133280000013722834261806302638_);" d="M60,24.3c0,5.9,0,11.8,0,17.7
		c-0.4,0.2-0.6,0-0.9-0.2c-1.9-1.5-4.2-2-6.5-2c-3.4-0.1-6.8-0.1-10.3,0c-4.1,0.1-7.3,1.7-9.1,5.6c-0.5,1-0.7,2.1-0.7,3.2
		c0,1.7,0,3.5,0,5.2c0,0.4,0.1,0.9-0.4,1.1c-2.6,0-5.1,0.1-7.7,0c-1.8,0-3.5,0.1-5.2,0.4c0-7.1,0-14.1,0-21.2c0-3.2,0.9-6,3.5-8
		c1.8-1.4,3.8-1.9,6-1.9c7.3,0,14.6,0,21.9,0C53.8,24.3,56.9,24.3,60,24.3z"/>
	<path class="st4" d="M19.3,93c0-1.6,0.1-3.1,0-4.7c0-0.6,0.2-0.8,0.8-0.8c1.7,0,3.4,0,5,0c0,1.7,0,3.4,0,5.1c0,1.8-1.2,3.1-2.8,3.2
		C20.8,95.9,19.6,94.8,19.3,93z"/>
	<path class="st5" d="M94.8,87.6c1.7,0,3.4,0,5.2,0c0.6,0,0.7,0.2,0.7,0.7c0,1.6,0,3.1,0,4.7c-0.2,1.8-1.4,2.9-3.1,2.8
		c-1.6-0.1-2.8-1.3-2.8-3.1C94.8,91,94.8,89.3,94.8,87.6z"/>
	
		<linearGradient id="SVGID_00000120551013193195291320000005113653357193394354_" gradientUnits="userSpaceOnUse" x1="46.2495" y1="37.0562" x2="46.2495" y2="53.8869">
		<stop  offset="0" style="stop-color:#FFFFFF"/>
		<stop  offset="0.2548" style="stop-color:#E8F8FF"/>
		<stop  offset="0.7854" style="stop-color:#AEE5FF"/>
		<stop  offset="1" style="stop-color:#95DDFF"/>
	</linearGradient>
	<path style="fill:url(#SVGID_00000120551013193195291320000005113653357193394354_);" d="M32.2,54.9c0-1.8,0.1-3.6,0-5.5
		c-0.2-5.3,3.9-9.8,9.4-9.8c4.3,0,8.6-0.2,12.9,0.1c1.8,0.1,3.3,0.8,4.7,1.8c0.3,0.2,0.5,0.5,0.8,0.5c0,0,0,0.1,0,0.1
		c0.4,0.4,0.3,0.8,0.3,1.3c0,3.4,0,6.8,0,10.2c0,0.5,0,0.9-0.3,1.3c0,0,0,0,0,0c-8.8,0-17.6,0-26.5,0C33.1,54.9,32.6,54.9,32.2,54.9
		z"/>
	
		<linearGradient id="SVGID_00000065034662109125701310000000625776886019412400_" gradientUnits="userSpaceOnUse" x1="73.9045" y1="35.491" x2="73.9045" y2="60.1432">
		<stop  offset="0" style="stop-color:#3979F9"/>
		<stop  offset="0.7085" style="stop-color:#1A20F2"/>
	</linearGradient>
	<path style="fill:url(#SVGID_00000065034662109125701310000000625776886019412400_);" d="M60,54.9c0-4.3,0-8.5,0-12.8
		c2.4-2.1,5.3-2.6,8.4-2.5c3.7,0.1,7.4-0.1,11,0.1c4.4,0.3,8.2,4.2,8.4,8.7c0.1,2.2,0,4.4,0.1,6.5c-5.3,0-10.5,0-15.8,0
		C68,54.9,64,54.9,60,54.9z"/>
</g>
</svg>
