<svg
    xmlns="http://www.w3.org/2000/svg"
    viewBox="0 0 36 36"
    id="vector">
    <path
        id="path"
        d="M 18 18 M 0 18 C 0 13.228 1.898 8.646 5.272 5.272 C 8.646 1.898 13.228 0 18 0 C 22.772 0 27.354 1.898 30.728 5.272 C 34.102 8.646 36 13.228 36 18 C 36 22.772 34.102 27.354 30.728 30.728 C 27.354 34.102 22.772 36 18 36 C 13.228 36 8.646 34.102 5.272 30.728 C 1.898 27.354 0 22.772 0 18"
        fill="#424242"/>
    <path
        id="path_1"
        d="M 21.8 19 C 23.2 17.9 24.2 16.1 24.2 14.1 C 24.2 10.7 21.4 7.9 18 7.9 C 14.6 7.9 11.8 10.7 11.8 14.1 C 11.8 16.1 12.7 17.8 14.2 19 C 11.6 20.3 9.8 22.9 9.6 26 L 10.7 26 C 10.9 23.2 12.8 20.8 15.3 19.8 C 16.1 20.2 17 20.4 18 20.4 C 19 20.4 19.9 20.2 20.7 19.8 C 23.2 20.8 25.1 23.2 25.3 26 L 26.4 26 C 26.2 23 24.4 20.4 21.8 19 Z M 18 19.3 C 15.2 19.3 12.9 17 12.9 14.2 C 12.9 11.4 15.2 9.1 18 9.1 C 20.8 9.1 23.1 11.4 23.1 14.2 C 23.1 17 20.8 19.3 18 19.3 Z"
        fill="#ffffff"/>
</svg>
