<svg
    xmlns="http://www.w3.org/2000/svg"
    viewBox="0 0 96 96"
    id="vector">
    <path
        id="path"
        d="M 48 0 C 21.5 0 0 21.5 0 48 C 0 74.5 21.5 96 48 96 C 74.5 96 96 74.5 96 48 C 96 21.5 74.5 0 48 0 Z M 48 87.7 C 26.1 87.7 8.3 69.9 8.3 48 C 8.3 26.1 26.1 8.3 48 8.3 C 69.9 8.3 87.7 26.1 87.7 48 C 87.7 69.9 69.9 87.7 48 87.7 Z"
        fill="#ffffff"/>
    <path
        id="path_1"
        d="M 48 48 M 8.3 48 C 8.3 37.475 12.486 27.37 19.928 19.928 C 27.37 12.486 37.475 8.3 48 8.3 C 58.525 8.3 68.63 12.486 76.072 19.928 C 83.514 27.37 87.7 37.475 87.7 48 C 87.7 58.525 83.514 68.63 76.072 76.072 C 68.63 83.514 58.525 87.7 48 87.7 C 37.475 87.7 27.37 83.514 19.928 76.072 C 12.486 68.63 8.3 58.525 8.3 48"
        fill="#e0e0e0"/>
    <path
        id="path_2"
        d="M 36.6 50.5 C 36.6 56.8 41.7 61.9 48 61.9 C 54.3 61.9 59.4 56.8 59.4 50.5 C 59.4 44.2 54.3 39.1 48 39.1 C 41.7 39.1 36.6 44.2 36.6 50.5 Z M 72.5 31.3 L 60.3 31.3 C 59.4 27.8 58.5 24.3 55 24.3 L 41 24.3 C 37.5 24.3 36.6 27.8 35.7 31.3 L 23.5 31.3 C 21.6 31.3 20 32.9 20 34.8 L 20 66.3 C 20 68.2 21.6 69.8 23.5 69.8 L 72.5 69.8 C 74.4 69.8 76 68.2 76 66.3 L 76 34.8 C 76 32.8 74.4 31.3 72.5 31.3 Z M 48 66 C 39.4 66 32.5 59 32.5 50.5 C 32.5 41.9 39.5 35 48 35 C 56.6 35 63.5 42 63.5 50.5 C 63.5 59.1 56.6 66 48 66 Z M 72.5 41.8 L 65.5 41.8 L 65.5 38.3 L 72.5 38.3 L 72.5 41.8 Z"
        fill="#ffffff"/>
</svg>
