<svg
    xmlns="http://www.w3.org/2000/svg"
    viewBox="0 0 48 48"
    id="vector">
    <path
        id="path"
        d="M 8.16 43.56 C 20 31.72 31.82 19.9 43.59 8.13 C 42.35 6.88 41.07 5.6 39.78 4.3 C 37.51 6.57 35.22 8.86 32.93 11.16 C 32.72 11.37 32.53 11.42 32.25 11.34 C 28.23 10.26 24.14 9.98 20.02 10.5 C 13.99 11.26 8.6 13.55 3.87 17.38 C 3.03 18.06 2.25 18.81 1.49 19.47 C 2.73 20.72 3.91 21.91 5.09 23.1 C 12.91 15.17 23.69 14.7 28.27 15.77 C 28.23 15.82 28.2 15.87 28.16 15.92 C 26.07 18.01 23.99 20.1 21.89 22.18 C 21.77 22.3 21.58 22.38 21.41 22.4 C 18.47 22.78 15.75 23.77 13.25 25.36 C 12.05 26.12 10.94 27.01 9.88 28.09 C 10.91 29.1 11.93 30.09 12.98 31.13 C 10.08 34.03 7.21 36.9 4.36 39.74 C 5.66 41.05 6.93 42.33 8.16 43.56 Z M 23.4 34.8 C 20.98 34.79 18.97 36.77 18.95 39.17 C 18.94 41.66 20.89 43.68 23.34 43.7 C 25.85 43.71 27.84 41.75 27.85 39.25 C 27.87 36.79 25.89 34.81 23.4 34.8 Z M 38.04 28.02 C 36.3 26.29 34.32 24.93 32.08 23.96 C 31.97 23.91 31.73 24 31.63 24.1 C 30.45 25.25 29.29 26.43 28.12 27.6 C 28.05 27.67 28 27.76 27.92 27.87 C 30.45 28.58 32.61 29.85 34.44 31.63 C 35.65 30.4 36.83 29.23 38.04 28.02 Z M 46.5 19.52 C 44.77 17.79 42.85 16.28 40.82 15.03 C 39.56 16.29 38.33 17.52 37.09 18.76 C 39.21 19.95 41.16 21.43 42.88 23.12 C 44.09 21.91 45.28 20.73 46.5 19.52 Z"
        fill="#ffffff"/>
    <path
        id="path_1"
        d="M 8.16 43.56 C 6.93 42.33 5.66 41.05 4.37 39.75 C 7.22 36.91 10.09 34.03 12.99 31.14 C 11.93 30.1 10.92 29.11 9.89 28.1 C 10.95 27.01 12.06 26.13 13.26 25.37 C 15.76 23.78 18.48 22.79 21.42 22.41 C 21.59 22.39 21.78 22.31 21.9 22.19 C 24 20.11 26.08 18.02 28.17 15.93 C 28.21 15.89 28.24 15.84 28.28 15.78 C 23.7 14.71 12.92 15.18 5.1 23.11 C 3.92 21.92 2.74 20.73 1.5 19.48 C 2.25 18.81 3.04 18.06 3.88 17.39 C 8.61 13.56 14 11.27 20.03 10.51 C 24.16 9.99 28.24 10.27 32.26 11.35 C 32.55 11.43 32.73 11.38 32.94 11.17 C 35.22 8.87 37.52 6.58 39.79 4.31 C 41.08 5.61 42.36 6.89 43.6 8.14 C 31.82 19.9 20 31.72 8.16 43.56 Z"
        fill="#ffffff"/>
    <path
        id="path_2"
        d="M 23.4 34.8 C 25.89 34.81 27.87 36.79 27.85 39.25 C 27.84 41.75 25.85 43.71 23.34 43.7 C 20.9 43.69 18.94 41.67 18.95 39.17 C 18.97 36.77 20.98 34.79 23.4 34.8 Z"
        fill="#ffffff"/>
    <path
        id="path_3"
        d="M 38.04 28.02 C 36.83 29.23 35.65 30.41 34.43 31.63 C 32.6 29.85 30.45 28.58 27.91 27.87 C 27.99 27.76 28.04 27.67 28.11 27.6 C 29.27 26.43 30.44 25.26 31.62 24.1 C 31.72 24 31.96 23.91 32.07 23.96 C 34.32 24.93 36.3 26.28 38.04 28.02 Z"
        fill="#ffffff"/>
    <path
        id="path_4"
        d="M 46.5 19.52 C 45.28 20.73 44.09 21.91 42.87 23.12 C 41.16 21.43 39.2 19.95 37.08 18.76 C 38.32 17.52 39.55 16.29 40.81 15.03 C 42.85 16.28 44.77 17.79 46.5 19.52 Z"
        fill="#ffffff"/>
</svg>
