<svg
    xmlns="http://www.w3.org/2000/svg"
    viewBox="0 0 36 36"
    id="vector">
    <path
        id="path"
        d="M 18 18 M 0 18 C 0 13.228 1.898 8.646 5.272 5.272 C 8.646 1.898 13.228 0 18 0 C 22.772 0 27.354 1.898 30.728 5.272 C 34.102 8.646 36 13.228 36 18 C 36 22.772 34.102 27.354 30.728 30.728 C 27.354 34.102 22.772 36 18 36 C 13.228 36 8.646 34.102 5.272 30.728 C 1.898 27.354 0 22.772 0 18"
        fill="#f44336"/>
    <path
        id="path_1"
        d="M 18 27 C 13.2 27 9.4 23.2 9.4 18.6 C 9.4 15.4 11.3 12.5 14.3 11.1 C 14.7 10.9 15.1 11.1 15.3 11.5 C 15.5 11.9 15.3 12.3 14.9 12.5 C 12.4 13.7 10.9 16 10.9 18.7 C 10.9 22.5 14.1 25.6 18 25.6 C 21.9 25.6 25.1 22.5 25.1 18.7 C 25.1 16 23.5 13.6 21 12.5 C 20.6 12.3 20.5 11.9 20.6 11.5 C 20.7 11.1 21.2 11 21.6 11.1 C 24.6 12.5 26.6 15.4 26.6 18.7 C 26.6 23.2 22.8 27 18 27 L 18 27 Z"
        fill="#ffffff"/>
    <path
        id="path_2"
        d="M 18 19.2 C 17.6 19.2 17.3 18.9 17.3 18.5 L 17.3 9.7 C 17.3 9.3 17.6 9 18 9 C 18.4 9 18.7 9.3 18.7 9.7 L 18.7 18.4 C 18.7 18.8 18.4 19.2 18 19.2 Z"
        fill="#ffffff"/>
</svg>
