<svg
    xmlns="http://www.w3.org/2000/svg"
    viewBox="0 0 258 258"
    id="vector">
    <path
        id="path"
        d="M 228.36 246.72 L 223.69 246.72 L 223.69 48 C 223.69 44.69 221 42 217.69 42 L 141.36 42 C 138.05 42 135.36 44.69 135.36 48 L 135.36 246.72 L 127.36 246.72 L 127.36 25.27 C 127.36 23.21 126.3 21.29 124.56 20.19 C 122.81 19.09 120.63 18.97 118.77 19.86 L 106.42 25.78 L 106.42 5.99 C 106.42 2.68 103.73 -0.01 100.42 -0.01 C 97.11 -0.01 94.42 2.68 94.42 5.99 L 94.42 31.54 L 77.6 39.61 C 75.52 40.61 74.2 42.71 74.2 45.02 L 74.2 78.67 L 41.85 98.91 C 40.1 100.01 39.03 101.93 39.03 104 L 39.03 246.72 L 30.36 246.72 C 27.05 246.72 24.36 249.41 24.36 252.72 C 24.36 256.03 27.05 258.72 30.36 258.72 L 45.03 258.72 L 121.36 258.72 L 141.36 258.72 L 217.69 258.72 L 228.36 258.72 C 231.67 258.72 234.36 256.03 234.36 252.72 C 234.36 249.41 231.67 246.72 228.36 246.72 Z M 211.7 54 L 211.7 125.67 C 211.48 125.65 211.26 125.63 211.03 125.63 L 148.03 125.63 C 147.8 125.63 147.58 125.64 147.36 125.67 L 147.36 54 L 211.69 54 Z M 51.03 246.72 L 51.03 107.32 L 83.38 87.08 C 85.13 85.98 86.2 84.06 86.2 81.99 L 86.2 48.79 L 115.37 34.8 L 115.37 246.71 L 51.04 246.71 Z M 185.53 246.72 L 185.53 239 C 185.53 235.69 182.84 233 179.53 233 C 176.22 233 173.53 235.69 173.53 239 L 173.53 246.72 L 147.36 246.72 L 147.36 137.59 C 147.58 137.61 147.8 137.63 148.03 137.63 L 211.03 137.63 C 211.25 137.63 211.48 137.62 211.7 137.59 L 211.7 246.72 L 185.53 246.72 Z"
        fill="#9e9e9e"/>
    <path
        id="path_1"
        d="M 70.32 132.11 C 67.01 132.11 64.32 134.8 64.32 138.11 L 64.32 145.48 C 64.32 148.79 67.01 151.48 70.32 151.48 C 73.63 151.48 76.32 148.79 76.32 145.48 L 76.32 138.11 C 76.32 134.8 73.63 132.11 70.32 132.11 Z"
        fill="#9e9e9e"/>
    <path
        id="path_2"
        d="M 95.38 132.11 C 92.07 132.11 89.38 134.8 89.38 138.11 L 89.38 145.48 C 89.38 148.79 92.07 151.48 95.38 151.48 C 98.69 151.48 101.38 148.79 101.38 145.48 L 101.38 138.11 C 101.38 134.8 98.69 132.11 95.38 132.11 Z"
        fill="#9e9e9e"/>
    <path
        id="path_3"
        d="M 70.32 157.9 C 67.01 157.9 64.32 160.59 64.32 163.9 L 64.32 171.27 C 64.32 174.58 67.01 177.27 70.32 177.27 C 73.63 177.27 76.32 174.58 76.32 171.27 L 76.32 163.9 C 76.32 160.59 73.63 157.9 70.32 157.9 Z"
        fill="#9e9e9e"/>
    <path
        id="path_4"
        d="M 95.38 157.9 C 92.07 157.9 89.38 160.59 89.38 163.9 L 89.38 171.27 C 89.38 174.58 92.07 177.27 95.38 177.27 C 98.69 177.27 101.38 174.58 101.38 171.27 L 101.38 163.9 C 101.38 160.59 98.69 157.9 95.38 157.9 Z"
        fill="#9e9e9e"/>
    <path
        id="path_5"
        d="M 70.32 183.7 C 67.01 183.7 64.32 186.39 64.32 189.7 L 64.32 197.07 C 64.32 200.38 67.01 203.07 70.32 203.07 C 73.63 203.07 76.32 200.38 76.32 197.07 L 76.32 189.7 C 76.32 186.39 73.63 183.7 70.32 183.7 Z"
        fill="#9e9e9e"/>
    <path
        id="path_6"
        d="M 95.38 183.7 C 92.07 183.7 89.38 186.39 89.38 189.7 L 89.38 197.07 C 89.38 200.38 92.07 203.07 95.38 203.07 C 98.69 203.07 101.38 200.38 101.38 197.07 L 101.38 189.7 C 101.38 186.39 98.69 183.7 95.38 183.7 Z"
        fill="#9e9e9e"/>
    <path
        id="path_7"
        d="M 70.32 209.49 C 67.01 209.49 64.32 212.18 64.32 215.49 L 64.32 222.86 C 64.32 226.17 67.01 228.86 70.32 228.86 C 73.63 228.86 76.32 226.17 76.32 222.86 L 76.32 215.49 C 76.32 212.18 73.63 209.49 70.32 209.49 Z"
        fill="#9e9e9e"/>
    <path
        id="path_8"
        d="M 95.38 209.49 C 92.07 209.49 89.38 212.18 89.38 215.49 L 89.38 222.86 C 89.38 226.17 92.07 228.86 95.38 228.86 C 98.69 228.86 101.38 226.17 101.38 222.86 L 101.38 215.49 C 101.38 212.18 98.69 209.49 95.38 209.49 Z"
        fill="#9e9e9e"/>
    <path
        id="path_9"
        d="M 167 183.7 C 163.69 183.7 161 186.39 161 189.7 L 161 197.07 C 161 200.38 163.69 203.07 167 203.07 C 170.31 203.07 173 200.38 173 197.07 L 173 189.7 C 173 186.39 170.31 183.7 167 183.7 Z"
        fill="#9e9e9e"/>
    <path
        id="path_10"
        d="M 192.06 183.7 C 188.75 183.7 186.06 186.39 186.06 189.7 L 186.06 197.07 C 186.06 200.38 188.75 203.07 192.06 203.07 C 195.37 203.07 198.06 200.38 198.06 197.07 L 198.06 189.7 C 198.06 186.39 195.37 183.7 192.06 183.7 Z"
        fill="#9e9e9e"/>
    <path
        id="path_11"
        d="M 167 154.22 C 163.69 154.22 161 156.91 161 160.22 L 161 167.59 C 161 170.9 163.69 173.59 167 173.59 C 170.31 173.59 173 170.9 173 167.59 L 173 160.22 C 173 156.91 170.31 154.22 167 154.22 Z"
        fill="#9e9e9e"/>
    <path
        id="path_12"
        d="M 192.06 154.22 C 188.75 154.22 186.06 156.91 186.06 160.22 L 186.06 167.59 C 186.06 170.9 188.75 173.59 192.06 173.59 C 195.37 173.59 198.06 170.9 198.06 167.59 L 198.06 160.22 C 198.06 156.91 195.37 154.22 192.06 154.22 Z"
        fill="#9e9e9e"/>
    <path
        id="path_13"
        d="M 167 113.63 C 170.31 113.63 173 110.94 173 107.63 L 173 100.26 C 173 96.95 170.31 94.26 167 94.26 C 163.69 94.26 161 96.95 161 100.26 L 161 107.63 C 161 110.94 163.69 113.63 167 113.63 Z"
        fill="#9e9e9e"/>
    <path
        id="path_14"
        d="M 192.06 113.63 C 195.37 113.63 198.06 110.94 198.06 107.63 L 198.06 100.26 C 198.06 96.95 195.37 94.26 192.06 94.26 C 188.75 94.26 186.06 96.95 186.06 100.26 L 186.06 107.63 C 186.06 110.94 188.75 113.63 192.06 113.63 Z"
        fill="#9e9e9e"/>
    <path
        id="path_15"
        d="M 167 84.29 C 170.31 84.29 173 81.6 173 78.29 L 173 70.92 C 173 67.61 170.31 64.92 167 64.92 C 163.69 64.92 161 67.61 161 70.92 L 161 78.29 C 161 81.6 163.69 84.29 167 84.29 Z"
        fill="#9e9e9e"/>
    <path
        id="path_16"
        d="M 192.06 84.29 C 195.37 84.29 198.06 81.6 198.06 78.29 L 198.06 70.92 C 198.06 67.61 195.37 64.92 192.06 64.92 C 188.75 64.92 186.06 67.61 186.06 70.92 L 186.06 78.29 C 186.06 81.6 188.75 84.29 192.06 84.29 Z"
        fill="#9e9e9e"/>
</svg>
