<svg
    xmlns="http://www.w3.org/2000/svg"
    viewBox="0 0 96 96"
    id="vector">
    <path
        id="path"
        d="M 90.1 76.66 L 62.41 67.14 C 63.22 66.08 64.03 64.99 64.85 63.87 C 74.93 50.06 80.05 39.36 80.05 32.05 C 80.05 14.38 65.67 0 48 0 C 30.33 0 15.95 14.38 15.95 32.05 C 15.95 39.36 21.07 50.06 31.16 63.87 C 31.98 65 32.81 66.1 33.62 67.16 L 5.91 76.66 C 4.83 77.03 4.11 78.04 4.11 79.18 C 4.11 80.32 4.83 81.33 5.91 81.7 L 47.07 95.86 C 47.34 95.95 47.64 96 47.93 96 C 48.22 96 48.51 95.95 48.79 95.86 L 90.09 81.7 C 91.17 81.33 91.89 80.32 91.89 79.18 C 91.89 78.04 91.17 77.03 90.1 76.66 Z M 48 16.8 C 55.55 16.8 61.69 22.94 61.69 30.49 C 61.69 38.04 55.55 44.18 48 44.18 C 40.45 44.18 34.31 38.04 34.31 30.49 C 34.31 22.94 40.45 16.8 48 16.8 Z M 47.93 90.52 L 14.97 79.18 L 37.08 71.6 C 41.97 77.71 45.81 81.92 46.03 82.16 C 46.53 82.71 47.25 83.03 48 83.03 C 48.75 83.03 49.46 82.72 49.97 82.16 C 50.19 81.92 54.04 77.7 58.95 71.57 L 81.04 79.17 L 47.93 90.52 Z"
        fill="#ffffff"/>
</svg>
