<svg
    xmlns="http://www.w3.org/2000/svg"
    viewBox="0 0 32 32"
    id="vector">
    <path
        id="path"
        d="M 29.17 21.51 C 27.81 19.95 26.65 17.07 26.65 15.22 C 26.65 13.21 26.63 11.12 26.6 10.5 L 26.52 10.02 C 26.43 9.41 26.28 8.81 26.08 8.24 C 25.16 5.57 23.14 3.31 20.54 2.07 C 17.69 0.7 14.37 0.65 11.51 1.92 C 9.23 2.93 7.36 4.72 6.25 6.93 C 5.87 7.69 5.58 8.5 5.4 9.32 L 5.23 10.1 C 5.18 10.91 5.15 13.23 5.15 15.26 C 5.15 17.14 4.05 20.03 2.74 21.57 C 1.64 22.87 1.82 23.82 2.03 24.27 C 2.24 24.73 2.87 25.51 4.66 25.51 L 27.39 25.51 C 29.16 25.51 29.77 24.74 29.98 24.28 C 30.19 23.84 30.36 22.87 29.17 21.51 Z"
        fill="#b0bec5"/>
    <path
        id="path_1"
        d="M 20 25.89 L 12.05 25.89 C 11.74 25.89 11.48 26.14 11.48 26.46 C 11.48 28.97 13.52 31.01 16.03 31.01 C 18.54 31.01 20.58 28.97 20.57 26.46 C 20.57 26.14 20.32 25.89 20 25.89 Z"
        fill="#b0bec5"/>
</svg>
