<svg
    xmlns="http://www.w3.org/2000/svg"
    viewBox="0 0 612 612"
    id="vector">
    <path
        id="path"
        d="M 155.1 345.6 L 72.9 512.1 C 66 530.8 81 547.6 99.7 538.9 L 266.1 456.6 C 273.3 455.2 280.2 452.4 285.8 446.9 L 581.4 151.1 C 596.2 136.3 596.2 112.2 581.4 97.3 L 514.2 30.1 C 499.4 15.3 475.3 15.3 460.5 30.1 L 164.8 325.9 C 159.3 331.4 156.5 338.4 155.1 345.6 Z M 473.8 70.4 C 481.2 63 493.3 63 500.7 70.4 L 541 110.7 C 548.4 118.1 548.4 130.2 541 137.6 L 500.7 177.9 L 434.5 109.7 L 473.8 70.4 Z M 406.2 138.1 L 473.8 204.8 L 258.9 420 C 233.7 394.8 198.9 359.9 191.7 352.8 L 406.2 138.1 Z M 225.4 440.2 L 122.7 502.4 C 113.3 506.7 104.9 497.8 109.3 489 L 171.5 386.2 L 225.4 440.2 Z M 573.8 229.5 L 573.8 535.5 C 573.8 556.5 553 574 532 574 L 76 574 C 55 574 38 557 38 536 L 38 79.7 C 38 58.7 55.5 38.3 76.5 38.3 L 382.5 38.3 L 382.5 0 L 76.5 0 C 34.5 0 0 37.7 0 79.7 L 0 536 C 0 578 34 612 76 612 L 532 612 C 574 612 612 577.5 612 535.5 L 612 229.5 L 573.8 229.5 Z"
        fill="#808080"/>
</svg>
