<svg
    xmlns="http://www.w3.org/2000/svg"
    viewBox="0 0 471 471"
    id="vector">
    <path
        id="path"
        d="M 128.1 367.4 C 122.8 366.7 119.5 366.7 112.9 366.7 C 106.9 366.7 71.1 368 43.2 377.3 C 38.6 379.1 15.7 389.4 0 402.8 L 0 421.6 C 0 449.4 22.5 471.9 50.3 471.9 L 214.6 471.9 C 217.1 426.6 175.2 401 128.1 367.4 Z"
        fill="#f0563c"/>
    <path
        id="path_1"
        d="M 85.9 302.9 C 85.9 291.6 89.5 284.9 92.8 276.9 C 85.5 277.6 78.6 278.3 72 278.3 C 41.9 278.3 16.8 266.8 0 251.7 L 0 325.5 L 0 368.6 C 42 348.4 85.4 349.5 106.6 348.1 C 97.3 336.1 85.9 323.5 85.9 302.9 Z"
        fill="#f0563c"/>
    <path
        id="path_2"
        d="M 149 235 C 161.5 220.8 166.3 202 166.3 192.4 C 166.3 144.5 138.5 70 83.5 70 C 66.3 70 47.7 78.6 37.1 91.9 C 25.8 105.9 24.1 123.8 24.1 141.2 C 24.1 185.7 47.5 251.7 104.5 251.7 C 121.1 251.7 138.1 247.5 149 235 Z"
        fill="#f0563c"/>
    <path
        id="path_3"
        d="M 421.6 0 L 50.3 0 C 22.5 0 0 22.5 0 50.3 L 0 92.1 C 40.6 52.3 83.1 50.6 117.5 50.6 L 257.6 50.6 L 220.4 84.3 C 220.4 84.3 185.2 84.3 179.8 84.3 C 196.1 84.3 220.4 120.3 220.4 165.2 C 220.4 214.4 194.4 234.4 166.6 256.3 C 158 264.9 148.1 274.3 148.1 288.9 C 148.1 303.5 158 311.5 165.3 317.5 L 189.2 336.1 C 218.3 360.7 256.5 389.2 256.5 435.1 C 256.5 441.6 253 460.8 250.8 471.8 L 421.7 471.8 C 449.5 471.8 472 449.3 472 421.5 L 472 50.3 C 471.8 22.5 449.3 0 421.6 0 Z M 421.3 151.7 L 387.6 151.7 L 387.6 185.4 C 387.6 194.7 380.1 202.2 370.7 202.2 C 361.4 202.2 353.8 194.7 353.8 185.4 L 353.8 151.7 L 320.1 151.7 C 310.8 151.7 303.2 144.2 303.2 134.8 C 303.2 125.5 310.7 118 320.1 118 L 353.8 118 L 353.8 84.3 C 353.8 75 361.3 67.4 370.7 67.4 C 380 67.4 387.6 74.9 387.6 84.3 L 387.6 118 L 421.3 118 C 430.6 118 438.2 125.5 438.2 134.8 C 438.1 144.1 430.6 151.7 421.3 151.7 Z"
        fill="#f0563c"/>
</svg>
