<svg
    xmlns="http://www.w3.org/2000/svg"
    viewBox="0 0 36 36"
    id="vector">
    <path
        id="path"
        d="M 18 18 M 0 18 C 0 13.228 1.898 8.646 5.272 5.272 C 8.646 1.898 13.228 0 18 0 C 22.772 0 27.354 1.898 30.728 5.272 C 34.102 8.646 36 13.228 36 18 C 36 22.772 34.102 27.354 30.728 30.728 C 27.354 34.102 22.772 36 18 36 C 13.228 36 8.646 34.102 5.272 30.728 C 1.898 27.354 0 22.772 0 18"
        fill="#af4eb5"/>
    <path
        id="path_1"
        d="M 23.3 26.6 C 23.2 26.6 23.2 26.6 23.1 26.6 L 18 24.8 L 12.9 26.5 C 12.7 26.6 12.6 26.5 12.4 26.4 C 12.3 26.3 12.2 26.2 12.2 26 L 12.3 20.6 L 9.1 16.3 C 9 16.3 9 16.1 9 15.9 C 9 15.7 9.2 15.6 9.3 15.6 L 14.4 14 L 17.5 9.6 C 17.6 9.5 17.7 9.4 17.9 9.4 L 17.9 9.4 C 18.1 9.4 18.2 9.5 18.3 9.6 L 21.4 14 L 26.5 15.6 C 26.7 15.6 26.8 15.8 26.8 15.9 C 26.8 16 26.8 16.2 26.7 16.3 L 23.5 20.6 L 23.6 26 C 23.6 26.2 23.5 26.3 23.4 26.4 C 23.5 26.6 23.4 26.6 23.3 26.6 Z M 10.3 16.4 L 13.2 20.3 C 13.3 20.4 13.3 20.5 13.3 20.6 L 13.2 25.4 L 17.8 23.9 C 17.9 23.9 18 23.9 18.1 23.9 L 22.7 25.4 L 22.6 20.6 C 22.6 20.5 22.6 20.4 22.7 20.3 L 25.6 16.4 L 21 15 C 20.9 15 20.8 14.9 20.7 14.8 L 17.9 10.8 L 15.1 14.8 C 15 14.9 14.9 15 14.8 15 L 10.3 16.4 Z"
        fill="#ffffff"/>
    <path
        id="path_2"
        d="M 46 1064.9 L -7.8 1064.9 C -15.9 1064.9 -18.7 1064.9 -46.3 996.6 L -67.6 987.9 C -125.7 1014.2 -132.5 1014.2 -134.8 1014.2 L -139.2 1014.2 L -143 1010.9 L -181.2 973.6 C -187 967.8 -189 965.8 -159.2 898.3 L -167.9 877.7 C -238 852.6 -238 849.7 -238 841.4 L -238 788.6 C -238 780.3 -238 777.7 -168.1 750.7 L -159.4 730.1 C -191 663.7 -188.8 661.6 -182.6 655.7 L -141.6 615.5 L -136.5 615.3 C -130.3 615.3 -107.3 623.7 -68.1 640.2 L -46.9 631.6 C -21.3 563 -18.2 563 -10.1 563 L 43.7 563 C 51.8 563 54.6 563 82.2 631.4 L 103.5 640 C 161.5 613.7 168.4 613.7 170.8 613.7 L 175.2 613.7 L 179 616.9 L 217.2 654.2 C 223 660.1 225 662.1 195.1 729.6 L 203.8 750.3 C 274 775.3 274 778.2 274 786.5 L 274 839.2 C 274 847.3 274 850.1 204 877.1 L 195.4 897.7 C 226.8 963.9 224.7 965.9 218.9 971.9 L 177.6 1012.4 L 172.5 1012.5 C 166.3 1012.5 143.4 1004.1 104.3 987.5 L 82.9 996.1 C 57.2 1064.9 54.2 1064.9 46 1064.9 Z M -2.2 1043.1 L 40.2 1043.1 C 45.1 1033.2 55.6 1006.8 64 984.2 L 65.7 979.7 L 104.4 964.1 L 108.6 965.9 C 131.6 975.7 158.9 986.6 169.5 990 L 199.3 960.8 C 195.5 950.3 184 924.6 173.7 902.9 L 171.6 898.5 L 187.6 860.3 L 192 858.6 C 215.3 849.6 242.2 838.6 252.3 833.5 L 252.3 792.5 C 242.1 787.7 215.3 777.5 192.1 769.3 L 187.6 767.7 L 171.5 729.5 L 173.4 725.2 C 183.3 702.9 194.3 676.5 197.8 665.9 L 167.9 636.7 C 158.2 640.1 131.2 651.7 108.4 662.1 L 104.2 664 L 65.5 648.4 L 63.8 644.1 C 54.7 621.3 43.3 594.9 38.2 585.1 L -4.3 585.1 C -9.2 595 -19.7 621.3 -28.1 644 L -29.8 648.5 L -68.3 664 L -72.5 662.2 C -95.6 652.4 -122.9 641.5 -133.5 638.2 L -163.3 667.4 C -159.6 677.9 -148 703.6 -137.7 725.2 L -135.6 729.6 L -151.7 767.8 L -156 769.5 C -179.2 778.4 -206.1 789.5 -216.2 794.5 L -216.2 835.5 C -206 840.3 -179.2 850.6 -156.1 858.8 L -151.6 860.4 L -135.5 898.5 L -137.4 902.8 C -147.3 925.1 -158.3 951.5 -161.8 962.1 L -131.8 991.4 C -122.2 988 -95.2 976.4 -72.3 966 L -68 964 L -29.4 979.7 L -27.7 984 C -18.7 1006.9 -7.3 1033.3 -2.2 1043.1 Z M 18 901.8 C -31.4 901.8 -71.5 862.4 -71.5 814 C -71.5 765.6 -31.3 726.2 18 726.2 C 67.3 726.2 107.4 765.6 107.4 814 C 107.4 862.4 67.3 901.8 18 901.8 Z M 18 748 C -19.4 748 -49.7 777.6 -49.7 814 C -49.7 850.4 -19.3 880 18 880 C 55.3 880 85.6 850.4 85.6 814 C 85.6 777.6 55.3 748 18 748 Z"
        fill="#9e9e9e"/>
</svg>
