<svg
    xmlns="http://www.w3.org/2000/svg"
    viewBox="0 0 612 612"
    id="vector">
    <path
        id="path"
        d="M 219 197.9 L 285.6 117.1 L 285.6 408 C 285.6 419.3 294.7 428.4 306 428.4 C 317.3 428.4 326.4 419.3 326.4 408 L 326.4 116.4 L 393.7 198 C 401.7 206 414.7 206 422.7 198 C 430.7 190 430.7 176.9 422.7 168.9 L 321.9 46.6 C 317.6 42.3 312 40.5 306.4 40.8 C 300.8 40.5 295.2 42.3 290.9 46.6 L 190 168.8 C 182 176.8 182 189.9 190 197.9 C 198 206 211 206 219 197.9 Z M 591.6 367.2 C 580.3 367.2 571.2 376.3 571.2 387.6 L 571.2 530.4 L 40.8 530.4 L 40.8 387.6 C 40.8 376.3 31.7 367.2 20.4 367.2 C 9.1 367.2 0 376.4 0 387.6 L 0 550.8 C 0 562.1 9.1 571.2 20.4 571.2 L 591.6 571.2 C 602.9 571.2 612 562.1 612 550.8 L 612 387.6 C 612 376.4 602.9 367.2 591.6 367.2 Z"
        fill="#808080"/>
</svg>
