<svg
    xmlns="http://www.w3.org/2000/svg"
    viewBox="0 0 36 36"
    id="vector">
    <path
        id="path"
        d="M 18 0 C 8.06 0 0 8.06 0 18 C 0 27.94 8.06 36 18 36 C 27.94 36 36 27.94 36 18 C 36 8.06 27.94 0 18 0 Z M 18 35 C 8.61 35 1 27.39 1 18 C 1 8.61 8.61 1 18 1 C 27.39 1 35 8.61 35 18 C 35 27.39 27.39 35 18 35 Z"
        fill="#e0e0e0"/>
    <path
        id="path_1"
        d="M 35 18 C 35 8.63 27.37 1.03 18.03 1.03 C 8.6 1.03 1 8.63 1 18 C 1 27.4 8.6 34.97 18.03 34.97 C 27.37 34.97 35 27.4 35 18 Z M 24.58 27.07 L 18.03 22.26 L 11.32 27.07 L 13.84 19.27 L 7.22 14.49 L 15.47 14.49 L 18.03 6.66 L 20.59 14.49 L 28.78 14.49 L 22.13 19.27 L 24.58 27.07 Z"
        fill="#da251d"/>
    <path
        id="path_2"
        d="M 20.59 14.49 L 18.03 6.66 L 15.48 14.49 L 7.23 14.49 L 13.85 19.27 L 11.33 27.07 L 18.04 22.26 L 24.59 27.07 L 22.13 19.27 L 28.78 14.49 Z"
        fill="#ffff00"/>
</svg>
