<svg
    xmlns="http://www.w3.org/2000/svg"
    viewBox="0 0 36 36"
    id="vector">
    <path
        id="path"
        d="M 18 18 M 0 18 C 0 13.228 1.898 8.646 5.272 5.272 C 8.646 1.898 13.228 0 18 0 C 22.772 0 27.354 1.898 30.728 5.272 C 34.102 8.646 36 13.228 36 18 C 36 22.772 34.102 27.354 30.728 30.728 C 27.354 34.102 22.772 36 18 36 C 13.228 36 8.646 34.102 5.272 30.728 C 1.898 27.354 0 22.772 0 18"
        fill="#ffca05"/>
    <path
        id="path_1"
        d="M 27.65 24.57 L 21.3 22.39 C 21.49 22.15 21.67 21.9 21.86 21.64 C 24.17 18.48 25.34 16.02 25.34 14.35 C 25.34 10.3 22.05 7 18 7 C 13.95 7 10.66 10.3 10.66 14.34 C 10.66 16.01 11.83 18.47 14.14 21.63 C 14.33 21.89 14.52 22.14 14.7 22.38 L 8.35 24.56 C 8.1 24.64 7.94 24.88 7.94 25.14 C 7.94 25.4 8.11 25.63 8.35 25.72 L 17.78 28.96 C 17.85 28.99 17.92 29 17.98 29 C 18.05 29 18.11 28.99 18.18 28.97 L 27.65 25.73 C 27.9 25.64 28.06 25.41 28.06 25.15 C 28.06 24.89 27.89 24.65 27.65 24.57 Z M 24.12 14.35 C 24.12 16.99 20.05 22.17 18 24.51 C 15.95 22.17 11.87 17 11.87 14.35 C 11.87 10.97 14.62 8.23 18 8.23 C 21.38 8.23 24.12 10.97 24.12 14.35 Z M 17.98 27.75 L 10.43 25.15 L 15.5 23.41 C 16.62 24.81 17.5 25.78 17.55 25.83 C 17.67 25.96 17.83 26.03 18 26.03 C 18.17 26.03 18.33 25.96 18.45 25.83 C 18.5 25.77 19.38 24.81 20.51 23.4 L 25.57 25.14 L 17.98 27.75 Z"
        fill="#ffffff"/>
    <path
        id="path_2"
        d="M 21.53 13.37 L 21.03 13.37 C 20.95 12.96 20.79 12.59 20.56 12.26 L 20.92 11.9 C 21.05 11.77 21.05 11.56 20.92 11.43 L 20.53 11.04 C 20.4 10.91 20.19 10.91 20.06 11.04 L 19.71 11.4 C 19.38 11.18 19 11.02 18.6 10.94 L 18.6 10.44 C 18.6 10.26 18.45 10.11 18.27 10.11 L 17.71 10.11 C 17.53 10.11 17.38 10.26 17.38 10.44 L 17.38 10.94 C 16.98 11.02 16.6 11.18 16.27 11.41 L 15.91 11.05 C 15.78 10.92 15.57 10.92 15.44 11.05 L 15.05 11.44 C 14.92 11.57 14.92 11.78 15.05 11.91 L 15.41 12.27 C 15.19 12.6 15.03 12.98 14.95 13.38 L 14.46 13.38 C 14.28 13.38 14.13 13.53 14.13 13.71 L 14.13 14.26 C 14.13 14.44 14.28 14.59 14.46 14.59 L 14.97 14.59 C 15.05 14.99 15.21 15.37 15.44 15.7 L 15.08 16.06 C 14.95 16.19 14.95 16.4 15.08 16.53 L 15.47 16.92 C 15.6 17.05 15.81 17.05 15.94 16.92 L 16.29 16.56 C 16.62 16.78 17 16.94 17.4 17.02 L 17.4 17.53 C 17.4 17.71 17.55 17.86 17.73 17.86 L 18.28 17.86 C 18.46 17.86 18.61 17.71 18.61 17.53 L 18.61 17.03 C 19.01 16.95 19.39 16.79 19.72 16.56 L 20.08 16.92 C 20.21 17.05 20.42 17.05 20.55 16.92 L 20.94 16.53 C 21.07 16.4 21.07 16.19 20.94 16.06 L 20.58 15.7 C 20.8 15.37 20.96 14.99 21.04 14.59 L 21.55 14.59 C 21.73 14.59 21.88 14.44 21.88 14.26 L 21.88 13.71 C 21.87 13.52 21.72 13.37 21.53 13.37 Z M 18.01 15.46 C 17.2 15.46 16.54 14.81 16.53 13.99 C 16.53 13.18 17.18 12.51 18 12.51 C 18.81 12.51 19.48 13.16 19.48 13.98 C 19.48 14.8 18.82 15.45 18.01 15.46 Z"
        fill="#ffffff"/>
</svg>
