<svg
    xmlns="http://www.w3.org/2000/svg"
    viewBox="0 0 328 48"
    id="vector">
    <path
        id="path"
        d="M 327.1 48 L 0.9 48 L 0 46.7 L 0 1.3 L 328 1.3 L 328 46.7 Z"
        fill="#223e73"/>
    <path
        id="path_1"
        d="M 0 0 L 328 0 L 328 46.7 L 0 46.7 Z"
        fill="#3c5a98"/>
    <path
        id="path_2"
        d="M 48 4.4 L 48.9 4.4 L 48.9 43.6 L 48 43.6 Z"
        fill="#294588"/>
    <path
        id="path_3"
        d="M 31.2 25.6 L 32 20 L 26.4 20 L 26.4 16.4 C 26.4 14.8 26.9 13.7 29.2 13.7 L 32.2 13.7 L 32.2 8.7 C 31.7 8.6 29.9 8.5 27.9 8.5 C 23.6 8.5 20.7 11.1 20.7 15.9 L 20.7 20 L 15.9 20 L 15.9 25.6 L 20.7 25.6 L 20.7 40 L 26.5 40 L 26.5 25.6 L 31.2 25.6 Z"
        fill="#ffffff"/>
    <path
        id="path_4"
        d="M 31.3 25.2 L 32 19.6 L 26.4 19.6 L 26.4 16 C 26.4 14.4 26.9 13.3 29.2 13.3 L 32.2 13.3 L 32.2 8.3 C 31.7 8.2 30 8 27.9 8 C 23.6 8 20.7 10.6 20.7 15.4 L 20.7 19.5 L 15.9 19.5 L 15.9 25.1 L 20.7 25.1 L 20.7 39.5 L 26.5 39.5 L 26.5 25.2 L 31.3 25.2 Z"
        fill="#ffffff"/>
</svg>
