<?xml version="1.0" encoding="utf-8"?>
<!-- Generator: Adobe Illustrator 24.0.0, SVG Export Plug-In . SVG Version: 6.00 Build 0)  -->
<svg version="1.1" id="Layer_1" xmlns="http://www.w3.org/2000/svg" xmlns:xlink="http://www.w3.org/1999/xlink" x="0px" y="0px"
	 viewBox="0 0 614.24 93.6" style="enable-background:new 0 0 614.24 93.6;" xml:space="preserve">
<style type="text/css">
	.st0{fill:#FFFFFF;}
	.st1{enable-background:new    ;}
	.st2{fill:#4473B9;}
</style>
<g>
	<g>
		<path class="st0" d="M5,92.64c-2.23,0-4.04-1.81-4.04-4.04V5c0-2.23,1.81-4.04,4.04-4.04h604.24c2.23,0,4.04,1.81,4.04,4.04v83.6
			c0,2.23-1.81,4.04-4.04,4.04H5z"/>
		<path d="M609.24,1.91c1.7,0,3.09,1.38,3.09,3.09v83.6c0,1.7-1.38,3.09-3.09,3.09H5c-1.7,0-3.09-1.38-3.09-3.09V5
			C1.91,3.3,3.3,1.91,5,1.91H609.24 M609.24,0H5C2.24,0,0,2.24,0,5v83.6c0,2.76,2.24,5,5,5h604.24c2.76,0,5-2.24,5-5V5
			C614.24,2.24,612,0,609.24,0L609.24,0z"/>
	</g>
	<g>
		<g>
			<g class="st1">
				<path d="M181.26,53.33c0.16,1.81,1.75,3.37,4.76,3.37c2.75,0,4.34-1.27,4.34-3.25c0-1.61-1.11-2.45-3.41-3.01l-3.49-0.84
					c-2.86-0.65-5.4-2.34-5.4-5.9c0-4.19,3.64-6.49,7.94-6.49c4.38,0,7.83,2.39,7.89,6.38h-3.66c-0.14-1.77-1.53-3.26-4.27-3.26
					c-2.42,0-4.04,1.15-4.04,3.07c0,1.38,1,2.36,2.99,2.82l3.5,0.84c3.25,0.75,5.78,2.29,5.78,6.06c0,4.26-3.44,6.72-8.47,6.72
					c-6.13,0-8.16-3.55-8.23-6.51H181.26z"/>
				<path d="M199.9,36.4c1.37,0,2.28,0.84,2.28,2s-0.89,2.01-2.28,2.01c-1.3,0-2.23-0.84-2.23-2.01S198.6,36.4,199.9,36.4z
					 M198.05,42.57h3.76v16.84h-3.76V42.57z"/>
				<path d="M217.01,58.98v-2.4h-0.14c-0.64,1.46-2.4,2.63-4.77,2.63c-3.72,0-6.48-2.75-6.48-7.48v-1.85c0-4.66,2.71-7.54,6.51-7.54
					c2.72,0,4.17,1.26,4.82,2.66h0.14v-2.42h3.66v16.55c0,4.74-3.55,6.56-7.78,6.56c-4.79,0-6.89-2.47-6.99-5.04h3.69
					c0.19,1.18,1.29,2.15,3.41,2.15C215.72,62.79,217.01,61.4,217.01,58.98z M209.44,50.21v1.4c0,3.01,1.62,4.69,3.9,4.69
					c2.34,0,3.66-1.99,3.66-4.57V50.2c0-2.77-1.38-4.81-3.68-4.81C210.95,45.39,209.44,47.22,209.44,50.21z"/>
				<path d="M225.16,42.57h3.69v2.37H229c0.57-1.29,2.23-2.64,4.85-2.64c3.34,0,5.89,2.07,5.89,5.98v11.13h-3.77v-9.95
					c0-2.75-1.34-3.92-3.49-3.92c-2.2,0-3.56,1.37-3.56,4.03v9.83h-3.76V42.57z"/>
				<path d="M252.67,36.4c1.37,0,2.28,0.84,2.28,2s-0.89,2.01-2.28,2.01c-1.3,0-2.23-0.84-2.23-2.01S251.36,36.4,252.67,36.4z
					 M250.82,42.57h3.76v16.84h-3.76V42.57z"/>
				<path d="M259.34,42.57h3.69v2.37h0.14c0.57-1.29,2.23-2.64,4.85-2.64c3.34,0,5.89,2.07,5.89,5.98v11.13h-3.77v-9.95
					c0-2.75-1.34-3.92-3.49-3.92c-2.2,0-3.56,1.37-3.56,4.03v9.83h-3.76V42.57z"/>
				<path d="M302.06,59.41h-3.85l-3.42-12.29h-0.11l-3.36,12.29h-3.88l-4.58-16.84h4.03l2.61,12.68h0.16l3.31-12.68h3.53l3.41,12.68
					h0.16l2.67-12.68h3.74L302.06,59.41z"/>
				<path d="M311.23,36.4c1.37,0,2.28,0.84,2.28,2s-0.89,2.01-2.28,2.01c-1.3,0-2.23-0.84-2.23-2.01S309.92,36.4,311.23,36.4z
					 M309.38,42.57h3.76v16.84h-3.76V42.57z"/>
				<path d="M318.8,38.5h3.66v4.2h3.28v2.94h-3.28v8.64c0,1.78,0.7,2.29,2.55,2.29c0.32,0,0.62,0,0.83-0.03v2.85
					c-0.3,0.05-0.99,0.13-1.75,0.13c-4.14,0-5.35-1.46-5.35-4.85v-9.02h-2.36V42.7h2.42V38.5z"/>
				<path d="M329.2,36.54h3.76v8.4h0.16c0.46-1.13,1.91-2.64,4.68-2.64c3.66,0,6.05,2.55,6.05,6.49v10.62h-3.77v-9.77
					c0-2.59-1.32-4.09-3.49-4.09c-2.2,0-3.63,1.43-3.63,4.11v9.76h-3.76V36.54z"/>
				<path d="M354.74,59.41V37.69h13.56v3.23h-9.71v6.46h8.86v3.17h-8.86v8.86H354.74z"/>
				<path d="M375.71,59.67c-3.26,0-5.52-1.94-5.52-5.09c0-3.01,2.08-4.97,5.97-4.97h4.2v-1.78c0-1.77-1.08-2.55-2.98-2.55
					c-1.94,0-2.85,0.92-2.99,2.34h-3.58c0.14-2.9,1.99-5.32,6.7-5.32c3.9,0,6.59,1.59,6.59,5.6v11.51h-3.55v-2.16h-0.16
					C379.67,58.52,378.19,59.67,375.71,59.67z M380.35,53.76v-1.72h-3.5c-1.97,0-2.91,0.95-2.91,2.31c0,1.7,1.43,2.48,2.94,2.48
					C378.84,56.83,380.35,55.53,380.35,53.76z"/>
				<path d="M387.58,50.1c0-4.5,2.64-7.81,7.34-7.81c4.31,0,6.76,2.66,6.8,5.7h-3.52c-0.14-1.24-1.21-2.67-3.18-2.67
					c-2.48,0-3.68,2.13-3.68,4.87v1.59c0,2.82,1.34,4.81,3.68,4.81c2.08,0,3.02-1.11,3.26-2.37h3.52c-0.08,3.17-2.78,5.49-6.88,5.49
					c-4.66,0-7.34-3.13-7.34-7.92V50.1z"/>
				<path d="M404.36,51.74v-1.42c0-4.89,2.71-8.04,7.3-8.04c4.74,0,7.29,3.25,7.29,8.02v1.51h-10.89v0.53c0,2.34,1.24,4.38,3.8,4.38
					c2.05,0,3.06-1.07,3.28-2.24h3.63c-0.27,2.26-2.13,5.22-6.89,5.22C407.03,59.7,404.36,56.63,404.36,51.74z M415.29,49.29v-0.03
					c0-2.37-1.35-4.07-3.6-4.07c-2.26,0-3.63,1.72-3.63,4.07v0.03H415.29z"/>
				<path d="M426.34,56.83h-0.14v2.58h-3.68V36.54h3.76v8.45h0.14c0.68-1.37,2.05-2.66,4.87-2.66c4.09,0,6.4,2.98,6.4,7.77v1.75
					c0,4.98-2.42,7.78-6.46,7.78C428.63,59.63,426.94,58.42,426.34,56.83z M433.85,51.71v-1.35c0-3.23-1.43-4.97-3.74-4.97
					c-2.36,0-3.84,1.97-3.84,4.81v1.64c0,2.55,1.24,4.74,3.84,4.74C432.32,56.58,433.85,54.91,433.85,51.71z"/>
				<path d="M455.64,50.36v1.21c0,4.92-2.5,8.13-7.56,8.13c-5.06,0-7.58-3.18-7.58-8.13v-1.19c0-4.63,2.51-8.08,7.58-8.08
					C453.14,42.29,455.64,45.6,455.64,50.36z M444.28,50.5v0.97c0,2.71,0.86,5.24,3.8,5.24c2.93,0,3.76-2.51,3.76-5.24V50.5
					c0-2.74-0.84-5.25-3.76-5.25C445.15,45.25,444.28,47.78,444.28,50.5z"/>
				<path d="M473.56,50.36v1.21c0,4.92-2.5,8.13-7.56,8.13c-5.06,0-7.58-3.18-7.58-8.13v-1.19c0-4.63,2.51-8.08,7.58-8.08
					C471.06,42.29,473.56,45.6,473.56,50.36z M462.2,50.5v0.97c0,2.71,0.86,5.24,3.8,5.24c2.93,0,3.76-2.51,3.76-5.24V50.5
					c0-2.74-0.84-5.25-3.76-5.25C463.08,45.25,462.2,47.78,462.2,50.5z"/>
				<path d="M480.93,59.41h-3.77V36.54h3.77v13.23h0.16l6-7.19h4.27l-6.29,7.27l6.72,9.56h-4.42l-5.12-7.37l-1.31,1.4V59.41z"/>
			</g>
		</g>
		<g>
			
				<ellipse transform="matrix(0.1091 -0.994 0.994 0.1091 58.3798 157.379)" class="st2" cx="116.99" cy="46.12" rx="18.36" ry="18.36"/>
			<path class="st0" d="M124.13,51.43l0.81-5.31h-5.09v-3.44c0-1.45,0.71-2.87,2.99-2.87h2.32v-4.52c0,0-2.1-0.36-4.11-0.36
				c-4.19,0-6.94,2.54-6.94,7.15v4.05h-4.66v5.31h4.66v12.83c0.93,0.15,1.89,0.22,2.87,0.22s1.93-0.08,2.87-0.22V51.43H124.13z"/>
		</g>
	</g>
</g>
</svg>
