<svg
    xmlns="http://www.w3.org/2000/svg"
    viewBox="0 0 32 32"
    id="vector">
    <path
        id="path"
        d="M 16 1 C 7.72 1 1 7.72 1 16 C 1 24.28 7.72 31 16 31 C 24.28 31 31 24.28 31 16 C 31 7.72 24.28 1 16 1 Z M 19.12 24.25 C 18.35 24.56 17.73 24.79 17.27 24.95 C 16.81 25.11 16.28 25.19 15.67 25.19 C 14.73 25.19 14.01 24.96 13.49 24.5 C 12.97 24.04 12.71 23.47 12.71 22.76 C 12.71 22.49 12.73 22.21 12.77 21.92 C 12.81 21.64 12.87 21.32 12.96 20.96 L 13.93 17.55 C 14.02 17.22 14.09 16.91 14.15 16.62 C 14.21 16.33 14.24 16.06 14.24 15.82 C 14.24 15.39 14.15 15.08 13.97 14.91 C 13.79 14.74 13.45 14.66 12.94 14.66 C 12.69 14.66 12.44 14.7 12.17 14.77 C 11.91 14.85 11.68 14.92 11.5 14.99 L 11.75 13.94 C 12.38 13.68 12.99 13.46 13.57 13.28 C 14.15 13.09 14.69 13 15.21 13 C 16.14 13 16.85 13.23 17.36 13.67 C 17.86 14.12 18.11 14.7 18.11 15.42 C 18.11 15.57 18.09 15.83 18.06 16.2 C 18.03 16.58 17.96 16.92 17.87 17.23 L 16.91 20.63 C 16.83 20.9 16.76 21.21 16.7 21.57 C 16.64 21.92 16.61 22.19 16.61 22.37 C 16.61 22.82 16.71 23.13 16.91 23.29 C 17.11 23.45 17.46 23.54 17.96 23.54 C 18.19 23.54 18.46 23.5 18.76 23.42 C 19.05 23.34 19.27 23.27 19.4 23.2 L 19.12 24.25 Z M 18.95 10.43 C 18.5 10.85 17.96 11.06 17.33 11.06 C 16.7 11.06 16.16 10.85 15.7 10.43 C 15.25 10.01 15.02 9.51 15.02 8.92 C 15.02 8.33 15.25 7.82 15.7 7.4 C 16.15 6.98 16.7 6.77 17.33 6.77 C 17.96 6.77 18.5 6.98 18.95 7.4 C 19.4 7.82 19.62 8.33 19.62 8.92 C 19.63 9.51 19.4 10.02 18.95 10.43 Z"
        fill="#b0bec5"/>
</svg>
