<svg
    xmlns="http://www.w3.org/2000/svg"
    viewBox="0 0 328 48"
    id="vector">
    <path
        id="path"
        d="M 327.1 48 L 0.9 48 L 0 46.7 L 0 1.3 L 328 1.3 L 328 46.7 Z"
        fill="#a52622"/>
    <path
        id="path_1"
        d="M 0 0 L 328 0 L 328 46.7 L 0 46.7 Z"
        fill="#f0563c"/>
    <path
        id="path_2"
        d="M 48 4.4 L 48.9 4.4 L 48.9 43.6 L 48 43.6 Z"
        fill="#cd2723"/>
    <path
        id="path_3"
        d="M 28.9 10 C 29.2 10.2 29.5 10.4 29.8 10.7 C 30.1 11 30.4 11.4 30.7 11.9 C 31 12.3 31.2 12.9 31.5 13.5 C 31.7 14.1 31.8 14.8 31.8 15.6 C 31.8 17.1 31.5 18.3 30.8 19.1 C 30.5 19.5 30.2 19.9 29.8 20.3 C 29.4 20.7 29 21 28.6 21.4 C 28.4 21.7 28.1 21.9 27.9 22.3 C 27.7 22.6 27.5 23 27.5 23.5 C 27.5 23.9 27.6 24.3 27.9 24.6 C 28.1 24.9 28.3 25.1 28.5 25.3 L 29.9 26.4 C 30.8 27.1 31.5 27.9 32.2 28.8 C 32.8 29.7 33.1 30.8 33.2 32.2 C 33.2 34.2 32.3 36 30.5 37.5 C 28.7 39.1 26 39.9 22.6 40 C 19.7 40 17.5 39.4 16.1 38.2 C 14.7 37.1 13.9 35.7 13.9 34.2 C 13.9 33.4 14.1 32.6 14.6 31.6 C 15.1 30.7 15.9 29.8 17.1 29.1 C 18.4 28.3 19.8 27.8 21.3 27.6 C 22.8 27.4 24 27.3 24.9 27.2 C 24.6 26.8 24.3 26.4 24.1 25.9 C 23.8 25.5 23.7 24.9 23.7 24.3 C 23.7 23.9 23.8 23.6 23.9 23.4 C 24 23.1 24.1 22.9 24.2 22.7 C 23.7 22.8 23.3 22.8 22.9 22.8 C 20.7 22.8 19 22.1 17.9 20.7 C 16.6 19.5 16 18 16 16.3 C 16 14.3 16.9 12.4 18.6 10.8 C 19.8 9.8 21 9.2 22.3 8.9 C 23.6 8.6 24.7 8.5 25.8 8.5 L 34 8.5 L 31.5 10 L 28.9 10 Z M 30.5 33.8 C 30.5 32.8 30.2 31.8 29.5 31.1 C 28.8 30.4 27.6 29.5 26.1 28.4 C 25.8 28.4 25.5 28.4 25.2 28.4 C 25 28.4 24.4 28.4 23.6 28.5 C 22.7 28.6 21.9 28.8 21 29.1 C 20.8 29.2 20.5 29.3 20.1 29.5 C 19.7 29.7 19.3 29.9 18.9 30.2 C 18.5 30.5 18.2 31 17.9 31.4 C 17.6 31.9 17.4 32.6 17.4 33.3 C 17.4 34.8 18.1 35.9 19.4 36.9 C 20.7 37.8 22.4 38.3 24.5 38.4 C 26.4 38.4 27.9 37.9 29 37.1 C 30 36.2 30.5 35.1 30.5 33.8 Z M 24.7 21.7 C 25.8 21.7 26.7 21.3 27.4 20.5 C 27.8 20 28 19.4 28.1 18.9 C 28.2 18.3 28.2 17.9 28.2 17.5 C 28.2 15.9 27.8 14.2 26.9 12.6 C 26.5 11.8 26 11.2 25.4 10.7 C 24.7 10.2 24 10 23.2 10 C 22.1 10 21.2 10.5 20.4 11.4 C 19.8 12.3 19.5 13.3 19.5 14.5 C 19.5 16 19.9 17.5 20.8 19.2 C 21.2 20 21.8 20.6 22.4 21.1 C 23.1 21.4 23.9 21.7 24.7 21.7 Z"
        fill="#f2765d"/>
    <path
        id="path_4"
        d="M 29 9.5 C 29.3 9.7 29.6 9.9 29.9 10.2 C 30.2 10.5 30.5 10.9 30.8 11.4 C 31.1 11.8 31.3 12.4 31.6 13 C 31.8 13.6 31.9 14.3 31.9 15.1 C 31.9 16.6 31.6 17.8 30.9 18.6 C 30.6 19 30.3 19.4 29.9 19.8 C 29.5 20.2 29.1 20.5 28.7 20.9 C 28.5 21.2 28.2 21.4 28 21.8 C 27.8 22.1 27.6 22.5 27.6 23 C 27.6 23.4 27.7 23.8 28 24.1 C 28.2 24.4 28.4 24.6 28.6 24.8 L 30 25.9 C 30.9 26.6 31.6 27.4 32.3 28.3 C 32.9 29.2 33.2 30.3 33.3 31.7 C 33.3 33.7 32.4 35.5 30.6 37 C 28.8 38.6 26.1 39.4 22.7 39.5 C 19.8 39.5 17.6 38.9 16.2 37.6 C 14.8 36.5 14 35.1 14 33.6 C 14 32.8 14.2 32 14.7 31 C 15.2 30.1 16 29.2 17.2 28.5 C 18.5 27.7 19.9 27.2 21.4 27 C 22.9 26.8 24.1 26.7 25 26.6 C 24.7 26.2 24.4 25.8 24.2 25.3 C 23.9 24.9 23.8 24.3 23.8 23.7 C 23.8 23.3 23.9 23 24 22.8 C 24.1 22.5 24.2 22.3 24.3 22.1 C 23.8 22.2 23.4 22.2 23 22.2 C 20.8 22.2 19.1 21.5 18 20.1 C 16.8 18.8 16.2 17.4 16.2 15.7 C 16.2 13.7 17.1 11.8 18.8 10.2 C 20 9.2 21.2 8.6 22.5 8.3 C 23.5 8.1 24.7 8 25.8 8 L 34.1 8 L 31.5 9.5 L 29 9.5 Z M 30.6 33.3 C 30.6 32.3 30.3 31.3 29.6 30.6 C 28.9 29.9 27.7 29 26.2 27.9 C 25.9 27.9 25.6 27.9 25.3 27.9 C 25.1 27.9 24.5 27.9 23.7 28 C 22.8 28.1 22 28.3 21.1 28.6 C 20.9 28.7 20.6 28.8 20.2 29 C 19.8 29.2 19.4 29.4 19 29.7 C 18.6 30 18.3 30.5 18 30.9 C 17.7 31.4 17.5 32.1 17.5 32.8 C 17.5 34.3 18.2 35.4 19.5 36.4 C 20.8 37.3 22.5 37.8 24.6 37.9 C 26.5 37.9 28 37.4 29.1 36.6 C 30.1 35.6 30.6 34.6 30.6 33.3 Z M 24.8 21.2 C 25.9 21.2 26.8 20.8 27.5 20 C 27.9 19.5 28.1 18.9 28.2 18.4 C 28.3 17.8 28.3 17.4 28.3 17 C 28.3 15.4 27.9 13.7 27 12.1 C 26.6 11.3 26.1 10.7 25.5 10.2 C 24.8 9.7 24.1 9.5 23.3 9.5 C 22.2 9.5 21.3 10 20.5 10.9 C 19.9 11.8 19.6 12.8 19.6 14 C 19.6 15.5 20 17 20.9 18.7 C 21.3 19.5 21.9 20.1 22.5 20.6 C 23.2 20.9 23.9 21.2 24.8 21.2 Z"
        fill="#ffffff"/>
</svg>
