<svg
    xmlns="http://www.w3.org/2000/svg"
    viewBox="0 0 227 227"
    id="vector">
    <path
        id="path"
        d="M 175.9 141.48 C 162.65 141.48 150.79 147.52 142.92 157 L 91.73 127.93 C 93.32 123.45 94.2 118.63 94.2 113.61 C 94.2 108.59 93.32 103.77 91.73 99.29 L 142.92 70.22 C 150.79 79.7 162.65 85.74 175.9 85.74 C 199.53 85.74 218.76 66.5 218.76 42.86 C 218.76 19.23 199.53 0 175.9 0 C 152.26 0 133.03 19.23 133.03 42.87 C 133.03 47.89 133.9 52.71 135.5 57.19 L 84.3 86.26 C 76.43 76.79 64.57 70.75 51.33 70.75 C 27.69 70.75 8.46 89.98 8.46 113.62 C 8.46 137.26 27.69 156.49 51.33 156.49 C 64.58 156.49 76.43 150.45 84.3 140.98 L 135.49 170.05 C 133.9 174.53 133.02 179.35 133.02 184.37 C 133.02 208.01 152.25 227.24 175.89 227.24 C 199.52 227.24 218.75 208.01 218.75 184.37 C 218.76 160.71 199.53 141.48 175.9 141.48 Z M 175.9 15 C 191.26 15 203.76 27.5 203.76 42.86 C 203.76 58.23 191.26 70.74 175.9 70.74 C 160.53 70.74 148.03 58.23 148.03 42.86 C 148.03 27.5 160.53 15 175.9 15 Z M 51.33 141.48 C 35.96 141.48 23.46 128.98 23.46 113.62 C 23.46 98.25 35.96 85.75 51.33 85.75 C 66.69 85.75 79.19 98.25 79.19 113.62 C 79.19 128.98 66.69 141.48 51.33 141.48 Z M 175.9 212.22 C 160.53 212.22 148.03 199.72 148.03 184.36 C 148.03 168.99 160.53 156.48 175.9 156.48 C 191.26 156.48 203.76 168.99 203.76 184.36 C 203.76 199.71 191.26 212.22 175.9 212.22 Z"
        fill="#ffffff"/>
</svg>
