<svg
    xmlns="http://www.w3.org/2000/svg"
    viewBox="0 0 96 96"
    id="vector">
    <path
        id="path"
        d="M 92.4 12.6 C 87.6 7.7 79.9 7.7 75.1 12.6 L 31.8 56.8 L 21 45.8 C 16.2 40.9 8.5 40.9 3.7 45.8 C -1.1 50.7 -1.1 58.6 3.7 63.5 L 23.2 83.4 C 28 88.3 35.7 88.3 40.5 83.4 L 92.5 30.4 C 97.2 25.4 97.2 17.5 92.4 12.6 Z M 88.1 25.9 C 88.1 25.9 36.9 78.1 36.1 78.9 C 33.7 81.3 29.8 81.3 27.4 78.9 C 27.4 78.9 7.8 58.9 7.7 58.8 C 5.5 56.3 5.6 52.5 7.9 50.2 C 10.3 47.8 14.2 47.8 16.6 50.2 L 31.8 65.7 L 79.5 17.1 C 81.9 14.7 85.8 14.7 88.2 17.1 C 90.5 19.5 90.5 23.5 88.1 25.9 Z"
        fill="#ffc000"/>
    <path
        id="path_1"
        d="M 88.1 25.9 C 88.1 25.9 36.9 78.1 36.1 78.9 C 33.7 81.3 29.8 81.3 27.4 78.9 C 27.4 78.9 7.8 58.9 7.7 58.8 C 5.5 56.3 5.6 52.5 7.9 50.2 C 10.3 47.8 14.2 47.8 16.6 50.2 L 31.8 65.7 L 79.5 17.1 C 81.9 14.7 85.8 14.7 88.2 17.1 C 90.5 19.5 90.5 23.5 88.1 25.9 Z"
        fill="#ffffffb3"/>
</svg>
