<svg
    xmlns="http://www.w3.org/2000/svg"
    viewBox="0 0 36 36"
    id="vector">
    <path
        id="path"
        d="M 18 18 M 0 18 C 0 13.228 1.898 8.646 5.272 5.272 C 8.646 1.898 13.228 0 18 0 C 22.772 0 27.354 1.898 30.728 5.272 C 34.102 8.646 36 13.228 36 18 C 36 22.772 34.102 27.354 30.728 30.728 C 27.354 34.102 22.772 36 18 36 C 13.228 36 8.646 34.102 5.272 30.728 C 1.898 27.354 0 22.772 0 18"
        fill="#7e8c8d"/>
    <path
        id="path_1"
        d="M 46 1064.9 L -7.8 1064.9 C -15.9 1064.9 -18.7 1064.9 -46.3 996.6 L -67.6 987.9 C -125.7 1014.2 -132.5 1014.2 -134.8 1014.2 L -139.2 1014.2 L -143 1010.9 L -181.2 973.6 C -187 967.8 -189 965.8 -159.2 898.3 L -167.9 877.7 C -238 852.6 -238 849.7 -238 841.4 L -238 788.6 C -238 780.3 -238 777.7 -168.1 750.7 L -159.4 730.1 C -191 663.7 -188.8 661.6 -182.6 655.7 L -141.6 615.5 L -136.5 615.3 C -130.3 615.3 -107.3 623.7 -68.1 640.2 L -46.9 631.6 C -21.3 563 -18.2 563 -10.1 563 L 43.7 563 C 51.8 563 54.6 563 82.2 631.4 L 103.5 640 C 161.5 613.7 168.4 613.7 170.8 613.7 L 175.2 613.7 L 179 616.9 L 217.2 654.2 C 223 660.1 225 662.1 195.1 729.6 L 203.8 750.3 C 274 775.3 274 778.2 274 786.5 L 274 839.2 C 274 847.3 274 850.1 204 877.1 L 195.4 897.7 C 226.8 963.9 224.7 965.9 218.9 971.9 L 177.6 1012.4 L 172.5 1012.5 C 166.3 1012.5 143.4 1004.1 104.3 987.5 L 82.9 996.1 C 57.2 1064.9 54.2 1064.9 46 1064.9 Z M -2.2 1043.1 L 40.2 1043.1 C 45.1 1033.2 55.6 1006.8 64 984.2 L 65.7 979.7 L 104.4 964.1 L 108.6 965.9 C 131.6 975.7 158.9 986.6 169.5 990 L 199.3 960.8 C 195.5 950.3 184 924.6 173.7 902.9 L 171.6 898.5 L 187.6 860.3 L 192 858.6 C 215.3 849.6 242.2 838.6 252.3 833.5 L 252.3 792.5 C 242.1 787.7 215.3 777.5 192.1 769.3 L 187.6 767.7 L 171.5 729.5 L 173.4 725.2 C 183.3 702.9 194.3 676.5 197.8 665.9 L 167.9 636.7 C 158.2 640.1 131.2 651.7 108.4 662.1 L 104.2 664 L 65.5 648.4 L 63.8 644.1 C 54.7 621.3 43.3 594.9 38.2 585.1 L -4.3 585.1 C -9.2 595 -19.7 621.3 -28.1 644 L -29.8 648.5 L -68.3 664 L -72.5 662.2 C -95.6 652.4 -122.9 641.5 -133.5 638.2 L -163.3 667.4 C -159.6 677.9 -148 703.6 -137.7 725.2 L -135.6 729.6 L -151.7 767.8 L -156 769.5 C -179.2 778.4 -206.1 789.5 -216.2 794.5 L -216.2 835.5 C -206 840.3 -179.2 850.6 -156.1 858.8 L -151.6 860.4 L -135.5 898.5 L -137.4 902.8 C -147.3 925.1 -158.3 951.5 -161.8 962.1 L -131.8 991.4 C -122.2 988 -95.2 976.4 -72.3 966 L -68 964 L -29.4 979.7 L -27.7 984 C -18.7 1006.9 -7.3 1033.3 -2.2 1043.1 Z M 18 901.8 C -31.4 901.8 -71.5 862.4 -71.5 814 C -71.5 765.6 -31.3 726.2 18 726.2 C 67.3 726.2 107.4 765.6 107.4 814 C 107.4 862.4 67.3 901.8 18 901.8 Z M 18 748 C -19.4 748 -49.7 777.6 -49.7 814 C -49.7 850.4 -19.3 880 18 880 C 55.3 880 85.6 850.4 85.6 814 C 85.6 777.6 55.3 748 18 748 Z"
        fill="#7e8c8d"/>
    <path
        id="path_2"
        d="M 19 26.7 L 17.1 26.7 C 16.8 26.7 16.7 26.7 15.8 24.3 L 15 24 C 13 24.9 12.7 24.9 12.7 24.9 L 12.5 24.9 L 12.4 24.8 L 11.1 23.5 C 10.9 23.3 10.8 23.2 11.9 20.9 L 11.6 20.2 C 9.2 19.3 9.2 19.2 9.2 18.9 L 9.2 17.1 C 9.2 16.8 9.2 16.7 11.6 15.8 L 11.9 15.1 C 10.8 12.8 10.9 12.7 11.1 12.5 L 12.5 11.1 L 12.7 11.1 C 12.9 11.1 13.7 11.4 15.1 12 L 15.8 11.7 C 16.7 9.3 16.8 9.3 17.1 9.3 L 19 9.3 C 19.3 9.3 19.4 9.3 20.3 11.7 L 21 12 C 23 11.1 23.3 11.1 23.3 11.1 L 23.5 11.1 L 23.6 11.2 L 24.9 12.5 C 25.1 12.7 25.2 12.8 24.1 15.1 L 24.4 15.8 C 26.8 16.7 26.8 16.8 26.8 17.1 L 26.8 18.9 C 26.8 19.2 26.8 19.3 24.4 20.2 L 24.1 20.9 C 25.2 23.2 25.1 23.3 24.9 23.5 L 23.5 24.9 L 23.3 24.9 C 23.1 24.9 22.3 24.6 20.9 24 L 20.2 24.3 C 19.4 26.7 19.3 26.7 19 26.7 Z M 17.3 25.9 L 18.8 25.9 C 19 25.6 19.3 24.6 19.6 23.9 L 19.7 23.7 L 21 23.2 L 21.1 23.3 C 21.9 23.6 22.8 24 23.2 24.1 L 24.2 23.1 C 24.1 22.7 23.7 21.8 23.3 21.1 L 23.2 20.9 L 23.8 19.6 L 24 19.5 C 24.8 19.2 25.7 18.8 26.1 18.6 L 26.1 17.2 C 25.7 17 24.8 16.7 24 16.4 L 23.8 16.3 L 23.2 15 L 23.3 14.9 C 23.6 14.1 24 13.2 24.1 12.8 L 23.1 11.8 C 22.8 11.9 21.8 12.3 21 12.7 L 21 12.8 L 19.7 12.3 L 19.6 12.2 C 19.3 11.4 18.9 10.5 18.7 10.2 L 17.2 10.2 C 17 10.5 16.7 11.5 16.4 12.2 L 16.3 12.4 L 15 12.8 L 14.9 12.7 C 14.1 12.4 13.2 12 12.8 11.9 L 11.8 12.9 C 11.9 13.3 12.3 14.2 12.7 14.9 L 12.8 15.1 L 12.2 16.4 L 12 16.5 C 11.2 16.8 10.3 17.2 9.9 17.4 L 9.9 18.8 C 10.3 19 11.2 19.3 12 19.6 L 12.2 19.7 L 12.8 21 L 12.7 21.1 C 12.4 21.9 12 22.8 11.9 23.2 L 12.9 24.2 C 13.2 24.1 14.2 23.7 15 23.3 L 15.1 23.2 L 16.4 23.7 L 16.5 23.8 C 16.7 24.7 17.1 25.6 17.3 25.9 Z M 18 21 C 16.3 21 14.9 19.6 14.9 18 C 14.9 16.3 16.3 15 18 15 C 19.7 15 21.1 16.4 21.1 18 C 21.1 19.7 19.7 21 18 21 Z M 18 15.7 C 16.7 15.7 15.7 16.7 15.7 18 C 15.7 19.3 16.8 20.3 18 20.3 C 19.3 20.3 20.3 19.3 20.3 18 C 20.3 16.7 19.3 15.7 18 15.7 Z"
        fill="#ffffff"/>
    <path
        id="path_3"
        d="M 19 26.8 L 17.1 26.8 C 16.7 26.8 16.6 26.7 15.7 24.4 L 15 24.2 C 13 25.1 12.8 25.1 12.7 25.1 L 12.5 25.1 L 12.3 25 L 11 23.6 C 10.7 23.3 10.7 23.2 11.7 20.9 L 11.4 20.3 C 9.1 19.5 9 19.3 9 19 L 9 17.2 C 9 16.8 9.1 16.7 11.5 15.8 L 11.8 15.2 C 10.7 12.9 10.8 12.8 11 12.5 L 12.5 11.1 L 12.7 11.1 C 12.9 11.1 13.3 11.2 15.1 12 L 15.7 11.7 C 16.6 9.4 16.7 9.3 17.1 9.3 L 19 9.3 C 19.4 9.3 19.5 9.4 20.4 11.7 L 21 12 C 23 11.1 23.2 11.1 23.3 11.1 L 23.5 11.1 L 23.7 11.2 L 25 12.5 C 25.3 12.8 25.3 12.9 24.3 15.2 L 24.6 15.8 C 27 16.6 27.1 16.8 27.1 17.2 L 27.1 19 C 27.1 19.4 27 19.5 24.6 20.4 L 24.3 21 C 25.4 23.2 25.3 23.4 25.1 23.7 L 23.6 25 L 23.4 25 C 23.2 25 22.8 24.9 21 24.1 L 20.4 24.4 C 19.5 26.7 19.4 26.8 19 26.8 Z M 15 23.9 L 15.8 24.2 L 15.8 24.2 C 16.7 26.5 16.8 26.5 17 26.5 L 19 26.5 C 19.2 26.5 19.3 26.5 20.2 24.2 L 20.2 24.1 L 21 23.8 L 21 23.8 C 22.8 24.5 23.2 24.7 23.3 24.7 L 23.4 24.7 L 24.8 23.3 C 24.9 23.2 25 23.1 24 20.9 L 24 20.9 L 24.3 20.1 L 24.3 20.1 C 26.6 19.2 26.6 19.1 26.6 18.9 L 26.6 17 C 26.6 16.8 26.6 16.7 24.2 15.9 L 24.1 15.9 L 24 15.1 L 24 15.1 C 25 12.8 24.9 12.8 24.8 12.6 L 23.4 11.2 L 23.3 11.2 C 23.1 11.2 22.3 11.5 21 12.1 L 21 12.1 L 20.2 11.8 L 20.2 11.8 C 19.3 9.5 19.2 9.5 19 9.5 L 17 9.5 C 16.8 9.5 16.7 9.5 15.8 11.8 L 15.8 11.9 L 15 12.1 L 15 12.1 C 13.2 11.4 12.8 11.2 12.7 11.2 L 12.6 11.2 L 11.2 12.6 C 11 12.7 10.9 12.8 12 15 L 12 15.1 L 11.7 15.9 L 11.7 15.9 C 9.4 16.8 9.4 16.9 9.4 17.1 L 9.4 19 C 9.4 19.2 9.4 19.3 11.7 20.1 L 11.8 20.1 L 12.1 20.9 L 12.1 20.9 C 11.1 23.2 11.2 23.2 11.3 23.4 L 12.7 24.8 L 12.8 24.8 C 12.9 24.8 13.7 24.5 15 23.9 L 15 23.9 Z M 18.8 26.1 L 17.2 26.1 L 17.2 26 C 17 25.6 16.6 24.7 16.3 23.9 L 16.3 23.8 L 15 23.3 L 14.9 23.3 C 14.1 23.7 13.2 24.1 12.8 24.2 L 12.7 24.2 L 11.6 23.1 L 11.6 23 C 11.7 22.6 12.1 21.7 12.5 20.9 L 12.5 20.8 L 12 19.7 L 11.9 19.7 C 11.1 19.4 10.2 19.1 9.8 18.9 L 9.7 18.9 L 9.7 17.3 L 9.8 17.3 C 10.2 17.1 11.1 16.7 11.9 16.4 L 12 16.4 L 12.5 15.2 L 12.5 15.1 C 12.2 14.4 11.7 13.5 11.6 13.1 L 11.6 13 L 12.7 11.9 L 12.8 11.9 C 13.2 12 14.2 12.4 14.9 12.7 L 15 12.7 L 16.2 12.2 L 16.2 12.1 C 16.5 11.4 16.9 10.4 17 10 L 17 9.9 L 18.6 9.9 L 18.6 10 C 18.8 10.4 19.2 11.3 19.5 12.1 L 19.5 12.2 L 20.7 12.7 L 20.8 12.7 C 21.6 12.3 22.5 11.9 22.9 11.8 L 23 11.8 L 24.1 12.9 L 24.1 13 C 24 13.4 23.6 14.3 23.2 15.1 L 23.2 15.2 L 23.7 16.4 L 23.8 16.4 C 24.6 16.7 25.5 17 25.9 17.2 L 26 17.2 L 26 18.8 L 25.9 18.8 C 25.5 19 24.5 19.4 23.8 19.7 L 23.7 19.7 L 23.2 20.9 L 23.2 21 C 23.6 21.8 24 22.7 24.1 23 L 24.1 23.1 L 23 24.2 L 22.9 24.2 C 22.5 24.1 21.5 23.7 20.8 23.4 L 20.7 23.4 L 19.5 23.9 L 19.5 24 C 19.4 24.8 19 25.7 18.8 26.1 L 18.8 26.1 Z M 17.4 25.8 L 18.7 25.8 C 18.9 25.4 19.2 24.6 19.5 23.8 L 19.6 23.6 L 21 23 L 21.2 23.1 C 22 23.4 22.9 23.8 23.2 23.9 L 24.1 23 C 24 22.6 23.6 21.8 23.2 21.1 L 23.1 20.9 L 23.7 19.5 L 23.9 19.4 C 24.6 19.1 25.5 18.8 25.9 18.6 L 25.9 17.3 C 25.5 17.1 24.6 16.8 23.9 16.5 L 23.7 16.4 L 23.1 15 L 23.2 14.8 C 23.5 14.1 23.9 13.2 24 12.8 L 23.2 12 C 22.8 12.1 22 12.5 21.2 12.8 L 21 12.9 L 19.6 12.3 L 19.5 12.1 C 19.2 11.3 18.8 10.5 18.7 10.1 L 17.4 10.1 C 17.2 10.5 16.9 11.4 16.6 12.1 L 16.5 12.3 L 15 12.9 L 14.8 12.8 C 14.1 12.5 13.2 12.1 12.8 12 L 11.9 12.9 C 12.1 13.3 12.4 14.2 12.8 14.8 L 12.9 15 L 12.3 16.4 L 12 16.6 C 11.2 16.9 10.4 17.3 10 17.4 L 10 18.7 C 10.4 18.9 11.3 19.2 12 19.5 L 12.2 19.6 L 12.8 21 L 12.7 21.2 C 12.4 21.9 12 22.8 11.9 23.2 L 12.8 24.1 C 13.2 24 14 23.6 14.8 23.3 L 15 23.2 L 16.4 23.8 L 16.5 24 C 16.8 24.6 17.2 25.5 17.4 25.8 Z M 18 21.2 C 16.2 21.2 14.8 19.8 14.8 18 C 14.8 16.3 16.2 14.8 18 14.8 C 19.8 14.8 21.2 16.2 21.2 18 C 21.2 19.7 19.8 21.2 18 21.2 Z M 18 15.1 C 16.4 15.1 15 16.4 15 18 C 15 19.6 16.3 20.9 18 20.9 C 19.6 20.9 21 19.6 21 18 C 21 16.4 19.6 15.1 18 15.1 Z M 18 20.4 C 16.6 20.4 15.5 19.3 15.5 18 C 15.5 16.7 16.6 15.6 18 15.6 C 19.4 15.6 20.5 16.7 20.5 18 C 20.5 19.3 19.4 20.4 18 20.4 Z M 18 15.8 C 16.8 15.8 15.8 16.8 15.8 18 C 15.8 19.2 16.8 20.2 18 20.2 C 19.2 20.2 20.2 19.2 20.2 18 C 20.2 16.8 19.2 15.8 18 15.8 Z"
        fill="#ffffff"/>
</svg>
