<?xml version="1.0" encoding="utf-8"?>
<!-- Generator: Adobe Illustrator 24.0.0, SVG Export Plug-In . SVG Version: 6.00 Build 0)  -->
<svg version="1.1" id="Layer_1" xmlns="http://www.w3.org/2000/svg" xmlns:xlink="http://www.w3.org/1999/xlink" x="0px" y="0px"
	 viewBox="0 0 614.24 93.6" style="enable-background:new 0 0 614.24 93.6;" xml:space="preserve">
<style type="text/css">
	.st0{fill:#FFFFFF;}
	.st1{enable-background:new    ;}
	.st2{fill:#E94535;}
	.st3{fill:#EB5647;}
	.st4{fill:#EF7E75;}
	.st5{fill:#F4A39D;}
	.st6{fill:#34A752;}
	.st7{fill:#547DBF;}
	.st8{fill:#F8BB16;}
</style>
<g>
	<g>
		<path class="st0" d="M5,92.64c-2.23,0-4.04-1.81-4.04-4.04V5c0-2.23,1.81-4.04,4.04-4.04h604.24c2.23,0,4.04,1.81,4.04,4.04v83.6
			c0,2.23-1.81,4.04-4.04,4.04H5z"/>
		<path d="M609.24,1.91c1.7,0,3.09,1.38,3.09,3.09v83.6c0,1.7-1.38,3.09-3.09,3.09H5c-1.7,0-3.09-1.38-3.09-3.09V5
			C1.91,3.3,3.3,1.91,5,1.91H609.24 M609.24,0H5C2.24,0,0,2.24,0,5v83.6c0,2.76,2.24,5,5,5h604.24c2.76,0,5-2.24,5-5V5
			C614.24,2.24,612,0,609.24,0L609.24,0z"/>
	</g>
	<g>
		<g class="st1">
			<path d="M202.65,53.33c0.16,1.81,1.75,3.37,4.76,3.37c2.75,0,4.34-1.27,4.34-3.25c0-1.61-1.11-2.45-3.41-3.01l-3.49-0.84
				c-2.86-0.65-5.4-2.34-5.4-5.9c0-4.19,3.64-6.49,7.94-6.49c4.38,0,7.83,2.39,7.89,6.38h-3.66c-0.14-1.77-1.53-3.26-4.27-3.26
				c-2.42,0-4.04,1.15-4.04,3.07c0,1.38,1,2.36,2.99,2.82l3.5,0.84c3.25,0.75,5.78,2.29,5.78,6.06c0,4.26-3.44,6.72-8.47,6.72
				c-6.13,0-8.17-3.55-8.23-6.51H202.65z"/>
			<path d="M221.28,36.4c1.37,0,2.28,0.84,2.28,2s-0.89,2.01-2.28,2.01c-1.3,0-2.23-0.84-2.23-2.01S219.98,36.4,221.28,36.4z
				 M219.44,42.57h3.76v16.84h-3.76V42.57z"/>
			<path d="M238.39,58.98v-2.4h-0.14c-0.64,1.46-2.4,2.63-4.77,2.63c-3.72,0-6.48-2.75-6.48-7.48v-1.85c0-4.66,2.71-7.54,6.51-7.54
				c2.72,0,4.17,1.26,4.82,2.66h0.14v-2.42h3.66v16.55c0,4.74-3.55,6.56-7.78,6.56c-4.79,0-6.89-2.47-6.99-5.04h3.69
				c0.19,1.18,1.29,2.15,3.41,2.15C237.11,62.79,238.39,61.4,238.39,58.98z M230.82,50.21v1.4c0,3.01,1.62,4.69,3.9,4.69
				c2.34,0,3.66-1.99,3.66-4.57V50.2c0-2.77-1.38-4.81-3.68-4.81C232.33,45.39,230.82,47.22,230.82,50.21z"/>
			<path d="M246.54,42.57h3.69v2.37h0.14c0.57-1.29,2.23-2.64,4.85-2.64c3.34,0,5.89,2.07,5.89,5.98v11.13h-3.77v-9.95
				c0-2.75-1.34-3.92-3.49-3.92c-2.2,0-3.57,1.37-3.57,4.03v9.83h-3.76V42.57z"/>
			<path d="M274.05,36.4c1.37,0,2.28,0.84,2.28,2s-0.89,2.01-2.28,2.01c-1.3,0-2.23-0.84-2.23-2.01S272.75,36.4,274.05,36.4z
				 M272.2,42.57h3.76v16.84h-3.76V42.57z"/>
			<path d="M280.72,42.57h3.69v2.37h0.14c0.57-1.29,2.23-2.64,4.85-2.64c3.34,0,5.89,2.07,5.89,5.98v11.13h-3.77v-9.95
				c0-2.75-1.34-3.92-3.49-3.92c-2.2,0-3.56,1.37-3.56,4.03v9.83h-3.76V42.57z"/>
			<path d="M323.44,59.41h-3.85l-3.42-12.29h-0.11l-3.36,12.29h-3.88l-4.58-16.84h4.03l2.61,12.68h0.16l3.31-12.68h3.53l3.41,12.68
				h0.16l2.67-12.68h3.74L323.44,59.41z"/>
			<path d="M332.61,36.4c1.37,0,2.28,0.84,2.28,2s-0.89,2.01-2.28,2.01c-1.3,0-2.23-0.84-2.23-2.01S331.3,36.4,332.61,36.4z
				 M330.76,42.57h3.76v16.84h-3.76V42.57z"/>
			<path d="M340.19,38.5h3.66v4.2h3.28v2.94h-3.28v8.64c0,1.78,0.7,2.29,2.55,2.29c0.32,0,0.62,0,0.83-0.03v2.85
				c-0.3,0.05-0.99,0.13-1.75,0.13c-4.14,0-5.35-1.46-5.35-4.85v-9.02h-2.36V42.7h2.42V38.5z"/>
			<path d="M350.58,36.54h3.76v8.4h0.16c0.46-1.13,1.91-2.64,4.68-2.64c3.66,0,6.05,2.55,6.05,6.49v10.62h-3.77v-9.77
				c0-2.59-1.32-4.09-3.49-4.09c-2.2,0-3.63,1.43-3.63,4.11v9.76h-3.76V36.54z"/>
			<path d="M389.02,44.55c-0.32-2.66-2.29-4.01-4.7-4.01c-2.93,0-5.19,1.99-5.19,6.56v2.8c0,4,1.61,6.67,5.19,6.67
				c2.9,0,4.82-1.81,4.82-4.17v-1.58h-4.81v-2.99h8.48v4.38c0,3.23-2.17,7.64-8.53,7.64c-6.18,0-9.02-4.09-9.02-9.95v-2.82
				c0-6.06,3.47-9.82,9.1-9.82c5.44,0,8.23,3.52,8.4,7.29H389.02z"/>
			<path d="M411.24,50.36v1.21c0,4.92-2.5,8.13-7.56,8.13c-5.06,0-7.58-3.18-7.58-8.13v-1.19c0-4.63,2.51-8.08,7.58-8.08
				C408.74,42.29,411.24,45.6,411.24,50.36z M399.88,50.5v0.97c0,2.71,0.86,5.24,3.8,5.24c2.93,0,3.76-2.51,3.76-5.24V50.5
				c0-2.74-0.84-5.25-3.76-5.25C400.75,45.25,399.88,47.78,399.88,50.5z"/>
			<path d="M429.16,50.36v1.21c0,4.92-2.5,8.13-7.56,8.13c-5.06,0-7.58-3.18-7.58-8.13v-1.19c0-4.63,2.51-8.08,7.58-8.08
				C426.66,42.29,429.16,45.6,429.16,50.36z M417.8,50.5v0.97c0,2.71,0.86,5.24,3.8,5.24c2.93,0,3.76-2.51,3.76-5.24V50.5
				c0-2.74-0.84-5.25-3.76-5.25C418.67,45.25,417.8,47.78,417.8,50.5z"/>
			<path d="M443.22,58.98v-2.4h-0.14c-0.64,1.46-2.4,2.63-4.77,2.63c-3.72,0-6.48-2.75-6.48-7.48v-1.85c0-4.66,2.71-7.54,6.51-7.54
				c2.72,0,4.17,1.26,4.82,2.66h0.14v-2.42h3.66v16.55c0,4.74-3.55,6.56-7.78,6.56c-4.79,0-6.89-2.47-6.99-5.04h3.69
				c0.19,1.18,1.29,2.15,3.41,2.15C441.93,62.79,443.22,61.4,443.22,58.98z M435.64,50.21v1.4c0,3.01,1.62,4.69,3.9,4.69
				c2.34,0,3.66-1.99,3.66-4.57V50.2c0-2.77-1.38-4.81-3.68-4.81C437.15,45.39,435.64,47.22,435.64,50.21z"/>
			<path d="M451.24,36.54H455v22.87h-3.76V36.54z"/>
			<path d="M458.69,51.74v-1.42c0-4.89,2.71-8.04,7.31-8.04c4.74,0,7.29,3.25,7.29,8.02v1.51H462.4v0.53c0,2.34,1.24,4.38,3.8,4.38
				c2.05,0,3.06-1.07,3.28-2.24h3.63c-0.27,2.26-2.13,5.22-6.89,5.22C461.36,59.7,458.69,56.63,458.69,51.74z M469.62,49.29v-0.03
				c0-2.37-1.35-4.07-3.6-4.07c-2.26,0-3.63,1.72-3.63,4.07v0.03H469.62z"/>
		</g>
		<g>
			<path class="st2" d="M140.58,25.11c0.36,0.15,0.75,0.12,1.12,0.17c3.71,0.5,6.93,2.01,9.71,4.5c0.21,0.18,0.21,0.27,0.01,0.47
				c-1.63,1.61-3.25,3.24-4.87,4.87c-0.19,0.19-0.29,0.22-0.51,0.02c-2.29-2.03-5-2.88-8.01-2.52c-4.68,0.56-7.75,3.22-9.42,7.58
				c-0.01,0.03-0.03,0.05-0.05,0.08c-0.14,0.04-0.24-0.06-0.33-0.14c-1.9-1.48-3.81-2.95-5.71-4.44c-0.07-0.06-0.15-0.11-0.18-0.21
				c0.6-1.28,1.38-2.45,2.28-3.53c2.96-3.55,6.72-5.75,11.27-6.58c0.52-0.09,1.05-0.14,1.58-0.21c0.08-0.01,0.17,0.04,0.22-0.07
				c0.08,0,0.17,0,0.25,0c0.06,0.05,0.13,0.05,0.19,0c0.1,0,0.21,0,0.31,0c0.17,0.05,0.33,0.05,0.5,0c0.27,0,0.54,0,0.81,0
				c0.15,0.05,0.29,0.05,0.44,0C140.33,25.11,140.45,25.11,140.58,25.11z"/>
			<path class="st3" d="M138.95,25.11c-0.17,0.1-0.33,0.1-0.5,0C138.62,25.11,138.78,25.11,138.95,25.11z"/>
			<path class="st4" d="M140.2,25.11c-0.15,0.11-0.29,0.09-0.44,0C139.91,25.11,140.06,25.11,140.2,25.11z"/>
			<path class="st5" d="M138.14,25.11c-0.06,0.08-0.13,0.09-0.19,0C138.01,25.11,138.07,25.11,138.14,25.11z"/>
			<path class="st6" d="M151.49,58.13c-1.55,1.47-3.33,2.58-5.33,3.3c-4.95,1.79-9.87,1.76-14.71-0.39
				c-4.04-1.79-7.05-4.73-9.08-8.65c-0.01-0.03-0.02-0.06-0.03-0.09c0.08-0.21,0.28-0.3,0.44-0.43c1.76-1.37,3.52-2.74,5.29-4.11
				c0.14-0.11,0.26-0.28,0.48-0.26c0.36,0.91,0.75,1.81,1.3,2.63c1.89,2.81,4.47,4.56,7.84,5c2.73,0.36,5.31-0.14,7.67-1.64
				c0.04-0.02,0.07-0.04,0.11-0.06c0.14-0.02,0.23,0.07,0.33,0.15c1.82,1.41,3.63,2.82,5.45,4.23
				C151.35,57.9,151.49,57.96,151.49,58.13z"/>
			<path class="st7" d="M151.49,58.13c-1.8-1.4-3.6-2.81-5.4-4.21c-0.2-0.16-0.41-0.31-0.62-0.47c1.53-1.06,2.68-2.43,3.35-4.18
				c0.15-0.4,0.27-0.81,0.37-1.23c0.04-0.16,0.01-0.21-0.15-0.2c-0.21,0.01-0.42,0-0.63,0c-2.98,0-5.97,0-8.95,0.01
				c-0.28,0-0.37-0.06-0.37-0.36c0.01-2.13,0.01-4.26,0-6.39c0-0.3,0.1-0.33,0.36-0.33c5.66,0.01,11.33,0.01,16.99,0
				c0.3,0,0.38,0.1,0.42,0.37c0.23,1.71,0.3,3.42,0.15,5.15c-0.19,2.26-0.71,4.44-1.66,6.51C154.42,54.82,153.16,56.62,151.49,58.13
				z"/>
			<path class="st8" d="M128.55,47.51c-1.2,0.93-2.41,1.86-3.61,2.79c-0.87,0.67-1.73,1.34-2.6,2c-0.92-1.77-1.52-3.65-1.81-5.62
				c-0.57-3.8,0-7.43,1.65-10.89c0.05-0.1,0.11-0.2,0.17-0.3c1.61,1.25,3.23,2.5,4.84,3.75c0.45,0.35,0.91,0.69,1.37,1.04
				c-0.22,0.79-0.43,1.58-0.52,2.4c-0.16,1.57-0.02,3.11,0.46,4.62C128.53,47.37,128.54,47.44,128.55,47.51z"/>
		</g>
	</g>
</g>
</svg>
