<?xml version="1.0" encoding="utf-8"?>
<!-- Generator: Adobe Illustrator 26.0.3, SVG Export Plug-In . SVG Version: 6.00 Build 0)  -->
<svg version="1.1" id="Layer_1" xmlns="http://www.w3.org/2000/svg" xmlns:xlink="http://www.w3.org/1999/xlink" x="0px" y="0px"
	 viewBox="0 0 120 120" style="enable-background:new 0 0 120 120;" xml:space="preserve">
<style type="text/css">
	.st0{fill:url(#SVGID_1_);}
	.st1{fill:url(#SVGID_00000068674976085620319900000000314205791962731915_);}
	.st2{fill:url(#SVGID_00000111894854641768778210000006244155169150333118_);}
	.st3{fill:url(#SVGID_00000137835910503644846190000014666518776331624592_);}
</style>
<g>
	<linearGradient id="SVGID_1_" gradientUnits="userSpaceOnUse" x1="83.11" y1="13.6726" x2="83.11" y2="86.9453">
		<stop  offset="0" style="stop-color:#3979F9"/>
		<stop  offset="0.7085" style="stop-color:#1A20F2"/>
	</linearGradient>
	<path class="st0" d="M68.7,16.2c9.6,0,19.3,0,28.9,0c1.5,0.2,2.8,0.8,3.9,1.9c1.5,1.5,2.3,3.2,2.3,5.3c0,8.9,0,17.7,0,26.6
		c0,4.4-3.8,7.5-7.9,7.5c-7.2,0-14.3,0-21.5,0c-1.3,0-2.7,0-4,0c-4.5-0.1-8-3.5-8-8.1c0-8.5,0-17,0-25.5c0-3.4,1.6-5.9,4.8-7.4
		C67.7,16.4,68.2,16.5,68.7,16.2z"/>
	
		<linearGradient id="SVGID_00000083786996045127708600000012443377606797568394_" gradientUnits="userSpaceOnUse" x1="36.6974" y1="59.5684" x2="36.6974" y2="128.5467">
		<stop  offset="0" style="stop-color:#3979F9"/>
		<stop  offset="0.7085" style="stop-color:#1A20F2"/>
	</linearGradient>
	<path style="fill:url(#SVGID_00000083786996045127708600000012443377606797568394_);" d="M57.2,70.9c0-0.6,0-1.2-0.2-1.9
		c-0.6-3.6-3.8-6.3-7.4-6.3c-8.6,0-17.3,0-25.9,0c-0.3,0-0.6,0-0.8,0.1c-1.9,0.3-3.5,1.2-4.8,2.5c-0.3,0.1-0.5,0.3-0.7,0.6
		c-0.8,1-1.1,2.1-1.2,3.3c0,4,0,8,0,12c0,5.4,0,10.7,0,16.1c0.1,0.2,0.1,0.4,0.1,0.6c0.2,1.3,0.6,2.5,1.8,3.4
		c0.2,0.2,0.4,0.4,0.6,0.6c1.4,1.3,3.1,2,4.9,2c8.7,0,17.4,0,26.1,0c3.9,0,7.4-3.5,7.4-7.4c0-5,0-10.1,0-15.1
		C57.2,77.8,57.2,74.3,57.2,70.9z"/>
	
		<linearGradient id="SVGID_00000121981251799260359920000005546306382900622746_" gradientUnits="userSpaceOnUse" x1="36.7088" y1="13.1358" x2="36.7088" y2="69.393">
		<stop  offset="0" style="stop-color:#FFFFFF"/>
		<stop  offset="0.2548" style="stop-color:#E8F8FF"/>
		<stop  offset="0.7854" style="stop-color:#AEE5FF"/>
		<stop  offset="1" style="stop-color:#95DDFF"/>
	</linearGradient>
	<path style="fill:url(#SVGID_00000121981251799260359920000005546306382900622746_);" d="M54.6,18.1c0-0.4-0.3-0.5-0.6-0.7
		c-1-0.8-2.2-1.1-3.5-1.2c-9.2,0-18.5,0-27.7,0c-1.1,0.1-2.2,0.3-3.2,1c-2,1.4-3.3,3.2-3.5,5.7c0,4.1,0,8.2,0,12.3
		c0,4.8,0,9.7,0,14.5c0,0.3,0,0.6,0,0.9c0.2,0.4,0.1,0.8,0.2,1.2c0.3,1.1,0.6,2.2,1.7,2.8c1.8,1.9,4.1,2.7,6.8,2.6
		c2.1-0.1,4.3,0,6.4,0c6.1,0,12.2,0,18.3,0c4.2,0,7.7-3.5,7.7-7.5c0-4.8,0-9.7,0-14.5c0-3.4,0-6.9,0-10.3
		C57.3,22.2,56.6,19.9,54.6,18.1z"/>
	
		<linearGradient id="SVGID_00000141425560588340718390000004400420042325831101_" gradientUnits="userSpaceOnUse" x1="83.2375" y1="61.0893" x2="83.2375" y2="122.6415">
		<stop  offset="0" style="stop-color:#FFFFFF"/>
		<stop  offset="0.2548" style="stop-color:#E8F8FF"/>
		<stop  offset="0.7854" style="stop-color:#AEE5FF"/>
		<stop  offset="1" style="stop-color:#95DDFF"/>
	</linearGradient>
	<path style="fill:url(#SVGID_00000141425560588340718390000004400420042325831101_);" d="M103.7,89.6c0-5.5,0-10.9,0-16.4
		c0.1-1.5,0.1-3-0.2-4.5c-0.7-3.3-3.8-5.9-7.2-5.9c-8.7,0-17.4,0-26.1,0c-3.3,0-6.2,2.4-7.2,5.6c-0.5,1.6-0.3,3.2-0.3,4.8
		c0,5.5,0,10.9,0,16.4c0,2.2-0.1,4.4,0,6.7c0.1,4.1,3.4,7.5,7.6,7.5c8.6,0,17.3,0,25.9,0c3.7,0,6.8-2.7,7.4-6.3
		C104,94.8,103.7,92.2,103.7,89.6z M75.4,89.4C75.4,89.4,75.4,89.4,75.4,89.4L75.4,89.4C75.4,89.4,75.4,89.4,75.4,89.4
		C75.4,89.4,75.4,89.4,75.4,89.4z M85.8,89.5C85.8,89.6,85.8,89.6,85.8,89.5C85.8,89.6,85.7,89.6,85.8,89.5
		C85.7,89.6,85.8,89.6,85.8,89.5z"/>
</g>
</svg>
