<svg
    xmlns="http://www.w3.org/2000/svg"
    viewBox="0 0 612 612"
    id="vector">
    <path
        id="path"
        d="M 606 6 C 600 0 591 -1.7 583.3 1.6 L 12.5 247.4 C 4.4 250.9 -0.6 259.1 0.1 267.9 C 0.8 276.7 6.9 284 15.4 286.3 L 261.2 350.9 L 325.8 596.7 C 328 605.2 335.4 611.4 344.2 612 C 344.7 612 345.2 612.1 345.7 612.1 C 353.9 612.1 361.3 607.2 364.6 599.6 L 610.3 28.8 C 613.7 21 611.9 12 606 6 Z M 350.4 528.3 L 298 328.7 C 296.1 321.5 290.5 315.9 283.3 314 L 83.7 261.6 L 552 60 L 350.4 528.3 Z"
        fill="#9e9e9e"/>
</svg>
