<svg
    xmlns="http://www.w3.org/2000/svg"
    viewBox="0 0 612 612"
    id="vector">
    <path
        id="path"
        d="M 535.5 0 L 76.5 0 C 34.3 0 0 34.3 0 76.5 L 0 535.5 C 0 577.7 34.3 612 76.5 612 L 535.5 612 C 577.7 612 612 577.7 612 535.5 L 612 76.5 C 612 34.3 577.7 0 535.5 0 Z M 573.8 535.5 C 573.8 556.6 556.7 573.8 535.5 573.8 L 76.5 573.8 C 55.4 573.8 38.2 556.7 38.2 535.5 L 38.2 76.5 C 38.2 55.4 55.3 38.2 76.5 38.2 L 535.5 38.2 C 556.6 38.2 573.8 55.3 573.8 76.5 L 573.8 535.5 Z M 421.3 173.4 C 412.2 168.1 400.5 171.3 395.2 180.4 L 272.8 392.3 L 204.4 329.2 C 197.2 321.5 185.1 321.1 177.4 328.3 C 169.7 335.5 169.3 347.6 176.5 355.3 L 263.9 435.9 C 271.1 443.6 283.2 444 290.9 436.8 C 293.2 434.6 428.2 199.5 428.2 199.5 C 433.5 190.4 430.4 178.7 421.3 173.4 Z"
        fill="#808080"/>
</svg>
