<svg
    xmlns="http://www.w3.org/2000/svg"
    viewBox="0 0 36 36"
    id="vector">
    <path
        id="path"
        d="M 18 18 M 0 18 C 0 13.228 1.898 8.646 5.272 5.272 C 8.646 1.898 13.228 0 18 0 C 22.772 0 27.354 1.898 30.728 5.272 C 34.102 8.646 36 13.228 36 18 C 36 22.772 34.102 27.354 30.728 30.728 C 27.354 34.102 22.772 36 18 36 C 13.228 36 8.646 34.102 5.272 30.728 C 1.898 27.354 0 22.772 0 18"
        fill="#3f51b5"/>
    <path
        id="path_1"
        d="M 22.6 15.5 L 22.3 15.5 L 22.3 13.4 C 22.3 11 20.3 9 17.9 9 C 15.5 9 13.5 11 13.5 13.4 L 13.5 15.5 L 13.2 15.5 C 12.3 15.5 11.6 16.2 11.6 17.1 L 11.6 25.5 C 11.6 26.4 12.3 27.1 13.2 27.1 L 22.5 27.1 C 23.4 27.1 24.1 26.4 24.1 25.5 L 24.1 17 C 24.2 16.2 23.5 15.5 22.6 15.5 Z M 15 13.4 C 15 11.7 16.4 10.4 18 10.4 C 19.7 10.4 21 11.8 21 13.4 L 21 15.5 L 15 15.5 L 15 13.4 Z M 22.9 25.4 C 22.9 25.5 22.8 25.6 22.7 25.6 L 13.4 25.6 C 13.3 25.6 13.2 25.5 13.2 25.4 L 13.2 17 C 13.2 16.9 13.3 16.8 13.4 16.8 L 14.4 16.8 L 21.8 16.8 L 22.8 16.8 C 22.9 16.8 23 16.9 23 17 L 23 25.4 Z"
        fill="#ffffff"/>
    <path
        id="path_2"
        d="M 18 19.3 C 17.6 19.3 17.3 19.6 17.3 20 L 17.3 22.5 C 17.3 22.9 17.6 23.2 18 23.2 C 18.4 23.2 18.7 22.9 18.7 22.5 L 18.7 20 C 18.7 19.6 18.4 19.3 18 19.3 Z"
        fill="#ffffff"/>
</svg>
