<?xml version="1.0" encoding="UTF-8"?>
<svg xmlns="http://www.w3.org/2000/svg" xmlns:xlink="http://www.w3.org/1999/xlink" width="20px" height="20px" viewBox="0 0 16 16" version="1.1">
<g id="surface1">
<path style=" stroke:none;fill-rule:nonzero;fill:rgb(95.686275%,26.27451%,21.176471%);fill-opacity:1;" d="M 3.792969 1.761719 C 3.652344 1.511719 3.742188 1.226562 3.972656 1.085938 C 4.0625 1.03125 4.164062 1.015625 4.257812 1.015625 C 4.414062 1.03125 4.558594 1.121094 4.648438 1.265625 L 5.304688 2.386719 L 4.433594 2.886719 Z M 12.25 1.761719 C 12.394531 1.511719 12.300781 1.210938 12.054688 1.085938 C 11.804688 0.941406 11.503906 1.050781 11.359375 1.261719 L 10.71875 2.386719 L 11.59375 2.882812 Z M 8.511719 0.496094 C 8.511719 0.210938 8.277344 0 8.015625 0 C 7.730469 0 7.5 0.210938 7.5 0.496094 L 7.5 1.796875 L 8.515625 1.796875 L 8.515625 0.496094 Z M 15.011719 4.023438 C 14.921875 3.878906 14.777344 3.789062 14.617188 3.773438 C 14.527344 3.773438 14.421875 3.773438 14.332031 3.824219 L 13.210938 4.484375 L 13.707031 5.355469 L 14.847656 4.699219 C 15.0625 4.574219 15.152344 4.273438 15.011719 4.023438 Z M 13.996094 14.597656 L 13.601562 14.597656 C 13.636719 14.546875 13.65625 14.472656 13.65625 14.402344 L 13.65625 13.867188 C 13.65625 13.617188 13.460938 13.421875 13.210938 13.421875 L 2.851562 13.421875 C 2.601562 13.421875 2.40625 13.617188 2.40625 13.867188 L 2.40625 14.402344 C 2.40625 14.472656 2.421875 14.546875 2.457031 14.597656 L 2.066406 14.597656 C 1.816406 14.597656 1.621094 14.792969 1.621094 15.042969 L 1.621094 15.578125 C 1.621094 15.828125 1.816406 16.023438 2.066406 16.023438 L 14.011719 16.023438 C 14.261719 16.023438 14.457031 15.828125 14.457031 15.578125 L 14.457031 15.042969 C 14.441406 14.8125 14.246094 14.597656 13.996094 14.597656 Z M 12.695312 12.941406 L 3.347656 12.941406 L 3.347656 8.011719 C 3.347656 5.429688 5.449219 3.347656 8.03125 3.347656 C 10.613281 3.347656 12.714844 5.429688 12.714844 8.011719 L 12.714844 12.941406 Z M 7.335938 8.847656 C 7.335938 7.515625 6.25 6.429688 4.917969 6.429688 L 4.917969 11.289062 C 6.25 11.289062 7.335938 10.203125 7.335938 8.847656 Z M 11.109375 6.425781 C 9.773438 6.425781 8.691406 7.511719 8.691406 8.847656 C 8.691406 10.183594 9.773438 11.265625 11.109375 11.265625 Z M 2.832031 4.503906 L 1.691406 3.847656 C 1.640625 3.8125 1.566406 3.792969 1.515625 3.792969 C 1.320312 3.777344 1.121094 3.863281 1.019531 4.042969 C 0.875 4.292969 0.949219 4.578125 1.195312 4.722656 L 2.335938 5.378906 Z M 2.832031 4.503906 "/>
</g>
</svg>
