<svg
    xmlns="http://www.w3.org/2000/svg"
    viewBox="0 0 36 36"
    id="vector">
    <path
        id="path"
        d="M 18 18 M 0 18 C 0 13.228 1.898 8.646 5.272 5.272 C 8.646 1.898 13.228 0 18 0 C 22.772 0 27.354 1.898 30.728 5.272 C 34.102 8.646 36 13.228 36 18 C 36 22.772 34.102 27.354 30.728 30.728 C 27.354 34.102 22.772 36 18 36 C 13.228 36 8.646 34.102 5.272 30.728 C 1.898 27.354 0 22.772 0 18"
        fill="#009688"/>
    <path
        id="path_1"
        d="M 12.6 15.2 C 14.2 15.2 15.6 13.9 15.6 12.2 C 15.6 10.5 14.3 9.2 12.6 9.2 C 10.9 9.2 9.6 10.5 9.6 12.2 C 9.6 13.9 10.9 15.2 12.6 15.2 Z M 12.6 10 C 13.8 10 14.8 11 14.8 12.2 C 14.8 13.4 13.8 14.4 12.6 14.4 C 11.4 14.4 10.4 13.4 10.4 12.2 C 10.3 11 11.3 10 12.6 10 Z"
        fill="#ffffff"/>
    <path
        id="path_2"
        d="M 20.4 15.2 C 22 15.2 23.4 13.9 23.4 12.2 C 23.4 10.5 22.1 9.2 20.4 9.2 C 18.8 9.2 17.4 10.5 17.4 12.2 C 17.4 13.9 18.7 15.2 20.4 15.2 Z M 20.4 10 C 21.6 10 22.6 11 22.6 12.2 C 22.6 13.4 21.6 14.4 20.4 14.4 C 19.2 14.4 18.2 13.4 18.2 12.2 C 18.1 11 19.1 10 20.4 10 Z"
        fill="#ffffff"/>
    <path
        id="path_3"
        d="M 24.2 19.2 C 24.3 19.3 24.4 19.3 24.5 19.3 C 24.6 19.3 24.7 19.3 24.7 19.2 C 24.9 19.1 24.9 18.9 24.8 18.7 C 23.7 17.3 22.1 16.5 20.4 16.5 C 19.3 16.5 18.2 16.8 17.3 17.4 C 17.1 17.5 17.1 17.7 17.2 17.9 C 17.3 18.1 17.5 18.1 17.7 18 C 18.5 17.5 19.4 17.2 20.4 17.2 C 21.9 17.3 23.3 18 24.2 19.2 Z"
        fill="#ffffff"/>
    <path
        id="path_4"
        d="M 12.6 16.6 C 9.5 16.6 7 19.1 7 22.2 C 7 22.4 7.2 22.6 7.4 22.6 C 7.6 22.6 7.8 22.4 7.8 22.2 C 7.8 19.5 10 17.3 12.6 17.3 C 15.2 17.3 17.4 19.5 17.4 22.2 C 17.4 22.4 17.6 22.6 17.8 22.6 C 18 22.6 18.2 22.4 18.2 22.2 C 18.1 19.1 15.6 16.6 12.6 16.6 Z"
        fill="#ffffff"/>
    <path
        id="path_5"
        d="M 25.6 19.9 C 23.7 19.9 22.2 21.4 22.2 23.3 C 22.2 25.2 23.7 26.7 25.6 26.7 C 27.5 26.7 29 25.2 29 23.3 C 29 21.4 27.5 19.9 25.6 19.9 Z M 25.6 26 C 24.1 26 22.9 24.8 22.9 23.3 C 22.9 21.8 24.1 20.6 25.6 20.6 C 27.1 20.6 28.3 21.8 28.3 23.3 C 28.3 24.8 27.1 26 25.6 26 Z"
        fill="#ffffff"/>
    <path
        id="path_6"
        d="M 26.8 22.9 L 26 22.9 L 26 22.1 C 26 21.9 25.8 21.7 25.6 21.7 C 25.4 21.7 25.2 21.9 25.2 22.1 L 25.2 22.9 L 24.4 22.9 C 24.2 22.9 24 23.1 24 23.3 C 24 23.5 24.2 23.7 24.4 23.7 L 25.2 23.7 L 25.2 24.5 C 25.2 24.7 25.4 24.9 25.6 24.9 C 25.8 24.9 26 24.7 26 24.5 L 26 23.7 L 26.8 23.7 C 27 23.7 27.2 23.5 27.2 23.3 C 27.1 23.1 26.9 22.9 26.8 22.9 Z"
        fill="#ffffff"/>
</svg>
