<svg
    xmlns="http://www.w3.org/2000/svg"
    viewBox="0 0 326 326"
    id="vector">
    <path
        id="path"
        d="M 164 306.1 L 25.7 180.2 C 21.3 175.5 17.3 170.3 13.9 164.7 C 10.5 159.2 7.7 153.3 5.6 147.2 C 1.9 136.9 0 126.2 0 115.5 C 0 63.3 42.5 20.8 94.7 20.8 C 121 20.8 145.8 31.7 163.5 50.4 C 181.2 31.6 206 20.8 232.3 20.8 C 284.5 20.8 327 63.3 327 115.5 C 327 126 325.2 136.5 321.6 146.7 C 319.3 153.2 316.4 159.4 312.7 165.3 C 309.7 170.2 306.1 174.9 302.2 179.2 L 301.5 179.9 L 164 306.1 Z M 42.4 163.8 L 163.9 274.3 L 285.2 162.9 C 288 159.8 290.5 156.4 292.7 152.8 C 295.4 148.4 297.7 143.7 299.4 138.8 C 302.1 131.1 303.4 123.2 303.4 115.3 C 303.4 76 271.4 44.1 232.2 44.1 C 208.5 44.1 186.4 55.9 173.1 75.5 L 163.4 89.9 L 153.7 75.5 C 140.5 56 118.4 44.3 94.7 44.3 C 55.4 44.3 23.5 76.3 23.5 115.5 C 23.5 123.5 24.9 131.5 27.7 139.3 C 29.3 143.9 31.4 148.3 34 152.4 C 36.4 156.6 39.2 160.4 42.4 163.8 Z"
        fill="#ffffff"/>
</svg>
