<svg
    xmlns="http://www.w3.org/2000/svg"
    viewBox="0 0 753 753"
    id="vector">
    <path
        id="path"
        d="M 494.3 659.1 C 507.3 659.1 517.8 648.6 517.8 635.6 L 517.8 353.1 C 517.8 340.1 507.3 329.6 494.3 329.6 C 481.3 329.6 470.8 340.1 470.8 353.1 L 470.8 635.6 C 470.8 648.5 481.3 659.1 494.3 659.1 Z M 635.5 94.2 L 494.3 94.2 L 494.3 47.1 C 494.3 21.1 473.2 0 447.2 0 L 306 0 C 280 0 258.9 21.1 258.9 47.1 L 258.9 94.2 L 117.7 94.2 C 91.7 94.2 70.6 115.3 70.6 141.3 L 70.6 188.4 C 70.6 214.4 91.7 235.5 117.7 235.5 L 117.7 659.2 C 117.7 711.2 159.9 753.4 211.9 753.4 L 541.4 753.4 C 593.4 753.4 635.6 711.2 635.6 659.2 L 635.6 235.4 C 661.6 235.4 682.7 214.3 682.7 188.3 L 682.7 141.2 C 682.6 115.2 661.5 94.2 635.5 94.2 Z M 306 70.6 C 306 57.6 316.5 47.1 329.5 47.1 L 423.7 47.1 C 436.7 47.1 447.2 57.6 447.2 70.6 L 447.2 94.1 C 424.4 94.1 306 94.1 306 94.1 L 306 70.6 Z M 588.5 659.1 C 588.5 685.1 567.4 706.2 541.4 706.2 L 211.8 706.2 C 185.8 706.2 164.7 685.1 164.7 659.1 L 164.7 235.4 L 588.4 235.4 L 588.4 659.1 Z M 612 188.3 L 141.2 188.3 C 128.2 188.3 117.7 177.8 117.7 164.8 C 117.7 151.8 128.2 141.3 141.2 141.3 L 612 141.3 C 625 141.3 635.5 151.8 635.5 164.8 C 635.5 177.8 625 188.3 612 188.3 Z M 258.9 659.1 C 271.9 659.1 282.4 648.6 282.4 635.6 L 282.4 353.1 C 282.4 340.1 271.9 329.6 258.9 329.6 C 245.9 329.6 235.4 340.1 235.4 353.1 L 235.4 635.6 C 235.4 648.5 245.9 659.1 258.9 659.1 Z M 376.6 659.1 C 389.6 659.1 400.1 648.6 400.1 635.6 L 400.1 353.1 C 400.1 340.1 389.6 329.6 376.6 329.6 C 363.6 329.6 353.1 340.1 353.1 353.1 L 353.1 635.6 C 353.1 648.5 363.6 659.1 376.6 659.1 Z"
        fill="#808080"/>
</svg>
