<svg
    xmlns="http://www.w3.org/2000/svg"
    viewBox="0 0 32 32"
    id="vector">
    <path
        id="path"
        d="M 28.46 7.65 L 28.01 7.79 L 25.62 8 L 24.94 9.08 L 24.45 8.92 L 22.55 7.2 L 22.27 6.31 L 21.9 5.36 L 20.71 4.3 L 19.3 4.03 L 19.27 4.68 L 20.65 6.03 L 21.33 6.83 L 20.57 7.23 L 19.95 7.03 L 19.02 6.64 L 19.05 5.89 L 17.83 5.39 L 17.43 7.15 L 16.2 7.43 L 16.32 8.41 L 17.92 8.72 L 18.2 7.15 L 19.52 7.34 L 20.13 7.7 L 21.11 7.7 L 21.78 9.05 L 23.56 10.86 L 23.43 11.56 L 21.99 11.38 L 19.5 12.64 L 17.71 14.79 L 17.48 15.74 L 16.85 15.74 L 15.65 15.19 L 14.49 15.74 L 14.78 16.97 L 15.29 16.39 L 16.18 16.36 L 16.12 17.46 L 16.86 17.68 L 17.6 18.51 L 18.8 18.17 L 20.17 18.39 L 21.77 18.82 L 22.57 18.91 L 23.92 20.44 L 26.53 21.97 L 24.84 25.19 L 23.06 26.02 L 22.38 27.86 L 19.8 29.58 L 19.53 30.57 C 26.11 28.98 31.01 23.07 31.01 16.01 C 31 12.91 30.06 10.04 28.46 7.65 Z"
        fill="#b0bec5"/>
    <path
        id="path_1"
        d="M 17.72 23.84 L 16.63 21.81 L 17.63 19.72 L 16.63 19.42 L 15.5 18.29 L 13.01 17.73 L 12.18 16 L 12.18 17.03 L 11.81 17.03 L 9.66 14.12 L 9.66 11.73 L 8.09 9.16 L 5.59 9.61 L 3.91 9.61 L 3.06 9.05 L 4.14 8.19 L 3.06 8.44 C 1.76 10.66 1 13.24 1 16 C 1 24.28 7.72 31 16 31 C 16.64 31 17.26 30.94 17.88 30.87 L 17.72 29.05 C 17.72 29.05 18.41 26.35 18.41 26.26 C 18.41 26.17 17.72 23.84 17.72 23.84 Z"
        fill="#b0bec5"/>
    <path
        id="path_2"
        d="M 6.57 5.84 L 9.24 5.47 L 10.47 4.8 L 11.85 5.19 L 14.06 5.07 L 14.82 3.88 L 15.92 4.06 L 18.6 3.81 L 19.34 3 L 20.38 2.31 L 21.85 2.53 L 22.39 2.45 C 20.44 1.53 18.28 1 16 1 C 11.34 1 7.18 3.12 4.43 6.45 L 4.44 6.45 L 6.57 5.84 Z M 16.63 2.49 L 18.16 1.65 L 19.14 2.22 L 17.72 3.3 L 16.36 3.44 L 15.75 3.04 L 16.63 2.49 Z M 12.1 2.62 L 12.78 2.9 L 13.66 2.62 L 14.14 3.45 L 12.1 3.99 L 11.12 3.42 C 11.11 3.41 12.07 2.79 12.1 2.62 Z"
        fill="#b0bec5"/>
</svg>
