<svg
    xmlns="http://www.w3.org/2000/svg"
    viewBox="0 0 32 32"
    id="vector">
    <path
        id="path"
        d="M 24.44 6.05 C 26.68 6.05 28.69 4.83 30.07 3.91 L 30.07 21.36 C 28.7 22.28 26.69 23.5 24.44 23.5 C 22.19 23.5 20.19 22.84 18.81 21.91 C 17.44 20.99 15.43 20.32 13.18 20.32 C 10.93 20.32 8.93 21.46 7.55 22.38 L 7.55 4.94 C 8.93 4.02 10.93 2.88 13.18 2.88 C 15.43 2.88 17.43 3.54 18.81 4.47 C 20.19 5.4 22.2 6.05 24.44 6.05 Z M 3.81 1 C 4.85 1 5.69 1.84 5.69 2.88 L 5.69 31 L 1.94 31 L 1.94 2.88 C 1.94 1.84 2.78 1 3.81 1 Z"
        fill="#b0bec5"/>
</svg>
