<svg
    xmlns="http://www.w3.org/2000/svg"
    viewBox="0 0 234 234"
    id="vector">
    <path
        id="path"
        d="M 7.5 42.57 L 46.74 42.57 C 50.07 55.22 61.6 64.57 75.27 64.57 C 88.94 64.57 100.47 55.22 103.8 42.57 L 226.5 42.57 C 230.64 42.57 234 39.21 234 35.07 C 234 30.93 230.64 27.57 226.5 27.57 L 103.8 27.57 C 100.47 14.92 88.94 5.57 75.27 5.57 C 61.6 5.57 50.07 14.92 46.74 27.57 L 7.5 27.57 C 3.36 27.57 0 30.93 0 35.07 C 0 39.21 3.36 42.57 7.5 42.57 Z M 75.27 20.57 C 83.26 20.57 89.77 27.08 89.77 35.07 C 89.77 43.06 83.26 49.57 75.27 49.57 C 67.28 49.57 60.77 43.06 60.77 35.07 C 60.77 27.08 67.27 20.57 75.27 20.57 Z"
        fill="#212121"/>
    <path
        id="path_1"
        d="M 226.5 109.5 L 176.51 109.5 C 173.18 96.85 161.65 87.5 147.98 87.5 C 134.3 87.5 122.78 96.85 119.45 109.5 L 7.5 109.5 C 3.36 109.5 0 112.86 0 117 C 0 121.14 3.36 124.5 7.5 124.5 L 119.45 124.5 C 122.78 137.15 134.31 146.5 147.98 146.5 C 161.66 146.5 173.18 137.15 176.51 124.5 L 226.5 124.5 C 230.64 124.5 234 121.14 234 117 C 234 112.86 230.64 109.5 226.5 109.5 Z M 147.98 131.5 C 139.99 131.5 133.48 124.99 133.48 117 C 133.48 109.01 139.99 102.5 147.98 102.5 C 155.97 102.5 162.48 109.01 162.48 117 C 162.48 124.99 155.98 131.5 147.98 131.5 Z"
        fill="#212121"/>
    <path
        id="path_2"
        d="M 226.5 191.43 L 103.8 191.43 C 100.47 178.78 88.94 169.43 75.27 169.43 C 61.6 169.43 50.07 178.78 46.74 191.43 L 7.5 191.43 C 3.36 191.43 0 194.79 0 198.93 C 0 203.07 3.36 206.43 7.5 206.43 L 46.74 206.43 C 50.07 219.08 61.6 228.43 75.27 228.43 C 88.94 228.43 100.47 219.08 103.8 206.43 L 226.5 206.43 C 230.64 206.43 234 203.07 234 198.93 C 234 194.79 230.64 191.43 226.5 191.43 Z M 75.27 213.43 C 67.28 213.43 60.77 206.92 60.77 198.93 C 60.77 190.94 67.28 184.43 75.27 184.43 C 83.26 184.43 89.77 190.94 89.77 198.93 C 89.77 206.92 83.26 213.43 75.27 213.43 Z"
        fill="#212121"/>
</svg>
